<svg width="375" height="240" viewBox="0 0 375 240" fill="none" xmlns="http://www.w3.org/2000/svg">
<path d="M262.858 40.7545C262.956 40.7545 263.006 40.7545 263.104 40.7545C263.252 40.7545 263.4 40.7052 263.498 40.7052C263.548 40.7052 263.646 40.7052 263.696 40.6559C263.893 40.6066 264.09 40.6066 264.336 40.5573L271.384 38.98C271.187 39.0293 270.99 39.0786 270.793 39.0786C270.743 39.0786 270.645 39.0786 270.595 39.1279C270.448 39.1279 270.3 39.1772 270.201 39.1772C270.103 39.1772 270.053 39.1772 269.955 39.1772C269.807 39.1772 269.708 39.1772 269.56 39.1772C269.462 39.1772 269.363 39.1772 269.265 39.1772C269.166 39.1772 269.018 39.1772 268.92 39.1772C268.821 39.1772 268.723 39.1772 268.624 39.1772C268.525 39.1772 268.378 39.1772 268.279 39.1772C268.18 39.1772 268.082 39.1772 267.983 39.1279C267.885 39.1279 267.737 39.1279 267.638 39.0786C267.54 39.0786 267.441 39.0293 267.343 39.0293C267.244 39.0293 267.096 38.98 266.998 38.98C266.899 38.98 266.8 38.9307 266.702 38.9307C266.603 38.8814 266.455 38.8814 266.357 38.8321C266.258 38.7829 266.16 38.7829 266.061 38.7336C265.963 38.6843 265.815 38.6843 265.716 38.635C265.618 38.5857 265.519 38.5857 265.421 38.5364C265.322 38.4871 265.174 38.4378 265.076 38.4378C264.977 38.3885 264.878 38.3392 264.78 38.3392C264.681 38.2899 264.533 38.2407 264.435 38.1914C264.336 38.1421 264.238 38.0928 264.139 38.0435C264.041 37.9942 263.893 37.9449 263.794 37.8956C263.696 37.8463 263.597 37.797 263.449 37.7477C263.351 37.6985 263.203 37.6492 263.104 37.5506C263.006 37.5013 262.907 37.452 262.759 37.3534C262.661 37.3041 262.513 37.2055 262.414 37.1563C262.316 37.107 262.217 37.0084 262.069 36.9591C261.971 36.9098 261.823 36.8112 261.724 36.7619C261.626 36.7126 261.527 36.6141 261.428 36.5648C261.33 36.4662 261.182 36.4169 261.083 36.3183C260.985 36.2197 260.837 36.1704 260.738 36.0719C260.64 35.9733 260.492 35.924 260.393 35.8254C260.295 35.7268 260.147 35.6282 260.048 35.579C259.95 35.4804 259.851 35.3818 259.703 35.3325C259.605 35.2339 259.457 35.1353 259.358 35.0368C259.26 34.9382 259.161 34.8396 259.013 34.741C258.915 34.6424 258.767 34.5438 258.668 34.4453C258.471 34.3467 258.323 34.2481 258.225 34.1495C258.126 34.0509 257.979 33.9031 257.88 33.8045C257.781 33.7059 257.683 33.6073 257.584 33.5087C257.486 33.4102 257.338 33.2623 257.239 33.1637C257.141 33.0651 257.042 32.9665 256.944 32.8187C256.845 32.6708 256.697 32.5722 256.599 32.4243C256.5 32.3258 256.401 32.1779 256.303 32.0793C256.204 31.9314 256.056 31.8329 255.958 31.685C255.859 31.5864 255.761 31.4385 255.662 31.3399C255.564 31.1921 255.416 31.0442 255.317 30.8963C255.219 30.7485 255.12 30.6499 255.021 30.502C254.874 30.4034 254.775 30.2555 254.676 30.1077C254.578 29.9598 254.479 29.8612 254.381 29.7133C254.282 29.5655 254.134 29.4176 254.036 29.2204C253.937 29.0726 253.839 28.974 253.789 28.8261C253.691 28.6782 253.543 28.4811 253.444 28.3332C253.346 28.1853 253.296 28.0867 253.198 27.9389C253.099 27.7417 252.951 27.5938 252.853 27.3967C252.754 27.2488 252.705 27.1502 252.606 27.0023C252.508 26.8052 252.36 26.608 252.261 26.4109C252.212 26.263 252.114 26.1644 252.064 26.0165C251.916 25.7701 251.818 25.5729 251.719 25.3265C251.67 25.2279 251.621 25.1293 251.522 24.9814C251.325 24.6364 251.177 24.2914 250.98 23.9463C250.881 23.7491 250.783 23.5027 250.684 23.2562C250.586 23.0591 250.487 22.8126 250.389 22.6155C250.241 22.3197 250.093 21.9747 249.994 21.6789C249.945 21.6296 249.945 21.5311 249.896 21.4818C249.748 21.186 249.6 20.841 249.502 20.5452V20.496C249.403 20.2002 249.255 19.8552 249.157 19.5594C249.157 19.5101 249.107 19.4608 249.107 19.3623C249.009 19.0172 248.861 18.7215 248.762 18.3764C248.762 18.3272 248.713 18.2779 248.713 18.2286C248.614 17.9821 248.516 17.6864 248.417 17.3906C248.417 17.3413 248.368 17.2921 248.368 17.2428C248.269 16.8977 248.171 16.602 248.072 16.2569C248.072 16.2077 248.023 16.1584 248.023 16.0598C247.924 15.764 247.875 15.4683 247.777 15.1725C247.777 15.1233 247.777 15.074 247.727 15.074C247.629 14.7782 247.579 14.4332 247.481 14.1374C247.481 14.0881 247.432 13.9896 247.432 13.9403C247.382 13.6445 247.284 13.2995 247.234 13.0037C247.234 13.0037 247.234 13.0037 247.234 12.9545C247.185 12.6094 247.136 12.3137 247.087 11.9686C247.087 11.9194 247.087 11.8208 247.037 11.7715C246.988 11.4757 246.939 11.1307 246.889 10.835C246.889 10.7857 246.889 10.7857 246.889 10.7364C246.84 10.4406 246.791 10.1449 246.791 9.84913C246.791 9.79984 246.791 9.70126 246.791 9.65197C246.742 9.35623 246.742 9.01119 246.692 8.71544C246.692 8.66615 246.692 8.61687 246.692 8.56757C246.692 8.27183 246.643 7.97608 246.643 7.72963C246.643 7.68034 246.643 7.63105 246.643 7.58175C246.643 7.28601 246.594 6.94098 246.594 6.64523C246.594 6.59594 246.594 6.54665 246.594 6.44807C246.594 6.15232 246.594 5.85658 246.594 5.56083C246.594 5.51154 246.594 5.51154 246.594 5.46225C246.594 5.36367 246.594 5.2158 246.594 5.11721C246.594 5.01863 246.594 4.92005 246.594 4.82147C246.594 4.72289 246.594 4.62431 246.594 4.47643C246.594 4.37785 246.594 4.27927 246.594 4.1314C246.594 4.03282 246.594 3.93423 246.594 3.83565C246.594 3.73707 246.594 3.63849 246.594 3.49062C246.594 3.39204 246.594 3.29345 246.594 3.19487C246.594 3.09629 246.594 2.94842 246.594 2.84984C246.594 2.75126 246.594 2.65267 246.594 2.55409C246.594 2.45551 246.594 2.30764 246.643 2.20906C246.643 2.11047 246.643 2.01189 246.692 1.91331C246.692 1.81473 246.692 1.71615 246.742 1.61757C246.742 1.51898 246.742 1.4204 246.791 1.32182C246.791 1.22324 246.791 1.12466 246.84 1.02608C246.84 0.927494 246.889 0.828913 246.889 0.73033C246.889 0.631749 246.939 0.533168 246.939 0.434586C246.939 0.336004 246.988 0.237422 246.988 0.13884C246.988 0.0402584 247.037 -0.0583229 247.037 -0.156904C247.037 -0.255486 247.087 -0.354068 247.087 -0.452649C247.087 -0.551231 247.136 -0.649813 247.136 -0.748394C247.136 -0.846976 247.185 -0.945559 247.185 -1.04414C247.185 -1.14272 247.234 -1.2413 247.234 -1.33988C247.234 -1.43847 247.284 -1.53705 247.284 -1.63563C247.284 -1.73421 247.333 -1.83279 247.333 -1.88208C247.333 -1.98067 247.382 -2.07925 247.382 -2.17783C247.382 -2.27641 247.432 -2.37499 247.432 -2.42428C247.432 -2.52287 247.481 -2.62145 247.481 -2.72003C247.481 -2.81861 247.53 -2.8679 247.53 -2.96648C247.579 -3.06506 247.579 -3.16364 247.629 -3.26223C247.678 -3.36081 247.678 -3.4101 247.727 -3.50868C247.777 -3.60726 247.777 -3.70584 247.826 -3.80443C247.826 -3.85372 247.875 -3.9523 247.875 -4.00159C247.974 -4.24804 248.023 -4.4945 248.122 -4.74095C248.122 -4.74095 248.122 -4.74095 248.122 -4.79024C248.22 -5.0367 248.319 -5.23386 248.368 -5.48031C248.368 -5.52961 248.417 -5.5789 248.417 -5.62819C248.516 -5.87464 248.614 -6.07181 248.713 -6.31826C248.713 -6.36755 248.762 -6.36755 248.762 -6.41684C248.861 -6.614 248.959 -6.81117 249.058 -7.00833C249.058 -7.05762 249.107 -7.10691 249.107 -7.10691C249.206 -7.30408 249.304 -7.50124 249.452 -7.6984C249.452 -7.74769 249.502 -7.79698 249.502 -7.84628C249.6 -8.04344 249.748 -8.2406 249.846 -8.38847C249.846 -8.38847 249.846 -8.43777 249.896 -8.43777C250.044 -8.63493 250.142 -8.83209 250.29 -9.02926C250.339 -9.07855 250.339 -9.12784 250.389 -9.12784C250.536 -9.325 250.635 -9.47287 250.783 -9.67004C250.783 -9.71933 250.832 -9.71933 250.832 -9.76862C250.931 -9.8672 250.98 -9.96578 251.079 -10.0644C251.128 -10.1137 251.128 -10.1629 251.177 -10.2122C251.226 -10.3108 251.325 -10.3601 251.374 -10.4587C251.424 -10.508 251.473 -10.5573 251.522 -10.6066C251.571 -10.7051 251.67 -10.7544 251.719 -10.8037C251.769 -10.853 251.818 -10.9023 251.867 -10.9516C251.916 -11.0009 252.015 -11.0995 252.064 -11.1488C252.114 -11.1981 252.163 -11.2473 252.212 -11.2966C252.261 -11.3459 252.36 -11.4445 252.409 -11.4938C252.459 -11.5431 252.508 -11.5924 252.557 -11.6417C252.656 -11.691 252.705 -11.7895 252.804 -11.8388C252.853 -11.8881 252.902 -11.9374 252.951 -11.9374C253.05 -11.9867 253.149 -12.0853 253.198 -12.1346C253.247 -12.1839 253.296 -12.1839 253.346 -12.2332C253.494 -12.3317 253.592 -12.4303 253.74 -12.4796L246.939 -9.8672C246.791 -9.76862 246.692 -9.67004 246.544 -9.62075C246.495 -9.57146 246.446 -9.57146 246.397 -9.52216C246.298 -9.47287 246.199 -9.37429 246.15 -9.325C246.15 -9.325 246.101 -9.325 246.101 -9.27571C246.052 -9.22642 246.052 -9.22642 246.002 -9.17713C246.002 -9.02926 245.953 -8.97996 245.854 -8.88138C245.805 -8.83209 245.756 -8.7828 245.707 -8.73351C245.608 -8.68422 245.559 -8.58564 245.46 -8.53635L245.411 -8.48706C245.362 -8.48706 245.362 -8.43777 245.312 -8.38847C245.263 -8.33918 245.164 -8.2406 245.115 -8.19131C245.066 -8.14202 245.017 -8.09273 244.967 -8.04344C244.918 -7.99415 244.819 -7.89557 244.77 -7.84628C244.721 -7.79698 244.721 -7.79698 244.672 -7.74769L244.622 -7.6984C244.524 -7.59982 244.474 -7.55053 244.376 -7.45195C244.327 -7.40266 244.277 -7.35337 244.277 -7.30408C244.179 -7.20549 244.129 -7.10691 244.031 -7.00833C244.031 -6.95904 243.982 -6.95904 243.982 -6.90975C243.834 -6.81117 243.686 -6.6633 243.538 -6.46613C243.489 -6.41684 243.489 -6.36755 243.439 -6.36755C243.292 -6.17039 243.193 -5.97322 243.045 -5.82535C243.045 -5.82535 243.045 -5.82535 243.045 -5.77606C242.947 -5.5789 242.799 -5.43102 242.7 -5.23386C242.7 -5.18457 242.651 -5.13528 242.651 -5.08599C242.552 -4.88882 242.404 -4.69166 242.306 -4.4945V-4.44521C242.306 -4.39592 242.257 -4.39592 242.257 -4.34663C242.207 -4.24804 242.158 -4.14946 242.109 -4.10017C242.059 -4.00159 242.01 -3.90301 241.961 -3.80443C241.961 -3.75514 241.912 -3.75514 241.912 -3.70584C241.813 -3.50868 241.715 -3.26223 241.616 -3.06506C241.616 -3.06506 241.616 -3.01577 241.567 -3.01577C241.567 -2.96648 241.567 -2.96648 241.517 -2.91719C241.419 -2.67074 241.32 -2.47357 241.271 -2.22712C241.271 -2.22712 241.271 -2.22712 241.271 -2.17783C241.172 -1.93137 241.074 -1.68492 241.025 -1.43847C241.025 -1.38918 241.025 -1.38918 240.975 -1.33988C240.975 -1.29059 240.926 -1.2413 240.926 -1.2413C240.877 -1.14272 240.877 -1.04414 240.827 -0.994848C240.778 -0.896267 240.778 -0.846976 240.729 -0.748394C240.68 -0.649813 240.68 -0.551231 240.63 -0.452649C240.581 -0.354068 240.581 -0.304777 240.581 -0.206196C240.532 -0.107614 240.532 -0.00903225 240.482 0.0895491C240.482 0.188131 240.433 0.237423 240.433 0.336004C240.384 0.434587 240.384 0.533168 240.384 0.631749C240.384 0.68104 240.384 0.68104 240.335 0.73033C240.335 0.779621 240.335 0.828912 240.285 0.878203C240.285 0.976785 240.236 1.07537 240.236 1.17395C240.236 1.27253 240.187 1.37111 240.187 1.4204C240.187 1.51898 240.137 1.61757 240.137 1.71615C240.137 1.81473 240.088 1.91331 240.088 2.01189C240.088 2.11047 240.039 2.20906 240.039 2.30764C240.039 2.40622 239.99 2.5048 239.99 2.60338C239.99 2.70196 239.94 2.80055 239.94 2.89913C239.94 2.94842 239.94 2.94842 239.94 2.99771C239.94 3.047 239.94 3.14558 239.891 3.19487C239.891 3.29345 239.842 3.39204 239.842 3.49062C239.842 3.5892 239.792 3.68778 239.792 3.78636C239.792 3.88494 239.792 3.98353 239.743 4.08211C239.743 4.18069 239.743 4.27927 239.694 4.37785C239.694 4.42714 239.694 4.52572 239.694 4.57502C239.694 4.62431 239.694 4.62431 239.694 4.6736C239.694 4.77218 239.694 4.87076 239.645 5.01863C239.645 5.11721 239.645 5.2158 239.645 5.31438V5.36367C239.645 5.46225 239.645 5.51154 239.645 5.61012C239.645 5.70871 239.645 5.80729 239.645 5.90587C239.645 6.00445 239.645 6.10303 239.645 6.2509C239.645 6.34949 239.645 6.44807 239.645 6.54665C239.645 6.64523 239.645 6.74381 239.645 6.84239C239.645 6.94098 239.645 7.03956 239.645 7.13814C239.645 7.23672 239.645 7.3353 239.645 7.43388C239.645 7.53246 239.645 7.68034 239.645 7.77892C239.645 7.77892 239.645 7.77892 239.645 7.82821V7.8775C239.645 8.17324 239.645 8.4197 239.645 8.71544C239.645 8.76474 239.645 8.81403 239.645 8.91261C239.645 9.20835 239.645 9.5041 239.694 9.79984C239.694 9.84913 239.694 9.89842 239.694 9.94772C239.694 10.2435 239.743 10.4899 239.743 10.7857C239.743 10.835 239.743 10.8842 239.743 10.9335C239.792 11.2293 239.792 11.5743 239.842 11.8701V11.9193C239.842 11.9686 239.842 11.9686 239.842 12.0179C239.891 12.3137 239.891 12.6094 239.94 12.9052C239.94 12.9545 239.94 12.9545 239.94 13.0037C239.99 13.2995 240.039 13.6445 240.088 13.9403C240.088 13.9896 240.088 14.0881 240.137 14.1374C240.187 14.4332 240.236 14.7782 240.285 15.074C240.285 15.074 240.285 15.074 240.285 15.1233C240.335 15.419 240.384 15.7147 240.482 16.0598C240.482 16.1091 240.482 16.1584 240.482 16.1584C240.482 16.2077 240.482 16.2077 240.482 16.2569C240.532 16.5527 240.63 16.8977 240.68 17.1935C240.68 17.2428 240.68 17.2921 240.729 17.2921C240.778 17.5878 240.877 17.8835 240.975 18.1793C240.975 18.2286 241.025 18.2779 241.025 18.3764C241.123 18.6722 241.222 19.0172 241.271 19.313C241.271 19.3623 241.32 19.4116 241.32 19.4608C241.419 19.7566 241.517 20.0523 241.616 20.3481C241.616 20.3974 241.616 20.3974 241.665 20.4467C241.665 20.4467 241.665 20.4467 241.665 20.496C241.764 20.7917 241.862 21.1367 242.01 21.4325C242.01 21.4818 242.059 21.5311 242.059 21.6296C242.158 21.9254 242.257 22.2211 242.404 22.5169V22.5662C242.503 22.8619 242.651 23.207 242.799 23.5027C242.848 23.552 242.848 23.6506 242.897 23.6999C243.045 23.9956 243.144 24.3406 243.292 24.6364C243.341 24.735 243.39 24.8335 243.439 24.9814C243.489 25.08 243.538 25.1786 243.587 25.2772C243.637 25.3757 243.686 25.4743 243.735 25.6222C243.784 25.7208 243.834 25.8194 243.883 25.9672C244.031 26.3123 244.228 26.6573 244.425 27.0023C244.474 27.1009 244.524 27.1995 244.622 27.2981C244.721 27.5445 244.869 27.7417 244.967 27.9882C244.967 27.9882 244.967 27.9882 244.967 28.0375C245.017 28.136 245.115 28.2346 245.164 28.3825C245.263 28.5797 245.411 28.7768 245.509 28.974C245.608 29.1219 245.657 29.2204 245.756 29.3683C245.854 29.5655 246.002 29.7133 246.101 29.9105L246.15 29.9598C246.199 30.0584 246.298 30.157 246.347 30.2555C246.446 30.4034 246.544 30.6006 246.692 30.7484C246.791 30.8963 246.889 30.9949 246.939 31.1428C247.037 31.2906 247.185 31.4385 247.284 31.6357C247.284 31.685 247.333 31.685 247.333 31.7343C247.382 31.8329 247.481 31.9314 247.53 32.03C247.629 32.1779 247.777 32.3258 247.875 32.4736C247.974 32.6215 248.072 32.7201 248.171 32.8187C248.269 32.9172 248.319 33.0158 248.417 33.1144C248.467 33.1637 248.467 33.213 248.516 33.213C248.565 33.2623 248.565 33.3116 248.614 33.3116C248.664 33.4102 248.762 33.4594 248.812 33.558C248.91 33.7059 249.058 33.8045 249.157 33.9524C249.255 34.0509 249.354 34.1988 249.452 34.2974C249.551 34.4453 249.699 34.5438 249.797 34.6424C249.847 34.6917 249.896 34.741 249.896 34.741C249.945 34.7903 250.044 34.8889 250.093 34.9382C250.191 35.0368 250.339 35.1846 250.438 35.2832C250.536 35.3818 250.635 35.4804 250.734 35.579C250.832 35.6775 250.98 35.7761 251.079 35.924C251.128 35.9733 251.177 36.0226 251.226 36.0226C251.276 36.0719 251.374 36.1212 251.424 36.1704C251.522 36.269 251.67 36.3676 251.769 36.4662C251.867 36.5648 251.966 36.6633 252.114 36.7126C252.212 36.8112 252.36 36.9098 252.459 37.0084C252.508 37.0577 252.557 37.107 252.606 37.107C252.656 37.1563 252.705 37.2056 252.804 37.2548C252.902 37.3534 253.05 37.452 253.149 37.5013C253.247 37.5999 253.395 37.6492 253.494 37.7477C253.543 37.797 253.592 37.8463 253.691 37.8956C253.74 37.9449 253.789 37.9942 253.888 37.9942C253.937 38.0435 253.986 38.0928 254.036 38.0928C254.085 38.1421 254.134 38.1421 254.233 38.1914C254.331 38.2407 254.43 38.3392 254.578 38.3885C254.676 38.4378 254.824 38.5364 254.923 38.5857C255.021 38.635 255.12 38.7336 255.268 38.7829C255.366 38.8321 255.514 38.9307 255.613 38.98C255.711 39.0293 255.81 39.0786 255.958 39.1279C256.056 39.1772 256.204 39.2265 256.303 39.2758C256.401 39.3251 256.5 39.3743 256.648 39.4236C256.697 39.4236 256.746 39.4729 256.796 39.4729C256.845 39.5222 256.944 39.5222 256.993 39.5715C257.091 39.6208 257.19 39.6701 257.338 39.7194C257.436 39.7687 257.584 39.818 257.683 39.8673C257.781 39.9165 257.88 39.9658 257.979 39.9658C258.077 40.0151 258.225 40.0644 258.324 40.0644C258.422 40.1137 258.521 40.1137 258.619 40.163C258.718 40.2123 258.866 40.2123 258.964 40.2616C259.063 40.2616 259.112 40.3109 259.211 40.3109C259.26 40.3109 259.26 40.3109 259.309 40.3109C259.358 40.3109 259.358 40.3109 259.408 40.3109C259.506 40.3109 259.605 40.3602 259.654 40.3602C259.753 40.3602 259.851 40.4095 259.95 40.4095C260.048 40.4095 260.196 40.4587 260.295 40.4587C260.393 40.4587 260.492 40.508 260.591 40.508C260.689 40.508 260.837 40.5573 260.936 40.5573C261.034 40.5573 261.133 40.5573 261.231 40.6066C261.33 40.6066 261.478 40.6066 261.576 40.6066C261.675 40.6066 261.773 40.6066 261.872 40.6066H261.921C262.02 40.6066 262.118 40.6066 262.217 40.6066C262.316 40.6066 262.414 40.6066 262.513 40.6066C262.611 40.8038 262.71 40.8038 262.858 40.7545Z" fill="url(#paint0_linear_203_321)"/>
<path d="M253.84 -12.3314C255.811 -13.613 257.979 -14.1059 260.247 -13.9087C262.415 -13.7608 264.682 -12.9229 266.851 -11.5428C268.97 -10.2119 271.04 -8.33885 272.962 -6.02218C274.835 -3.70551 276.56 -0.945226 277.989 2.1601C279.418 5.31471 280.453 8.51862 281.143 11.7225C281.784 14.9264 282.08 18.1303 281.981 21.1371C281.883 24.1931 281.39 27.052 280.552 29.5658C279.665 32.1289 278.383 34.347 276.708 36.0229C274.983 37.7481 273.011 38.7339 270.843 39.0789C268.674 39.424 266.358 39.0297 264.042 38.0438C261.676 37.0087 259.31 35.2835 257.092 32.9176C254.875 30.5516 252.805 27.5449 251.08 23.9959C249.355 20.3977 248.122 16.6516 247.432 12.9548C246.743 9.25798 246.545 5.61046 246.841 2.25868C247.137 -1.04381 247.925 -4.05055 249.108 -6.56438C250.192 -9.07822 251.819 -11.0498 253.84 -12.3314Z" fill="url(#paint1_linear_203_321)"/>
<path d="M276.905 2.20973C277.003 2.25903 277.053 2.30832 277.102 2.4069C277.151 2.50548 277.25 2.60406 277.299 2.70264C277.348 2.80123 277.398 2.9491 277.398 3.04768C277.398 3.14626 277.447 3.29413 277.447 3.39272C277.447 3.4913 277.398 3.58988 277.398 3.68846C277.398 3.78704 277.299 3.83633 277.25 3.88562C277.201 3.93491 277.102 3.98421 277.053 3.98421C277.003 3.98421 276.905 3.98421 276.806 3.93492C276.708 3.88562 276.658 3.83633 276.609 3.73775C276.56 3.63917 276.461 3.54059 276.412 3.44201C276.363 3.34342 276.313 3.19555 276.313 3.09697C276.313 2.99839 276.264 2.85052 276.264 2.75194C276.264 2.65335 276.313 2.55477 276.313 2.45619C276.363 2.35761 276.412 2.30832 276.461 2.25903C276.511 2.20973 276.609 2.16044 276.658 2.16044C276.757 2.16044 276.806 2.16044 276.905 2.20973ZM281.094 11.7229C280.848 10.6385 280.601 9.50478 280.256 8.42038L278.186 8.66684C278.137 8.66684 278.137 8.66684 278.088 8.66684C278.038 8.66684 278.038 8.66684 277.989 8.71613C277.94 8.71613 277.94 8.76542 277.891 8.76542C277.841 8.76542 277.841 8.81471 277.792 8.81471C277.693 8.864 277.644 8.96258 277.595 9.06116C277.546 9.15974 277.496 9.30762 277.447 9.45549C277.398 9.60336 277.398 9.75124 277.398 9.89911C277.398 10.047 277.398 10.2441 277.447 10.4413C277.496 10.6385 277.496 10.8849 277.546 11.1314C277.595 11.3778 277.644 11.6736 277.693 11.9693C277.743 12.2651 277.792 12.5608 277.841 12.8566C277.891 13.1523 277.94 13.448 277.989 13.7438C278.038 14.0395 278.038 14.3846 278.088 14.7789C278.088 15.2225 278.137 15.6168 278.186 15.9619C278.236 16.3069 278.236 16.652 278.236 16.8984C278.236 17.1449 278.285 17.342 278.285 17.342C278.334 17.5885 278.383 17.8349 278.433 18.0321C278.482 18.2293 278.58 18.4757 278.679 18.6236C278.778 18.8208 278.925 18.9686 279.024 19.0672C279.172 19.2151 279.27 19.2644 279.418 19.3137L281.932 20.2009C281.981 17.5392 281.685 14.631 281.094 11.7229ZM267.048 -6.46545C267.146 -6.26829 267.245 -6.02184 267.344 -5.87396C267.442 -5.6768 267.59 -5.52893 267.738 -5.38105C267.886 -5.28247 268.034 -5.1346 268.181 -4.98673C268.329 -4.83885 268.526 -4.69098 268.724 -4.54311C268.921 -4.39524 269.118 -4.19807 269.315 -4.0502C269.512 -3.85304 269.709 -3.70517 269.906 -3.508C270.104 -3.31084 270.301 -3.11368 270.547 -2.86722C270.793 -2.62077 271.04 -2.37431 271.237 -2.12786C271.483 -1.8814 271.681 -1.68424 271.828 -1.48708C271.976 -1.33921 272.075 -1.19133 272.124 -1.19133C272.223 -1.09275 272.371 -0.994169 272.469 -0.944879C272.568 -0.895587 272.716 -0.846296 272.814 -0.797006C272.913 -0.797006 273.011 -0.797006 273.11 -0.797006C273.208 -0.797006 273.307 -0.846296 273.406 -0.944879L273.455 -0.994169L273.504 -1.04346C273.504 -1.09275 273.553 -1.09275 273.553 -1.14204C273.553 -1.19133 273.603 -1.19133 273.603 -1.24062L274.736 -3.65588C274.145 -4.54311 273.504 -5.38105 272.863 -6.16971C271.138 -8.28921 269.266 -10.0144 267.344 -11.3452L266.851 -7.89489C266.801 -7.69772 266.801 -7.50056 266.851 -7.25411C266.9 -6.90907 266.949 -6.66262 267.048 -6.46545ZM280.01 24.8342C279.96 24.7356 279.911 24.5878 279.862 24.4892C279.813 24.3906 279.714 24.292 279.665 24.2427C279.615 24.1935 279.566 24.1442 279.517 24.1442C279.468 24.0949 279.418 24.0949 279.369 24.0949C279.32 24.0949 279.27 24.0949 279.221 24.0949C279.172 24.0949 279.123 24.1442 279.073 24.1935L279.024 24.2427C279.024 24.2427 278.975 24.292 278.975 24.3413C278.975 24.3906 278.926 24.3906 278.926 24.4399C278.926 24.4892 278.925 24.4892 278.876 24.5385C278.827 24.6371 278.827 24.7849 278.827 24.8835C278.827 24.9821 278.876 25.13 278.876 25.2286C278.925 25.3271 278.975 25.475 279.024 25.5736C279.073 25.6722 279.172 25.7708 279.221 25.82C279.27 25.8693 279.32 25.9186 279.369 25.9186C279.418 25.9679 279.468 25.9679 279.517 25.9679C279.566 25.9679 279.615 25.9679 279.665 25.9679C279.714 25.9679 279.763 25.9186 279.813 25.8693L279.862 25.82C279.862 25.82 279.911 25.7708 279.911 25.7215C279.911 25.6722 279.96 25.6722 279.96 25.6229C279.96 25.5736 279.96 25.5736 280.01 25.5243C280.059 25.4257 280.059 25.2779 280.059 25.1793C280.059 25.0314 280.01 24.9328 280.01 24.8342ZM251.868 23.2569C251.917 23.4048 252.016 23.5034 252.115 23.602C252.213 23.7005 252.312 23.7498 252.361 23.7991C252.41 23.8484 252.558 23.8484 252.657 23.8484C252.755 23.8484 252.854 23.7991 252.903 23.7498C253.002 23.7005 253.051 23.602 253.1 23.5034C253.15 23.4048 253.199 23.2569 253.199 23.1583C253.199 23.0105 253.199 22.9119 253.199 22.764C253.15 22.6161 253.15 22.4683 253.051 22.3697C253.002 22.2218 252.903 22.1232 252.805 22.0247C252.706 21.9261 252.607 21.8768 252.558 21.8275C252.46 21.7782 252.361 21.7782 252.262 21.7782C252.164 21.7782 252.065 21.8275 252.016 21.8768C251.917 21.9261 251.868 22.0247 251.819 22.1232C251.77 22.2218 251.72 22.3697 251.72 22.4683C251.72 22.6161 251.72 22.7147 251.72 22.8626C251.72 23.0105 251.77 23.1583 251.868 23.2569ZM276.609 36.0233C277.693 34.9389 278.58 33.6573 279.32 32.2279L277.102 28.6296C277.003 28.4325 276.856 28.2846 276.757 28.186C276.658 28.0874 276.511 27.9888 276.363 27.9396C276.215 27.8903 276.067 27.8903 275.919 27.8903C275.771 27.9396 275.673 27.9888 275.525 28.0874C275.426 28.186 275.328 28.3339 275.18 28.4818C275.032 28.6296 274.933 28.7775 274.786 28.9254C274.638 29.0732 274.49 29.2704 274.342 29.4183C274.194 29.5662 274.046 29.7633 273.898 29.9112C273.751 30.0591 273.553 30.2069 273.356 30.4041C273.159 30.6013 272.913 30.7491 272.716 30.897C272.518 31.0449 272.272 31.2913 272.173 31.3899C272.026 31.4885 271.927 31.5871 271.927 31.5871C271.779 31.6857 271.681 31.8828 271.631 32.0307C271.533 32.2279 271.483 32.425 271.483 32.6222C271.434 32.8193 271.434 33.0658 271.483 33.263C271.483 33.5094 271.533 33.7066 271.631 33.953L273.208 38.4385C274.342 37.9456 275.525 37.1077 276.609 36.0233ZM267.344 35.5796C267.344 35.6782 267.344 35.7768 267.344 35.8261C267.344 35.974 267.393 36.1218 267.442 36.2204C267.491 36.319 267.541 36.4669 267.639 36.5655C267.689 36.664 267.787 36.7133 267.886 36.8119C267.984 36.8612 268.083 36.9105 268.132 36.9105C268.181 36.9105 268.181 36.9105 268.231 36.9105C268.28 36.9105 268.28 36.9105 268.329 36.9105C268.379 36.9105 268.379 36.9105 268.428 36.8612L268.477 36.8119C268.526 36.7626 268.576 36.7133 268.576 36.664C268.625 36.6147 268.625 36.5162 268.674 36.4669C268.674 36.3683 268.724 36.319 268.724 36.2204C268.724 36.1218 268.724 36.0233 268.724 35.974C268.724 35.8261 268.674 35.6782 268.625 35.5796C268.576 35.4811 268.526 35.3332 268.428 35.2346C268.329 35.136 268.28 35.0867 268.181 34.9881C268.083 34.9389 267.984 34.8896 267.935 34.8896C267.886 34.8896 267.886 34.8896 267.836 34.8896C267.787 34.8896 267.787 34.8896 267.738 34.8896C267.689 34.8896 267.689 34.8896 267.639 34.9389L267.59 34.9881C267.541 35.0374 267.491 35.0867 267.491 35.136C267.442 35.1853 267.442 35.2839 267.393 35.3332C267.344 35.4318 267.344 35.4811 267.344 35.5796ZM250.587 -2.17715C250.537 -2.27573 250.439 -2.37431 250.34 -2.4729C250.291 -2.52219 250.192 -2.57148 250.143 -2.62077C250.094 -2.67006 249.995 -2.67006 249.946 -2.67006C249.897 -2.67006 249.798 -2.67006 249.749 -2.67006C249.7 -2.67006 249.65 -2.62077 249.601 -2.62077C249.552 -2.62077 249.552 -2.57148 249.552 -2.57148L249.502 -2.52219C249.502 -2.47289 249.453 -2.4729 249.453 -2.4236C249.453 -2.37431 249.404 -2.37431 249.404 -2.32502C249.355 -2.22644 249.355 -2.07857 249.355 -1.97999C249.355 -1.83211 249.355 -1.73353 249.404 -1.58566C249.453 -1.43779 249.502 -1.33921 249.552 -1.24062C249.601 -1.14204 249.7 -1.04346 249.798 -0.944879C249.847 -0.895587 249.946 -0.846296 249.995 -0.797006C250.045 -0.747715 250.143 -0.747715 250.192 -0.747715C250.242 -0.747715 250.34 -0.747715 250.39 -0.747715C250.439 -0.747715 250.488 -0.797006 250.537 -0.797006C250.587 -0.797006 250.587 -0.846296 250.587 -0.846296L250.636 -0.895587C250.636 -0.944879 250.685 -0.944879 250.685 -0.994169C250.685 -1.04346 250.735 -1.04346 250.735 -1.09275C250.784 -1.19133 250.784 -1.33921 250.784 -1.43779C250.784 -1.58566 250.784 -1.68424 250.735 -1.83211C250.685 -1.9307 250.636 -2.07857 250.587 -2.17715ZM268.576 28.7775C267.196 28.9747 265.717 28.7282 264.288 28.0381C262.809 27.3974 261.38 26.313 260.049 24.8835C258.719 23.5034 257.487 21.6796 256.452 19.5601C255.417 17.4406 254.727 15.1732 254.283 12.9551C253.889 10.7371 253.79 8.51896 253.938 6.49804C254.135 4.47711 254.579 2.60406 255.318 1.02675C256.057 -0.550552 257.043 -1.83211 258.324 -2.67006C259.557 -3.55729 260.937 -3.95162 262.316 -3.90233C263.696 -3.90233 265.126 -3.45871 266.506 -2.67006C267.886 -1.8814 269.216 -0.797006 270.399 0.632428C271.582 2.06186 272.716 3.73775 273.603 5.70938C274.49 7.68102 275.18 9.70194 275.574 11.7722C275.968 13.7931 276.116 15.814 276.018 17.7363C275.919 19.6587 275.574 21.4825 274.933 23.0598C274.342 24.6371 273.455 26.0172 272.321 27.0523C271.237 27.9888 269.956 28.6296 268.576 28.7775ZM275.081 19.6587L273.455 18.2785C273.356 18.7222 273.307 19.1165 273.159 19.5108C273.061 19.9051 272.913 20.2995 272.765 20.6445C272.617 20.9895 272.469 21.3839 272.272 21.6796C272.075 22.0247 271.878 22.3204 271.681 22.6161L273.061 24.6371C273.307 24.292 273.504 23.947 273.751 23.5527C273.948 23.1583 274.145 22.764 274.293 22.3204C274.441 21.8768 274.588 21.4825 274.736 20.9895C274.884 20.5952 275.032 20.1023 275.081 19.6587ZM272.568 8.91329C272.716 9.4062 272.863 9.84982 273.011 10.3427C273.159 10.8356 273.258 11.2792 273.356 11.7722C273.455 12.2651 273.504 12.7087 273.603 13.2016C273.652 13.6945 273.701 14.1381 273.701 14.631L275.377 14.9268C275.328 14.3846 275.278 13.8424 275.229 13.3002C275.18 12.758 275.081 12.2158 274.983 11.6736C274.884 11.1314 274.736 10.5892 274.588 10.047C274.441 9.50478 274.293 8.96258 274.096 8.42038L272.568 8.91329ZM268.132 -0.698424L267.59 1.42108C267.886 1.66754 268.181 1.91399 268.477 2.20973C268.773 2.50548 269.069 2.80123 269.364 3.14626C269.66 3.4913 269.906 3.83633 270.202 4.18137C270.449 4.5757 270.744 4.92073 270.991 5.36435L272.026 3.83633C271.73 3.39272 271.434 2.9491 271.138 2.50548C270.843 2.06186 270.498 1.66754 270.202 1.3225C269.857 0.928173 269.561 0.583138 269.216 0.238102C268.822 -0.106934 268.477 -0.402679 268.132 -0.698424ZM260.296 -2.57148L261.084 0.0409374C261.38 -0.0576439 261.676 -0.156225 262.021 -0.254807C262.317 -0.304098 262.661 -0.353389 262.957 -0.353389C263.302 -0.353389 263.598 -0.353389 263.943 -0.254807C264.288 -0.205516 264.584 -0.106935 264.929 -0.00835323L264.682 -2.57148C264.288 -2.67006 263.943 -2.76864 263.549 -2.86722C263.154 -2.91651 262.809 -2.9658 262.415 -2.9658C262.021 -2.9658 261.676 -2.91651 261.331 -2.86722C261.035 -2.81793 260.69 -2.71935 260.296 -2.57148ZM255.121 4.42782L256.944 5.95584C257.043 5.51222 257.142 5.1179 257.289 4.72357C257.437 4.32924 257.585 3.93491 257.733 3.58988C257.881 3.24484 258.078 2.89981 258.275 2.55477C258.472 2.20973 258.719 1.91399 258.965 1.61825L257.487 -0.550551C257.191 -0.254807 256.944 0.090229 256.698 0.484556C256.452 0.829592 256.254 1.22392 256.057 1.66754C255.86 2.06186 255.663 2.50548 255.515 2.99839C255.367 3.44201 255.219 3.93492 255.121 4.42782ZM257.733 15.9126C257.536 15.4197 257.388 14.8775 257.24 14.3846C257.092 13.8917 256.994 13.3495 256.895 12.8566C256.797 12.3636 256.747 11.8215 256.649 11.3285C256.599 10.8356 256.55 10.3427 256.55 9.84982L254.628 9.50478C254.628 10.0963 254.677 10.6385 254.776 11.23C254.825 11.8215 254.924 12.4129 255.022 13.0044C255.121 13.5959 255.269 14.1874 255.417 14.7789C255.564 15.3704 255.762 15.9619 255.959 16.5534L257.733 15.9126ZM262.563 26.0172L263.154 23.6513C262.809 23.4048 262.514 23.1583 262.169 22.8626C261.824 22.5669 261.528 22.2711 261.232 21.9261C260.937 21.581 260.641 21.236 260.345 20.8417C260.049 20.4473 259.754 20.053 259.507 19.6094L258.324 21.3839C258.62 21.8768 258.965 22.3204 259.31 22.764C259.655 23.2076 260 23.602 260.345 23.9963C260.69 24.3906 261.084 24.7356 261.429 25.0807C261.824 25.475 262.169 25.7708 262.563 26.0172ZM267.639 23.9963C268.625 23.8977 269.561 23.5034 270.35 22.764C271.138 22.0247 271.779 21.0881 272.223 19.9544C272.666 18.8208 272.913 17.5392 273.011 16.159C273.11 14.7789 273.011 13.3495 272.716 11.8707C272.42 10.392 271.976 8.91329 271.286 7.53315C270.646 6.10371 269.857 4.87144 268.97 3.88562C268.083 2.85052 267.146 2.06186 266.161 1.56895C265.175 1.02676 264.14 0.73101 263.204 0.73101C262.218 0.73101 261.232 1.02676 260.394 1.66754C259.507 2.30832 258.817 3.24484 258.324 4.32924C257.832 5.46293 257.487 6.79378 257.388 8.22322C257.24 9.65265 257.339 11.23 257.634 12.758C257.93 14.3353 258.423 15.9126 259.162 17.3913C259.902 18.87 260.739 20.1516 261.676 21.1867C262.612 22.2218 263.647 22.9612 264.633 23.4541C265.668 23.8977 266.654 24.0949 267.639 23.9963ZM268.428 27.7424C268.773 27.6931 269.167 27.5945 269.512 27.4959C269.857 27.3974 270.202 27.2495 270.547 27.0523L269.759 24.4399C269.463 24.5878 269.167 24.7356 268.871 24.8342C268.576 24.9328 268.231 24.9821 267.935 25.0314C267.639 25.0807 267.294 25.0807 266.949 25.0807C266.604 25.0807 266.309 25.0314 265.964 24.9328L266.21 27.6438C266.604 27.7424 266.999 27.7917 267.344 27.7917C267.689 27.7917 268.034 27.7917 268.428 27.7424ZM263.401 31.6364C263.253 31.4392 263.105 31.2913 262.957 31.1435C262.809 31.0449 262.661 30.897 262.464 30.7491C262.267 30.6013 262.07 30.4534 261.873 30.3055C261.676 30.1576 261.429 30.0098 261.232 29.8126C261.035 29.6647 260.789 29.4676 260.592 29.3197C260.394 29.1225 260.148 28.9254 259.852 28.6789C259.606 28.4325 259.31 28.186 259.064 27.9396C258.817 27.6931 258.571 27.4959 258.423 27.2988C258.226 27.1509 258.127 27.003 258.127 27.003C257.979 26.9044 257.881 26.8059 257.733 26.7566C257.585 26.7073 257.487 26.658 257.339 26.658C257.191 26.658 257.092 26.658 256.944 26.7073C256.846 26.7566 256.698 26.8059 256.599 26.9044C256.501 26.9044 256.501 26.9044 256.452 26.9537C256.402 27.003 256.402 27.003 256.353 27.0523C256.304 27.1016 256.304 27.1016 256.304 27.1509C256.304 27.2002 256.254 27.2495 256.254 27.2495L254.825 30.2562C255.564 31.1928 256.304 32.1293 257.043 32.9179C259.064 35.0374 261.183 36.664 263.351 37.7484L263.943 33.6573C263.992 33.4108 263.992 33.2137 263.943 32.9672C263.894 32.7208 263.844 32.4743 263.795 32.2771C263.647 32.0307 263.549 31.8335 263.401 31.6364ZM253.84 -12.3311C252.558 -11.5424 251.474 -10.458 250.488 -9.12716L253.002 -5.03602C253.1 -4.83886 253.248 -4.69098 253.396 -4.54311C253.544 -4.39524 253.692 -4.29666 253.889 -4.24736C254.037 -4.19807 254.234 -4.14878 254.382 -4.14878C254.529 -4.14878 254.677 -4.19807 254.825 -4.29666C254.924 -4.39524 255.072 -4.49382 255.219 -4.64169C255.367 -4.78956 255.515 -4.88815 255.663 -5.03602C255.811 -5.18389 256.008 -5.33176 256.156 -5.43035C256.353 -5.57822 256.501 -5.6768 256.698 -5.82467C256.846 -5.92325 257.092 -6.07113 257.339 -6.219C257.585 -6.36687 257.832 -6.46545 258.029 -6.61333C258.226 -6.71191 258.472 -6.85978 258.62 -6.90907C258.768 -7.00765 258.867 -7.05694 258.916 -7.05694C259.064 -7.15553 259.162 -7.3034 259.261 -7.45127C259.359 -7.59914 259.409 -7.79631 259.458 -7.99347C259.507 -8.19063 259.507 -8.3878 259.507 -8.63425C259.507 -8.83141 259.458 -9.07787 259.359 -9.27503L257.782 -13.7605C256.402 -13.6126 255.072 -13.1197 253.84 -12.3311ZM269.709 21.3839C270.399 20.7431 270.941 19.9051 271.336 18.9193C271.73 17.9335 271.976 16.7998 272.026 15.6168C272.075 14.4339 272.026 13.1523 271.779 11.8707C271.533 10.5892 271.138 9.30762 270.547 8.07534C269.956 6.84307 269.266 5.75868 268.526 4.92073C267.787 4.0335 266.949 3.34343 266.062 2.89981C265.224 2.45619 264.337 2.20973 263.45 2.20973C262.612 2.20973 261.774 2.50548 261.035 3.04768C260.296 3.58988 259.655 4.42782 259.261 5.36435C258.817 6.35017 258.571 7.48385 258.472 8.71613C258.374 9.9484 258.423 11.2793 258.669 12.6594C258.916 13.9902 259.359 15.3704 259.951 16.7012C260.592 17.9828 261.331 19.1165 262.119 20.0037C262.908 20.891 263.795 21.5317 264.682 21.9754C265.569 22.3697 266.456 22.5669 267.294 22.4683C268.231 22.3697 269.019 22.0247 269.709 21.3839ZM248.221 16.7505L250.981 16.3562C251.03 16.3562 251.08 16.3562 251.08 16.3562C251.129 16.3562 251.129 16.3562 251.178 16.3069C251.227 16.3069 251.227 16.2576 251.277 16.2576C251.326 16.2576 251.326 16.2083 251.375 16.2083C251.474 16.1098 251.572 16.0112 251.671 15.9126C251.77 15.7647 251.819 15.6661 251.868 15.469C251.917 15.3211 251.967 15.1239 251.967 14.9268C251.967 14.7296 251.967 14.5324 251.967 14.3353C251.917 14.0888 251.917 13.8424 251.868 13.5466C251.819 13.2509 251.77 12.9551 251.72 12.6101C251.671 12.2651 251.622 11.92 251.572 11.6243C251.523 11.2793 251.474 10.9342 251.474 10.5892C251.425 10.2441 251.425 9.84982 251.375 9.45549C251.326 9.01187 251.326 8.61754 251.277 8.17393C251.277 7.7796 251.227 7.38527 251.227 7.13882C251.227 6.84307 251.227 6.6952 251.227 6.64591C251.178 6.39946 251.129 6.10371 251.08 5.85726C250.981 5.6108 250.882 5.36435 250.784 5.16719C250.685 4.97002 250.537 4.77286 250.39 4.62499C250.242 4.47711 250.094 4.37853 249.897 4.32924L246.644 3.14626C246.447 6.25159 246.693 9.55407 247.334 12.9058C247.531 14.1874 247.876 15.469 248.221 16.7505ZM262.76 -11.3945C262.711 -11.3945 262.711 -11.3945 262.661 -11.3945C262.612 -11.3945 262.612 -11.3945 262.563 -11.3945C262.563 -11.3945 262.514 -11.3945 262.514 -11.3452C262.464 -11.296 262.415 -11.296 262.415 -11.2467C262.366 -11.1974 262.366 -11.1481 262.316 -11.0988C262.316 -11.0495 262.267 -10.9509 262.267 -10.9016C262.267 -10.803 262.267 -10.7538 262.267 -10.6552C262.267 -10.5073 262.316 -10.4087 262.366 -10.2608C262.415 -10.1623 262.464 -10.0144 262.514 -9.91581C262.563 -9.81723 262.661 -9.71865 262.76 -9.66936C262.859 -9.62007 262.908 -9.57078 263.006 -9.52149C263.056 -9.52149 263.056 -9.52149 263.105 -9.52149C263.154 -9.52149 263.154 -9.52149 263.204 -9.52149C263.253 -9.52149 263.253 -9.52149 263.302 -9.52149C263.302 -9.52149 263.351 -9.52149 263.351 -9.57078C263.401 -9.62007 263.45 -9.62007 263.45 -9.66936C263.45 -9.71865 263.499 -9.76794 263.549 -9.81723C263.549 -9.86652 263.598 -9.9651 263.598 -10.0144C263.598 -10.113 263.598 -10.1623 263.598 -10.2608C263.598 -10.4087 263.549 -10.5073 263.499 -10.6552C263.45 -10.803 263.401 -10.9016 263.351 -11.0002C263.302 -11.0988 263.204 -11.1974 263.105 -11.2467C263.006 -11.296 262.957 -11.3452 262.859 -11.3945C262.859 -11.3945 262.809 -11.3945 262.76 -11.3945Z" fill="url(#paint2_linear_203_321)"/>
<path d="M248.22 16.7008L241.172 18.9189C241.123 18.771 241.074 18.5739 241.025 18.426C241.025 18.3767 240.975 18.3274 240.975 18.2288C240.877 17.9331 240.827 17.6374 240.729 17.3416C240.729 17.2923 240.729 17.243 240.68 17.243C240.581 16.9473 240.532 16.6022 240.482 16.3065C240.482 16.2572 240.482 16.2572 240.482 16.2079C240.482 16.1586 240.482 16.1093 240.482 16.1093C240.433 15.8136 240.335 15.5179 240.285 15.1728C240.285 15.1728 240.285 15.1728 240.285 15.1235C240.236 14.8278 240.187 14.4827 240.137 14.187C240.137 14.1377 240.137 14.0391 240.088 13.9898C240.039 13.6941 239.99 13.3491 239.94 13.0533C239.94 13.004 239.94 13.004 239.94 12.9547C239.891 12.659 239.891 12.3632 239.842 12.0675C239.842 12.0182 239.842 12.0182 239.842 11.9689V11.9196C239.792 11.6239 239.792 11.2788 239.743 10.9831C239.743 10.9338 239.743 10.8845 239.743 10.8352C239.743 10.5395 239.694 10.293 239.694 9.99728C239.694 9.94799 239.694 9.8987 239.694 9.84941C239.694 9.55366 239.645 9.25792 239.645 8.96217C239.645 8.91288 239.645 8.86359 239.645 8.76501C239.645 8.46926 239.645 8.22281 239.645 7.92706V7.87777C239.645 7.87777 239.645 7.87777 239.645 7.82848C239.645 7.7299 239.645 7.58203 239.645 7.48345C239.645 7.38486 239.645 7.28628 239.645 7.1877C239.645 7.08912 239.645 6.99054 239.645 6.89196C239.645 6.79338 239.645 6.69479 239.645 6.59621C239.645 6.49763 239.645 6.39905 239.645 6.30047C239.645 6.20189 239.645 6.1033 239.645 5.95543L246.643 3.24443C246.643 3.34302 246.643 3.4416 246.643 3.54018C246.643 3.63876 246.643 3.73734 246.643 3.88521C246.643 3.9838 246.643 4.08238 246.643 4.18096C246.643 4.27954 246.643 4.37812 246.643 4.526C246.643 4.62458 246.643 4.72316 246.643 4.87103C246.643 4.96961 246.643 5.0682 246.643 5.16678C246.643 5.26536 246.643 5.41323 246.643 5.51181C246.643 5.5611 246.643 5.5611 246.643 5.61039C246.643 5.90614 246.643 6.20189 246.643 6.49763C246.643 6.54692 246.643 6.59621 246.643 6.69479C246.643 6.99054 246.692 7.33557 246.692 7.63132C246.692 7.68061 246.692 7.7299 246.692 7.77919C246.692 8.07494 246.742 8.37068 246.742 8.61713C246.742 8.66643 246.742 8.71572 246.742 8.76501C246.791 9.06075 246.791 9.40579 246.84 9.70153C246.84 9.75083 246.84 9.84941 246.84 9.8987C246.889 10.1944 246.889 10.4902 246.939 10.7859C246.939 10.8352 246.939 10.8352 246.939 10.8845C246.988 11.1803 247.037 11.5253 247.087 11.821C247.087 11.8703 247.087 11.9689 247.136 12.0182C247.185 12.3139 247.234 12.659 247.284 13.004C247.284 13.004 247.284 13.004 247.284 13.0533C247.333 13.3491 247.432 13.6941 247.481 13.9898C247.481 14.0391 247.53 14.1377 247.53 14.187C247.579 14.4827 247.678 14.8278 247.777 15.1235C247.777 15.1728 247.777 15.2221 247.826 15.2221C247.875 15.5179 247.974 15.8136 248.072 16.1093C248.072 16.1586 248.122 16.2079 248.122 16.3065C248.122 16.4051 248.171 16.553 248.22 16.7008ZM250.832 -9.57118C250.832 -9.62047 250.881 -9.62047 250.881 -9.66976C250.98 -9.76835 251.029 -9.86693 251.128 -9.96551C251.177 -10.0148 251.177 -10.0641 251.226 -10.1134C251.276 -10.212 251.374 -10.2613 251.424 -10.3598C251.473 -10.4091 251.522 -10.4584 251.571 -10.5077C251.621 -10.6063 251.719 -10.6556 251.769 -10.7049C251.818 -10.7542 251.867 -10.8035 251.916 -10.8527C251.966 -10.902 252.064 -11.0006 252.114 -11.0499C252.163 -11.0992 252.212 -11.1485 252.261 -11.1978C252.311 -11.2471 252.409 -11.3457 252.459 -11.3949C252.508 -11.4442 252.557 -11.4935 252.606 -11.5428C252.705 -11.5921 252.754 -11.6907 252.853 -11.74C252.902 -11.7893 252.951 -11.8386 253.001 -11.8386C253.099 -11.8879 253.198 -11.9864 253.247 -12.0357C253.296 -12.085 253.346 -12.085 253.395 -12.1343C253.543 -12.2329 253.641 -12.3315 253.789 -12.3808C253.937 -12.4793 254.085 -12.5779 254.233 -12.6765C254.381 -12.7751 254.529 -12.8244 254.726 -12.923C254.874 -13.0215 255.021 -13.0708 255.219 -13.1694C255.366 -13.2187 255.514 -13.3173 255.711 -13.3666L248.959 -10.8035C248.762 -10.6556 248.614 -10.557 248.467 -10.5077C248.319 -10.4584 248.122 -10.3598 247.974 -10.2613C247.826 -10.1627 247.678 -10.1134 247.481 -10.0148C247.333 -9.91622 247.185 -9.81764 246.988 -9.71906C246.84 -9.62047 246.742 -9.52189 246.594 -9.4726C246.544 -9.42331 246.495 -9.42331 246.446 -9.37402C246.347 -9.32473 246.249 -9.22615 246.199 -9.17686C246.199 -9.17686 246.15 -9.17686 246.15 -9.12757C246.101 -9.07827 246.101 -9.07827 246.052 -9.02898C246.002 -9.02898 245.953 -8.97969 245.854 -8.88111C245.805 -8.83182 245.756 -8.78253 245.707 -8.73324C245.608 -8.68395 245.559 -8.58537 245.46 -8.53608L245.411 -8.48678C245.362 -8.48678 245.362 -8.43749 245.312 -8.3882C245.263 -8.33891 245.164 -8.24033 245.115 -8.19104C245.066 -8.14175 245.017 -8.09246 244.967 -8.04317C244.918 -7.99388 244.819 -7.89529 244.77 -7.846C244.721 -7.79671 244.721 -7.79671 244.672 -7.74742L244.622 -7.69813C244.524 -7.59955 244.474 -7.55026 244.376 -7.45168C244.327 -7.40239 244.277 -7.3531 244.277 -7.3038C244.179 -7.20522 244.129 -7.10664 244.031 -7.00806C244.031 -6.95877 243.982 -6.95877 243.982 -6.90948C243.834 -6.8109 243.686 -6.66302 243.538 -6.46586C243.489 -6.41657 243.489 -6.36728 243.439 -6.36728C243.292 -6.17012 243.193 -5.97295 243.045 -5.82508C243.045 -5.82508 243.045 -5.82508 243.045 -5.77579C243.045 -5.7265 242.996 -5.7265 242.996 -5.67721L250.487 -9.17686C250.586 -9.27544 250.684 -9.42331 250.832 -9.57118ZM262.956 37.5509C262.858 37.5016 262.759 37.4523 262.611 37.3537C262.513 37.3044 262.365 37.2058 262.266 37.1565C262.168 37.1072 262.069 37.0087 261.921 36.9594C261.823 36.9101 261.675 36.8115 261.576 36.7622C261.478 36.7129 261.379 36.6143 261.281 36.565C261.182 36.4665 261.034 36.4172 260.936 36.3186C260.837 36.22 260.689 36.1707 260.591 36.0721C260.492 35.9735 260.344 35.9243 260.246 35.8257C260.147 35.7271 259.999 35.6285 259.901 35.5792C259.802 35.4806 259.703 35.3821 259.556 35.3328C259.457 35.2342 259.309 35.1356 259.211 35.037C259.112 34.9384 259.013 34.8399 258.866 34.7413C258.767 34.6427 258.619 34.5441 258.521 34.4455C258.471 34.347 258.323 34.2484 258.225 34.1498C258.126 34.0512 257.979 33.9033 257.88 33.8047C257.781 33.7062 257.683 33.6076 257.584 33.509C257.486 33.4104 257.338 33.2626 257.239 33.164C257.141 33.0654 257.042 32.9668 256.944 32.8189C256.845 32.6711 256.697 32.5725 256.599 32.4246C256.5 32.326 256.401 32.1782 256.303 32.0796C256.204 31.9317 256.056 31.8331 255.958 31.6852C255.859 31.5867 255.761 31.4388 255.662 31.3402C255.564 31.1923 255.416 31.0445 255.317 30.8966C255.219 30.7487 255.12 30.6501 255.021 30.5023C254.972 30.4037 254.874 30.3051 254.824 30.2065L248.171 32.7204C248.269 32.8189 248.319 32.9175 248.417 33.0161C248.467 33.0654 248.467 33.1147 248.516 33.1147C248.565 33.164 248.565 33.2133 248.614 33.2133C248.664 33.3118 248.762 33.3611 248.812 33.4597C248.91 33.6076 249.058 33.7062 249.157 33.854C249.255 33.9526 249.354 34.1005 249.452 34.1991C249.551 34.347 249.699 34.4455 249.797 34.5441C249.847 34.5934 249.896 34.6427 249.896 34.6427C249.945 34.692 250.044 34.7906 250.093 34.8399C250.191 34.9384 250.339 35.0863 250.438 35.1849C250.536 35.2835 250.635 35.3821 250.734 35.4806C250.832 35.5792 250.98 35.6778 251.079 35.8257C251.128 35.875 251.177 35.9243 251.226 35.9243C251.276 35.9735 251.374 36.0228 251.424 36.0721C251.522 36.1707 251.67 36.2693 251.769 36.3679C251.867 36.4665 251.966 36.565 252.114 36.6143C252.212 36.7129 252.36 36.8115 252.459 36.9101C252.508 36.9594 252.557 37.0087 252.606 37.0087C252.656 37.0579 252.705 37.1072 252.804 37.1565C252.902 37.2551 253.05 37.3537 253.149 37.403C253.247 37.5016 253.395 37.5509 253.494 37.6494C253.543 37.6987 253.592 37.748 253.691 37.7973C253.74 37.8466 253.789 37.8959 253.888 37.8959C253.937 37.9452 253.986 37.9945 254.036 37.9945C254.085 38.0438 254.134 38.0438 254.233 38.0931C254.331 38.1423 254.43 38.2409 254.578 38.2902C254.676 38.3395 254.824 38.4381 254.923 38.4874C255.021 38.5367 255.12 38.6353 255.268 38.6845C255.366 38.7338 255.514 38.8324 255.613 38.8817C255.711 38.931 255.81 38.9803 255.958 39.0296C256.056 39.0789 256.204 39.1282 256.303 39.1775C256.401 39.2267 256.5 39.276 256.648 39.3253C256.697 39.3253 256.746 39.3746 256.796 39.3746C256.845 39.4239 256.944 39.4239 256.993 39.4732C257.091 39.5225 257.19 39.5718 257.338 39.6211L263.498 37.5509C263.203 37.6987 263.055 37.6494 262.956 37.5509Z" fill="url(#paint3_linear_203_321)"/>
<path opacity="0.62" d="M276.904 35.3328C275.228 37.0087 273.257 37.9945 271.137 38.3395C269.018 38.6846 266.702 38.2903 264.435 37.3044C262.118 36.2693 259.802 34.5934 257.633 32.2768C255.416 29.9601 253.395 27.0027 251.719 23.503C249.994 20.0034 248.811 16.3065 248.121 12.659C247.431 9.0115 247.234 5.46256 247.53 2.16007C247.826 -1.14242 248.565 -4.09987 249.748 -6.56441C250.931 -8.97966 252.508 -10.902 254.528 -12.1836C256.5 -13.4158 258.619 -13.9087 260.788 -13.7609C261.724 -13.7116 262.66 -13.5144 263.597 -13.2187C262.463 -13.613 261.33 -13.8595 260.246 -13.958C258.028 -14.1552 255.859 -13.6623 253.838 -12.3807C251.818 -11.0992 250.191 -9.12753 249.009 -6.66299C247.776 -4.14916 247.037 -1.14242 246.741 2.16007C246.446 5.51185 246.643 9.15937 247.333 12.8562C248.023 16.6023 249.255 20.3484 250.98 23.8973C252.705 27.4463 254.775 30.453 256.993 32.819C259.211 35.1849 261.576 36.9101 263.942 37.9452C266.258 38.9803 268.575 39.3254 270.743 38.9803C272.862 38.6353 274.883 37.6495 276.608 35.9243C278.284 34.2484 279.565 32.0303 280.452 29.4672C280.502 29.3686 280.551 29.2207 280.551 29.1222C279.713 31.636 278.53 33.7062 276.904 35.3328Z" fill="#C6C6C6"/>
<path opacity="0.6" d="M276.065 8.91294C277.051 6.10336 277.347 3.1952 277.1 0.385626C275.868 -2.02962 274.439 -4.19842 272.911 -6.02218C271.038 -8.33885 268.919 -10.2119 266.8 -11.5428C264.631 -12.9229 262.414 -13.7116 260.196 -13.9087C257.978 -14.1059 255.809 -13.613 253.789 -12.3314C251.768 -11.0498 250.142 -9.07822 248.959 -6.61367C247.727 -4.09984 246.987 -1.0931 246.692 2.20939C246.396 5.56116 246.593 9.20868 247.283 12.9055C247.825 15.8629 248.712 18.8204 249.944 21.6793C260.689 25.3761 272.369 19.6583 276.065 8.91294Z" fill="url(#paint4_linear_203_321)"/>
<g opacity="0.6">
<path opacity="0.6" d="M249.846 21.4819C249.748 21.1862 249.6 20.8411 249.501 20.5454V20.4961C249.403 20.2003 249.255 19.8553 249.157 19.5596C249.157 19.5103 249.107 19.461 249.107 19.3624C249.009 19.0174 248.861 18.7216 248.762 18.3766C248.762 18.3273 248.713 18.278 248.713 18.2287C248.614 17.9822 248.516 17.6865 248.417 17.3908C248.417 17.3415 248.368 17.2922 248.368 17.2429C248.269 16.8978 248.171 16.6021 248.072 16.2571C248.072 16.2078 248.023 16.1585 248.023 16.0599C247.924 15.7642 247.875 15.4684 247.777 15.1727C247.777 15.1234 247.777 15.0741 247.727 15.0741C247.629 14.7783 247.579 14.4333 247.481 14.1376C247.481 14.0883 247.432 13.9897 247.432 13.9404C247.382 13.6447 247.284 13.2996 247.234 13.0039C247.234 13.0039 247.234 13.0039 247.234 12.9546C247.185 12.6095 247.136 12.3138 247.087 11.9688C247.087 11.9195 247.087 11.8209 247.037 11.7716C246.988 11.4759 246.939 11.1308 246.889 10.8351C246.889 10.7858 246.889 10.7858 246.889 10.7365C246.84 10.4408 246.791 10.145 246.791 9.84926C246.791 9.79997 246.791 9.70139 246.791 9.6521C246.742 9.35635 246.742 9.01131 246.692 8.71557C246.692 8.66628 246.692 8.61699 246.692 8.5677C246.692 8.27195 246.643 7.97621 246.643 7.72975C246.643 7.68046 246.643 7.63117 246.643 7.58188C246.643 7.28613 246.594 6.9411 246.594 6.64536C246.594 6.59606 246.594 6.54677 246.594 6.44819C246.594 6.15245 246.594 5.8567 246.594 5.56096C246.594 5.51167 246.594 5.51167 246.594 5.46238C246.594 5.36379 246.594 5.21592 246.594 5.11734C246.594 5.01876 246.594 4.92018 246.594 4.82159C246.594 4.72301 246.594 4.62443 246.594 4.47656C246.594 4.37798 246.594 4.27939 246.594 4.13152C246.594 4.03294 246.594 3.93436 246.594 3.83578C246.594 3.73719 246.594 3.63861 246.594 3.49074C246.594 3.39216 246.594 3.29358 246.594 3.195C246.594 3.09641 246.594 2.94854 246.594 2.84996C246.594 2.75138 246.594 2.6528 246.594 2.55421C246.594 2.45563 246.594 2.30776 246.643 2.20918C246.643 2.1106 246.643 2.01202 246.692 1.91343C246.692 1.81485 246.692 1.71627 246.742 1.61769C246.742 1.51911 246.742 1.42053 246.791 1.32194C246.791 1.22336 246.791 1.12478 246.84 1.0262C246.84 0.927617 246.889 0.829036 246.889 0.730454C246.889 0.631872 246.939 0.533291 246.939 0.43471C246.939 0.336127 246.988 0.237545 246.988 0.138964C246.988 0.0403814 247.037 -0.0581999 247.037 -0.156781C247.037 -0.255363 247.087 -0.353945 247.087 -0.452526C247.087 -0.551108 247.136 -0.64969 247.136 -0.748271C247.136 -0.846852 247.185 -0.945436 247.185 -1.04402C247.185 -1.1426 247.234 -1.24118 247.234 -1.33976C247.234 -1.43834 247.284 -1.53692 247.284 -1.63551C247.284 -1.73409 247.333 -1.83267 247.333 -1.88196C247.333 -1.98054 247.382 -2.07912 247.382 -2.1777C247.382 -2.27629 247.432 -2.37487 247.432 -2.42416C247.432 -2.52274 247.481 -2.62132 247.481 -2.7199C247.481 -2.81849 247.53 -2.86778 247.53 -2.96636C247.579 -3.06494 247.579 -3.16352 247.629 -3.2621C247.678 -3.36069 247.678 -3.40998 247.727 -3.50856C247.777 -3.60714 247.777 -3.70572 247.826 -3.8043C247.826 -3.85359 247.875 -3.95218 247.875 -4.00147C247.974 -4.24792 248.023 -4.49438 248.122 -4.74083C248.122 -4.74083 248.122 -4.74083 248.122 -4.79012C248.22 -5.03658 248.319 -5.23374 248.368 -5.48019C248.368 -5.52948 248.417 -5.57877 248.417 -5.62806C248.516 -5.87452 248.614 -6.07168 248.713 -6.31814C248.713 -6.36743 248.762 -6.36743 248.762 -6.41672C248.861 -6.61388 248.959 -6.81105 249.058 -7.00821C249.058 -7.0575 249.107 -7.10679 249.107 -7.10679C249.206 -7.30395 249.304 -7.50112 249.452 -7.69828C249.452 -7.74757 249.501 -7.79686 249.501 -7.84615C249.6 -8.04332 249.748 -8.24048 249.846 -8.38835C249.846 -8.38835 249.846 -8.43764 249.896 -8.43764C250.044 -8.63481 250.142 -8.83197 250.29 -9.02913C250.339 -9.07842 250.339 -9.12771 250.389 -9.12771C250.536 -9.32488 250.635 -9.47275 250.783 -9.66991C250.783 -9.7192 250.832 -9.7192 250.832 -9.7685C250.931 -9.86708 250.98 -9.96566 251.079 -10.0642C251.128 -10.1135 251.128 -10.1628 251.177 -10.2121C251.226 -10.3107 251.325 -10.36 251.374 -10.4586C251.424 -10.5079 251.473 -10.5571 251.522 -10.6064C251.571 -10.705 251.67 -10.7543 251.719 -10.8036C251.769 -10.8529 251.818 -10.9022 251.867 -10.9515C251.916 -11.0008 252.015 -11.0993 252.064 -11.1486C252.114 -11.1979 252.163 -11.2472 252.212 -11.2965C252.261 -11.3458 252.36 -11.4444 252.409 -11.4937C252.459 -11.543 252.508 -11.5923 252.557 -11.6415C252.656 -11.6908 252.705 -11.7894 252.804 -11.8387C252.853 -11.888 252.902 -11.9373 252.951 -11.9373C253.05 -11.9866 253.149 -12.0852 253.198 -12.1345C253.247 -12.1837 253.296 -12.1837 253.346 -12.233C253.494 -12.3316 253.592 -12.4302 253.74 -12.4795L246.939 -9.86708C246.791 -9.7685 246.692 -9.66991 246.544 -9.62062C246.495 -9.57133 246.446 -9.57133 246.397 -9.52204C246.298 -9.47275 246.199 -9.37417 246.15 -9.32488C246.15 -9.32488 246.101 -9.32488 246.101 -9.27559C246.052 -9.2263 246.052 -9.2263 246.002 -9.17701C246.002 -9.02913 245.953 -8.97984 245.854 -8.88126C245.805 -8.83197 245.756 -8.78268 245.707 -8.73339C245.608 -8.6841 245.559 -8.58552 245.46 -8.53622L245.411 -8.48693C245.362 -8.48693 245.362 -8.43764 245.312 -8.38835C245.263 -8.33906 245.164 -8.24048 245.115 -8.19119C245.066 -8.1419 245.017 -8.09261 244.967 -8.04332C244.918 -7.99403 244.819 -7.89544 244.77 -7.84615C244.721 -7.79686 244.721 -7.79686 244.672 -7.74757L244.622 -7.69828C244.524 -7.5997 244.474 -7.55041 244.376 -7.45183C244.327 -7.40254 244.277 -7.35324 244.277 -7.30395C244.179 -7.20537 244.129 -7.10679 244.031 -7.00821C244.031 -6.95892 243.982 -6.95892 243.982 -6.90963C243.834 -6.81105 243.686 -6.66317 243.538 -6.46601C243.489 -6.41672 243.489 -6.36743 243.439 -6.36743C243.292 -6.17026 243.193 -5.9731 243.045 -5.82523C243.045 -5.82523 243.045 -5.82523 243.045 -5.77594C242.947 -5.57877 242.799 -5.4309 242.7 -5.23374C242.7 -5.18445 242.651 -5.13516 242.651 -5.08587C242.552 -4.8887 242.404 -4.69154 242.306 -4.49438V-4.44509C242.306 -4.39579 242.257 -4.39579 242.257 -4.3465C242.207 -4.24792 242.158 -4.14934 242.109 -4.10005C242.059 -4.00147 242.01 -3.90289 241.961 -3.8043C241.961 -3.75501 241.912 -3.75501 241.912 -3.70572C241.813 -3.50856 241.715 -3.2621 241.616 -3.06494C241.616 -3.06494 241.616 -3.01565 241.567 -3.01565C241.567 -2.96636 241.567 -2.96636 241.517 -2.91707C241.419 -2.67061 241.32 -2.47345 241.271 -2.227C241.271 -2.227 241.271 -2.227 241.271 -2.1777C241.172 -1.93125 241.074 -1.6848 241.025 -1.43834C241.025 -1.38905 241.025 -1.38905 240.975 -1.33976C240.975 -1.29047 240.926 -1.24118 240.926 -1.24118C240.877 -1.1426 240.877 -1.04402 240.827 -0.994725C240.778 -0.896143 240.778 -0.846852 240.729 -0.748271C240.68 -0.64969 240.68 -0.551108 240.63 -0.452526C240.581 -0.353945 240.581 -0.304654 240.581 -0.206072C240.532 -0.107491 240.532 -0.00890923 240.482 0.0896721C240.482 0.188254 240.433 0.237546 240.433 0.336127C240.384 0.43471 240.384 0.533291 240.384 0.631872C240.384 0.681164 240.384 0.681163 240.335 0.730454C240.335 0.779745 240.335 0.829036 240.285 0.878326C240.285 0.976908 240.236 1.07549 240.236 1.17407C240.236 1.27265 240.187 1.37123 240.187 1.42053C240.187 1.51911 240.137 1.61769 240.137 1.71627C240.137 1.81485 240.088 1.91343 240.088 2.01202C240.088 2.1106 240.039 2.20918 240.039 2.30776C240.039 2.40634 239.99 2.50492 239.99 2.60351C239.99 2.70209 239.94 2.80067 239.94 2.89925C239.94 2.94854 239.94 2.94854 239.94 2.99783C239.94 3.04712 239.94 3.14571 239.891 3.195C239.891 3.29358 239.842 3.39216 239.842 3.49074C239.842 3.58932 239.792 3.6879 239.792 3.78649C239.792 3.88507 239.792 3.98365 239.743 4.08223C239.743 4.18081 239.743 4.27939 239.694 4.37798C239.694 4.42727 239.694 4.52585 239.694 4.57514C239.694 4.62443 239.694 4.62443 239.694 4.67372C239.694 4.7723 239.694 4.87088 239.645 5.01876C239.645 5.11734 239.645 5.21592 239.645 5.3145V5.36379C239.645 5.46238 239.645 5.51167 239.645 5.61025C239.645 5.70883 239.645 5.80741 239.645 5.90599C239.645 6.00458 239.645 6.10316 239.645 6.25103C239.645 6.34961 239.645 6.44819 239.645 6.54677C239.645 6.64536 239.645 6.74394 239.645 6.84252C239.645 6.9411 239.645 7.03968 239.645 7.13826C239.645 7.23685 239.645 7.33543 239.645 7.43401C239.645 7.53259 239.645 7.68046 239.645 7.77904C239.645 7.77904 239.645 7.77904 239.645 7.82833V7.87762C239.645 8.17337 239.645 8.41982 239.645 8.71557C239.645 8.76486 239.645 8.81415 239.645 8.91273C239.645 9.20848 239.645 9.50422 239.694 9.79997C239.694 9.84926 239.694 9.89855 239.694 9.94784C239.694 10.2436 239.743 10.49 239.743 10.7858C239.743 10.8351 239.743 10.8844 239.743 10.9337C239.792 11.2294 239.792 11.5744 239.842 11.8702V11.9195C239.842 11.9688 239.842 11.9688 239.842 12.0181C239.891 12.3138 239.891 12.6095 239.94 12.9053C239.94 12.9546 239.94 12.9546 239.94 13.0039C239.99 13.2996 240.039 13.6447 240.088 13.9404C240.088 13.9897 240.088 14.0883 240.137 14.1376C240.187 14.4333 240.236 14.7783 240.285 15.0741C240.285 15.0741 240.285 15.0741 240.285 15.1234C240.335 15.4191 240.384 15.7149 240.482 16.0599C240.482 16.1092 240.482 16.1585 240.482 16.1585C240.482 16.2078 240.482 16.2078 240.482 16.2571C240.532 16.5528 240.63 16.8979 240.68 17.1936C240.68 17.2429 240.68 17.2922 240.729 17.2922C240.778 17.5879 240.877 17.8837 240.975 18.1794C240.975 18.2287 241.025 18.278 241.025 18.3766C241.123 18.6723 241.222 19.0174 241.271 19.3131C241.271 19.3624 241.32 19.4117 241.32 19.461C241.419 19.7567 241.517 20.0525 241.616 20.3482C241.616 20.3975 241.616 20.3975 241.665 20.4468C241.665 20.4468 241.665 20.4468 241.665 20.4961C241.764 20.7918 241.862 21.1369 242.01 21.4326C242.01 21.4819 242.059 21.5312 242.059 21.6298C242.158 21.9255 242.257 22.2213 242.404 22.517V22.5663C242.503 22.862 242.651 23.2071 242.799 23.5028V23.5521L249.846 21.4819C249.896 21.5312 249.896 21.5312 249.846 21.4819Z" fill="url(#paint5_linear_203_321)"/>
</g>
<path d="M406.992 18.4959C407.288 18.4959 407.534 18.5945 407.781 18.6931C408.027 18.7917 408.175 18.9395 408.323 19.0874C408.471 19.2353 408.569 19.4324 408.619 19.6789C408.668 19.8761 408.668 20.1225 408.569 20.369L375.105 120.479C375.006 120.824 374.809 121.169 374.563 121.415C374.316 121.711 374.07 121.908 373.774 122.056C373.478 122.204 373.133 122.302 372.788 122.352C372.443 122.401 372.098 122.352 371.754 122.253L308.176 101.206C307.93 101.107 307.732 101.009 307.585 100.812C307.437 100.614 307.338 100.417 307.24 100.171C307.19 99.9244 307.141 99.6779 307.19 99.3822C307.24 99.0865 307.289 98.84 307.437 98.5442L347.505 15.8835C347.604 15.6863 347.752 15.4892 347.9 15.3413C348.047 15.1934 348.245 15.0455 348.442 14.8977C348.639 14.7991 348.885 14.7005 349.082 14.6019C349.329 14.5527 349.526 14.5034 349.772 14.5526L406.992 18.4959Z" fill="url(#paint6_linear_203_321)"/>
<path d="M364.312 45.6062C364.263 45.8034 364.066 46.0005 363.82 46.247C363.573 46.4934 363.277 46.7399 362.982 46.9863C362.686 47.2328 362.341 47.4792 362.045 47.6764C361.75 47.8736 361.454 48.0707 361.207 48.2186C360.172 48.8101 359.088 49.3523 358.004 49.8452C356.92 50.3381 355.835 50.8803 354.751 51.3732C353.667 51.9154 352.632 52.4576 351.597 53.0491C350.562 53.6406 349.527 54.3307 348.541 55.1193C347.999 55.5629 347.457 56.0559 346.964 56.5488C346.471 57.091 345.978 57.6332 345.584 58.2247C345.19 58.8161 344.845 59.4569 344.549 60.0977C344.303 60.7385 344.106 61.3793 344.007 62.0694C343.908 62.858 343.908 63.5481 344.007 64.1396C344.106 64.731 344.303 65.2732 344.598 65.7169C344.894 66.1605 345.239 66.5055 345.683 66.752C346.126 67.0477 346.619 67.1956 347.161 67.3435C347.851 67.4913 348.64 67.4913 349.478 67.3928C350.315 67.2942 351.153 67.0477 351.991 66.7027C352.829 66.3577 353.667 65.914 354.455 65.3718C355.244 64.8296 355.983 64.1889 356.575 63.4495C355.737 64.8789 354.8 66.0619 353.913 67.1463C352.977 68.1814 352.09 69.0686 351.301 69.7587C350.513 70.4488 349.823 70.991 349.33 71.336C348.837 71.6811 348.541 71.8782 348.541 71.8782L357.61 73.8499C357.61 73.8499 357.511 73.6034 357.314 73.0612C357.166 72.5683 356.969 71.8289 356.821 70.9417C356.673 70.0545 356.575 68.9208 356.624 67.6885C356.673 66.4562 356.821 65.0761 357.166 63.5481C357.117 64.386 357.265 65.224 357.511 65.9633C357.758 66.7027 358.152 67.4421 358.595 68.0335C359.088 68.625 359.63 69.1672 360.271 69.6108C360.912 70.0052 361.651 70.3502 362.39 70.4981C362.982 70.5967 363.622 70.646 364.214 70.5967C364.855 70.5474 365.495 70.3995 366.136 70.1037C366.777 69.8573 367.417 69.463 368.009 68.9701C368.6 68.4772 369.192 67.8857 369.783 67.097C370.276 66.4562 370.621 65.8155 370.917 65.1254C371.212 64.4353 371.36 63.7452 371.508 63.0552C371.607 62.3651 371.656 61.675 371.607 61.0342C371.557 60.3934 371.459 59.7527 371.262 59.1612C370.966 58.0768 370.522 57.1403 370.029 56.2037C369.537 55.3165 368.994 54.4785 368.403 53.6406C367.812 52.8519 367.22 52.0633 366.629 51.2254C366.037 50.4367 365.495 49.648 365.052 48.8101C364.953 48.6129 364.805 48.3665 364.707 48.0707C364.608 47.775 364.51 47.4793 364.411 47.1835C364.312 46.8878 364.263 46.592 364.263 46.2963C364.214 46.0498 364.263 45.8034 364.312 45.6062Z" fill="black"/>
<path d="M350.217 22.4887L352.385 20.0241L352.139 22.6365L350.217 22.4887ZM354.603 18.3482L353.716 18.299L347.9 24.7067L347.408 24.6575L347.309 24.8546L348.935 25.0025L349.034 24.8053L348.245 24.7067L350.069 22.6858L352.188 22.883L351.991 25.1011L351.252 25.0518L351.153 25.2489L354.702 25.594L354.8 25.3968L354.308 25.3475L354.603 18.3482Z" fill="black"/>
<path d="M350.166 26.58C350.117 26.6292 350.068 26.7278 350.018 26.7771C349.92 26.8757 349.821 26.925 349.723 27.0236C349.624 27.1222 349.526 27.1714 349.378 27.27C349.279 27.3193 349.181 27.4179 349.082 27.4672C348.737 27.6644 348.343 27.8615 347.998 28.0587C347.653 28.2558 347.259 28.4037 346.914 28.6009C346.569 28.798 346.174 28.9459 345.829 29.1924C345.484 29.3895 345.139 29.636 344.794 29.8824C344.597 30.0303 344.449 30.1782 344.252 30.3753C344.104 30.5232 343.907 30.7204 343.809 30.9175C343.661 31.1147 343.562 31.3119 343.464 31.509C343.365 31.7062 343.316 31.9034 343.266 32.1005C343.217 32.347 343.217 32.5441 343.266 32.7413C343.316 32.9385 343.365 33.0863 343.464 33.1849C343.562 33.2835 343.661 33.3821 343.809 33.4807C343.956 33.5299 344.104 33.5792 344.301 33.6285C344.548 33.6778 344.794 33.6285 345.041 33.5792C345.287 33.5299 345.583 33.4314 345.879 33.3328C346.174 33.2342 346.421 33.0863 346.667 32.8892C346.914 32.692 347.16 32.4948 347.357 32.2484C347.061 32.692 346.766 33.0863 346.47 33.3821C346.174 33.7271 345.879 33.9736 345.583 34.22C345.336 34.4665 345.09 34.6143 344.942 34.7129C344.794 34.8115 344.696 34.8608 344.696 34.8608L347.604 35.2058C347.604 35.2058 347.554 35.1073 347.505 35.0087C347.456 34.8608 347.406 34.6636 347.357 34.4172C347.308 34.1707 347.308 33.8257 347.308 33.4807C347.308 33.1356 347.406 32.692 347.505 32.2484C347.505 32.4948 347.505 32.7413 347.604 32.9878C347.653 33.1849 347.801 33.3821 347.948 33.5792C348.096 33.7271 348.293 33.875 348.491 33.9736C348.688 34.0722 348.934 34.1707 349.131 34.1707C349.328 34.1707 349.526 34.1707 349.723 34.1707C349.92 34.1214 350.117 34.0722 350.314 33.9736C350.511 33.875 350.708 33.7764 350.906 33.6285C351.103 33.4807 351.3 33.2835 351.497 33.037C351.645 32.8399 351.793 32.6427 351.891 32.4456C351.99 32.2484 352.039 32.0512 352.088 31.8048C352.138 31.6076 352.138 31.4104 352.138 31.2133C352.138 31.0161 352.088 30.819 352.088 30.6711C351.99 30.3753 351.891 30.0796 351.743 29.8331C351.596 29.5867 351.448 29.3402 351.251 29.0938C351.103 28.8473 350.906 28.6009 350.708 28.4037C350.561 28.1573 350.363 27.9108 350.216 27.6643C350.166 27.615 350.166 27.5165 350.117 27.4672C350.068 27.3686 350.068 27.27 350.018 27.1714C350.018 27.0729 349.969 26.9743 349.969 26.8757C350.117 26.6785 350.166 26.6292 350.166 26.58Z" fill="black"/>
<path d="M367.515 111.212L367.712 106.726L370.374 107.515L367.515 111.212ZM374.218 104.213L371.951 103.572L371.852 103.868L372.986 104.163L370.669 107.17L367.712 106.283L367.86 102.635L368.895 102.931L368.994 102.635L364.262 101.304L364.164 101.6L364.804 101.797L364.607 113.529L365.839 113.923L373.478 104.262L374.168 104.459L374.218 104.213Z" fill="black"/>
<path d="M376.435 88.8341L372.591 87.8976C372.591 87.8976 372.64 87.9962 372.739 88.1933C372.838 88.3905 372.887 88.6862 372.985 89.0806C373.084 89.4749 373.133 89.9185 373.133 90.4607C373.133 91.0029 373.084 91.5944 372.985 92.2845C372.985 91.8901 372.936 91.5451 372.788 91.2001C372.69 90.855 372.493 90.5593 372.295 90.2635C372.098 89.9678 371.852 89.7706 371.556 89.5735C371.31 89.3763 371.014 89.2284 370.669 89.1792C370.423 89.1299 370.176 89.0806 369.93 89.1299C369.683 89.1299 369.437 89.1791 369.19 89.2777C368.944 89.3763 368.698 89.5242 368.451 89.7213C368.205 89.9185 367.958 90.165 367.761 90.4607C367.564 90.7072 367.416 91.0029 367.318 91.2987C367.219 91.5944 367.121 91.8901 367.071 92.1859C367.022 92.4816 367.022 92.7774 367.022 93.0731C367.022 93.3689 367.071 93.6646 367.121 93.9111C367.219 94.404 367.416 94.8476 367.613 95.2912C367.811 95.7348 368.057 96.1292 368.303 96.5235C368.55 96.9178 368.796 97.3121 369.043 97.7558C369.289 98.1501 369.535 98.5937 369.733 99.0373C369.782 99.1359 369.831 99.2838 369.88 99.4317C369.93 99.5795 369.979 99.7274 370.028 99.8753C370.078 100.023 370.078 100.171 370.127 100.319C370.127 100.467 370.127 100.565 370.127 100.664C370.176 100.565 370.225 100.467 370.324 100.368C370.423 100.27 370.57 100.122 370.669 100.023C370.817 99.9246 370.965 99.826 371.063 99.7274C371.211 99.6288 371.31 99.5302 371.458 99.4809C371.901 99.2345 372.394 98.988 372.887 98.7909C373.38 98.5937 373.823 98.3966 374.316 98.1501C374.809 97.9529 375.253 97.7065 375.745 97.46C376.189 97.2136 376.633 96.9178 377.076 96.5728C377.322 96.3756 377.569 96.1785 377.766 95.932C377.963 95.6856 378.16 95.4391 378.308 95.1434C378.456 94.8476 378.604 94.6012 378.702 94.2561C378.801 93.9604 378.85 93.6646 378.85 93.3196C378.85 92.9745 378.801 92.6295 378.752 92.3338C378.653 92.038 378.555 91.7916 378.407 91.5944C378.259 91.3972 378.062 91.2001 377.865 91.1015C377.667 90.9536 377.421 90.855 377.175 90.8057C376.879 90.7072 376.485 90.7072 376.14 90.7565C375.795 90.8058 375.4 90.855 375.055 91.0029C374.71 91.1508 374.365 91.2987 374.02 91.5451C373.675 91.7916 373.38 92.038 373.133 92.3831C373.478 91.7916 373.823 91.2494 374.218 90.8057C374.563 90.3621 374.957 89.9678 375.253 89.7213C375.598 89.4256 375.844 89.2284 376.041 89.0806C376.337 88.9327 376.435 88.8341 376.435 88.8341Z" fill="black"/>
<path d="M-14.9166 158.142C-14.8087 158.196 -14.6468 158.25 -14.5389 158.358C-14.431 158.466 -14.3231 158.574 -14.2152 158.736C-14.1073 158.898 -13.9994 159.006 -13.9454 159.167C-13.8915 159.329 -13.8375 159.491 -13.7836 159.653C-9.14362 180.262 1.75482 199.253 19.0197 211.77C19.1815 211.878 19.3434 212.04 19.4513 212.148C19.5053 212.256 19.5592 212.417 19.5592 212.525C19.5592 212.633 19.5592 212.795 19.5053 212.903C19.4513 213.011 19.3434 213.119 19.2355 213.227C6.55661 221.319 -5.6367 230.168 -17.3444 239.609C-17.5063 239.771 -17.7221 239.879 -17.9919 239.879C-18.2616 239.933 -18.5314 239.879 -18.8012 239.771C-19.0709 239.663 -19.3946 239.555 -19.6644 239.339C-19.9342 239.123 -20.2039 238.908 -20.4197 238.584C-40.9218 211.069 -49.8779 176.81 -47.3421 142.766C-47.3421 142.55 -47.2882 142.335 -47.1803 142.173C-47.1263 142.011 -47.0184 141.903 -46.9105 141.795C-46.8026 141.687 -46.6408 141.687 -46.5328 141.687C-46.371 141.687 -46.2631 141.741 -46.1012 141.849C-36.066 147.999 -25.6531 153.449 -14.9166 158.142Z" fill="url(#paint7_linear_203_321)"/>
<path d="M11.9504 211.716C11.0871 211.23 10.2239 210.745 9.41461 210.259C9.90019 210.043 10.17 209.882 10.6555 209.666C11.1411 210.475 11.4109 210.907 11.9504 211.716ZM9.84623 207.454C9.41461 207.616 9.25275 207.724 8.82113 207.885C8.87509 207.939 8.87508 207.939 8.92904 207.993C9.14485 207.885 9.25275 207.885 9.41461 207.777C9.84623 208.479 10.0081 208.803 10.4397 209.45C9.90019 209.72 9.63042 209.828 9.0909 210.097C8.28161 209.612 7.84998 209.342 7.04069 208.803C7.2565 208.695 7.31046 208.695 7.52627 208.587C7.47231 208.533 7.47231 208.533 7.41836 208.479C6.50116 208.856 6.06954 209.072 5.15234 209.504C5.2063 209.558 5.26025 209.612 5.3142 209.666C5.42211 209.612 5.53001 209.558 5.63792 209.504C7.90393 210.907 10.1699 212.255 12.5439 213.442C12.7597 213.334 12.8676 213.281 13.0834 213.119C11.8964 211.338 10.7095 209.558 9.63042 207.67C9.73833 207.616 9.79228 207.562 9.95414 207.508C9.90019 207.508 9.90019 207.508 9.84623 207.454Z" fill="#EF1B1B"/>
<path d="M1.75439 201.897C1.80834 201.951 1.80834 202.005 1.86229 202.059C1.86229 202.113 1.91624 202.221 1.91624 202.275C1.91624 202.329 1.91624 202.437 1.9702 202.491C1.9702 202.545 1.9702 202.653 1.9702 202.706C1.9702 202.922 1.91625 203.138 1.86229 203.354C1.80834 203.57 1.75439 203.786 1.75439 204.001C1.70043 204.217 1.70044 204.433 1.64648 204.649C1.64648 204.865 1.64648 205.134 1.70043 205.404C1.75439 205.566 1.75439 205.728 1.86229 205.89C1.91625 206.051 2.02415 206.213 2.13206 206.375C2.23996 206.537 2.34787 206.699 2.50973 206.861C2.67158 207.023 2.77949 207.184 2.9953 207.292C3.21111 207.454 3.37297 207.562 3.58878 207.67C3.80459 207.778 3.96645 207.832 4.12831 207.886C4.29017 207.94 4.45202 207.94 4.61388 207.94C4.77574 207.94 4.88365 207.886 4.99155 207.832C5.15341 207.778 5.31527 207.67 5.36922 207.508C5.47712 207.4 5.53108 207.238 5.58503 207.023C5.63898 206.861 5.58503 206.645 5.58503 206.429C5.53108 206.213 5.42317 205.998 5.31526 205.782C5.53108 205.944 5.80084 206.105 6.0706 206.213C6.34037 206.321 6.55618 206.429 6.82594 206.483C7.09571 206.537 7.31152 206.591 7.52733 206.591C7.74314 206.591 7.95895 206.537 8.12081 206.483C8.22871 206.429 8.33662 206.375 8.39057 206.321C8.44452 206.267 8.49848 206.159 8.55243 206.051C8.55243 205.944 8.55243 205.836 8.55243 205.674C8.49848 205.512 8.44452 205.35 8.33662 205.188C8.22871 205.026 8.1208 204.918 8.0129 204.757C7.90499 204.595 7.74314 204.487 7.58128 204.379C7.41942 204.271 7.25756 204.163 7.0957 204.055C6.93385 203.947 6.77199 203.839 6.55618 203.786C6.23246 203.624 5.9627 203.516 5.63898 203.408C5.31527 203.3 5.0455 203.192 4.72179 203.084C4.39807 202.976 4.12831 202.922 3.80459 202.814C3.48087 202.706 3.21111 202.599 2.88739 202.491C2.83344 202.437 2.72553 202.437 2.61763 202.383C2.50972 202.329 2.40182 202.275 2.34787 202.221C2.23996 202.167 2.18601 202.113 2.07811 202.059C1.80834 202.005 1.75439 201.951 1.75439 201.897Z" fill="#EF1B1B"/>
<path d="M11.6832 56.6595L11.5753 61.0296C11.5213 63.8351 9.57905 66.2629 6.88143 67.0182L3.48242 67.9354L7.63676 59.2492L11.6832 56.6595Z" fill="url(#paint8_linear_203_321)"/>
<path d="M6.71837 66.9647L-28.9444 76.4602C-31.5881 77.1616 -34.3936 76.1365 -35.9582 73.9245L-53.6547 49.2147C-55.2733 46.9488 -54.1942 43.7117 -51.5506 42.9024L-18.3157 32.5977C-13.2441 31.0331 -7.79491 33.1372 -5.09727 37.7231L8.93043 61.5696C10.1713 63.6737 9.09229 66.3713 6.71837 66.9647Z" fill="url(#paint9_linear_203_321)"/>
<path d="M-9.1428 24.6661L-7.14655 3.679C-6.98469 1.95256 -4.71868 1.52095 -3.85544 3.03158L9.47087 27.5795C11.3053 30.9784 12.2225 34.809 12.1145 38.6935L11.5211 61.0294C11.4671 62.3782 9.68668 62.8637 8.98529 61.6768L-6.93074 34.5932C-8.71118 31.5719 -9.46652 28.119 -9.1428 24.6661Z" fill="url(#paint10_linear_203_321)"/>
<path d="M2.4572 29.0365C2.24139 28.6589 2.02558 28.3891 1.86372 28.1733C1.64791 27.9575 1.48605 27.8496 1.32419 27.8496C1.16233 27.8496 1.05443 27.9036 0.946525 28.0654C0.838619 28.2273 0.784668 28.497 0.784668 28.8207C0.784668 29.1444 0.784664 29.5761 0.838617 30.0077C0.89257 30.4393 1.00048 30.9248 1.10838 31.4104C1.21629 31.896 1.37815 32.3815 1.54 32.8132C1.70186 33.2448 1.91768 33.6764 2.13349 34.054C2.3493 34.4317 2.56511 34.7015 2.72697 34.9173C2.88883 35.1331 3.10464 35.241 3.21254 35.241C3.3744 35.241 3.48231 35.187 3.59021 35.0252C3.69812 34.8633 3.75207 34.5936 3.75207 34.2698C3.75207 33.9461 3.75207 33.5145 3.69812 33.0829C3.64417 32.6513 3.53626 32.1657 3.42836 31.7341C3.32045 31.2486 3.15859 30.8169 2.99673 30.3853C2.88883 29.7919 2.67301 29.3602 2.4572 29.0365Z" fill="url(#paint11_linear_203_321)"/>
<path d="M-1.26667 14.901C-1.48248 14.5233 -1.6983 14.1996 -1.86016 13.9838C-2.07597 13.768 -2.23782 13.6601 -2.39968 13.6062C-2.56154 13.5522 -2.66945 13.6062 -2.77735 13.768C-2.88526 13.9299 -2.93921 14.1457 -2.99316 14.4694C-2.99316 14.7931 -2.99316 15.1708 -2.93921 15.6024C-2.88526 16.034 -2.77735 16.4656 -2.66945 16.9512C-2.56154 17.4367 -2.39968 17.8683 -2.23782 18.3539C-2.07597 18.7855 -1.86016 19.2171 -1.64434 19.6487C-1.42853 20.0264 -1.21272 20.3501 -1.05086 20.5119C-0.83505 20.7278 -0.673195 20.8357 -0.511337 20.8896C-0.349478 20.9436 -0.241569 20.8896 -0.133664 20.7278C-0.0257583 20.5659 0.028193 20.3501 0.028193 20.0264C0.028193 19.7027 0.0281918 19.325 -0.0257609 18.8934C-0.0797136 18.4618 -0.18762 18.0302 -0.295526 17.5446C-0.403431 17.0591 -0.565289 16.6275 -0.727148 16.1958C-0.889006 15.7103 -1.05086 15.2787 -1.26667 14.901Z" fill="url(#paint12_linear_203_321)"/>
<path d="M6.28655 43.2793C6.07074 42.9017 5.85493 42.6319 5.69307 42.4701C5.53122 42.3082 5.3154 42.2003 5.2075 42.2003C5.04564 42.2003 4.93774 42.2543 4.82983 42.4701C4.72193 42.6319 4.66797 42.9017 4.66797 43.2793C4.66797 43.657 4.66797 44.0347 4.72192 44.5202C4.77588 44.9518 4.88378 45.4374 4.99169 45.923C5.09959 46.4085 5.26145 46.8941 5.42331 47.3257C5.58517 47.7573 5.80098 48.1889 6.01679 48.5666C6.2326 48.9442 6.44841 49.214 6.61027 49.3758C6.77213 49.5377 6.98794 49.6456 7.09584 49.6456C7.2577 49.6456 7.36561 49.5377 7.47351 49.3758C7.58142 49.214 7.63537 48.9442 7.63537 48.5666C7.63537 48.1889 7.63537 47.8112 7.58142 47.3257C7.52746 46.8941 7.41956 46.4085 7.31165 45.923C7.20375 45.4374 7.04189 45.0058 6.88003 44.5202C6.66422 44.0886 6.44841 43.657 6.28655 43.2793Z" fill="url(#paint13_linear_203_321)"/>
<g opacity="0.5">
<path opacity="0.5" d="M-3.85705 3.03219C-4.66634 1.4676 -6.93235 1.95316 -7.09421 3.67961L-9.09046 24.6667C-9.30627 26.8787 -9.09045 29.0368 -8.44302 31.1409L9.36135 27.3643L-3.85705 3.03219Z" fill="url(#paint14_linear_203_321)"/>
</g>
<g opacity="0.5">
<path opacity="0.5" d="M7.31186 61.1917L-5.9605 38.64C-8.17256 34.8634 -12.3809 32.8672 -16.5892 33.4067L-18.2617 72.6294L5.2077 66.3711C7.47372 65.7237 8.49882 63.1879 7.31186 61.1917Z" fill="url(#paint15_linear_203_321)"/>
</g>
<path d="M94.5531 20.6744C94.8229 20.5125 95.0927 20.3506 95.4164 20.2967C95.6861 20.2427 96.0099 20.2427 96.2796 20.2967C96.5494 20.3506 96.8192 20.4585 97.0889 20.6204C97.3587 20.7823 97.5745 20.9981 97.7364 21.2678L143.003 93.8864C143.111 94.0483 143.165 94.2101 143.165 94.4259C143.165 94.5878 143.111 94.8036 143.057 94.9655C143.003 95.1273 142.841 95.3431 142.733 95.505C142.571 95.6668 142.409 95.8287 142.193 95.9366L95.7941 122.157C95.5782 122.265 95.3624 122.319 95.2006 122.373C94.9848 122.427 94.769 122.427 94.5531 122.427C94.3373 122.427 94.1215 122.373 93.9597 122.265C93.7978 122.211 93.636 122.103 93.4741 121.941L38.1186 62.163C37.9028 61.9472 37.7949 61.6774 37.687 61.4616C37.5791 61.1919 37.5791 60.9761 37.5791 60.7063C37.5791 60.4366 37.687 60.2208 37.7949 60.0049C37.9028 59.7891 38.1186 59.5733 38.3344 59.4115L94.5531 20.6744Z" fill="url(#paint16_linear_203_321)"/>
<path d="M49.827 64.7527L48.4782 61.4078L51.7693 63.404L49.827 64.7527ZM48.1545 58.5483L47.2373 59.1418L50.6363 67.8819L50.1508 68.2056L50.3126 68.3675L51.9312 67.2885L51.7693 67.1266L50.9601 67.6661L49.881 64.9686L51.9852 63.5658L54.6828 65.1844L53.9275 65.6699L54.0893 65.8318L57.5962 63.4579L57.4344 63.2421L56.9488 63.5658L48.1545 58.5483Z" fill="black"/>
<path d="M55.4384 67.8822C55.1686 68.0441 54.9528 68.3138 54.7909 68.5296C54.6291 68.7994 54.5212 69.0691 54.5212 69.3389C54.4672 69.6087 54.5212 69.9324 54.6291 70.2021C54.737 70.4719 54.8988 70.7416 55.1146 71.0114C55.2226 71.1193 55.2765 71.1733 55.3844 71.2812C55.4923 71.3351 55.6002 71.443 55.6542 71.497C55.7621 71.5509 55.87 71.6049 55.9779 71.6588C56.0858 71.7128 56.1937 71.7667 56.3016 71.7667C56.3016 71.7667 56.2476 71.7667 56.2476 71.8207C56.2476 71.8207 56.1937 71.8207 56.1937 71.8746C56.1937 71.8746 56.1397 71.8746 56.1397 71.9286C56.1397 71.9286 56.0858 71.9286 56.0858 71.9825C55.816 72.1444 55.6002 72.4141 55.4384 72.6299C55.2765 72.8997 55.1686 73.1695 55.1686 73.4392C55.1146 73.709 55.1686 74.0327 55.2765 74.3024C55.3844 74.5722 55.5463 74.842 55.7621 75.1117C55.9779 75.3815 56.2477 75.5433 56.5174 75.7052C56.7872 75.867 57.1109 75.921 57.4346 75.9749C57.7583 76.0289 58.082 76.0289 58.4058 75.921C58.7295 75.867 59.0532 75.7591 59.323 75.5433C59.4848 75.4354 59.6467 75.3275 59.7546 75.1657C59.8625 75.0038 59.9704 74.8959 60.0783 74.7341C60.1322 74.5722 60.2401 74.4103 60.2401 74.2485C60.2941 74.0866 60.2941 73.9248 60.2941 73.709C60.456 74.0866 60.5639 74.4103 60.6178 74.7341C60.6718 75.0578 60.7257 75.3275 60.7797 75.5433C60.7797 75.7591 60.7797 75.9749 60.7797 76.0828C60.7797 76.1907 60.7797 76.2986 60.7797 76.2986L63.5852 74.4643C63.5852 74.4643 63.4773 74.4643 63.3694 74.4103C63.2075 74.3564 62.9917 74.3024 62.7759 74.2485C62.5062 74.1945 62.2364 74.0327 61.9127 73.9248C61.589 73.7629 61.2113 73.6011 60.8876 73.3853C61.1034 73.4392 61.2652 73.4932 61.4811 73.4932C61.6969 73.4932 61.8587 73.4932 62.0745 73.4932C62.2903 73.4932 62.4522 73.4392 62.668 73.3313C62.8838 73.2234 63.0457 73.1695 63.2075 73.0616C63.4773 72.8997 63.6931 72.6839 63.855 72.4141C64.0168 72.1444 64.1247 71.8746 64.1787 71.6049C64.2326 71.3351 64.1787 71.0114 64.1247 70.7416C64.0168 70.4719 63.9089 70.2021 63.6931 69.9324C63.4773 69.6626 63.2075 69.5008 62.9378 69.3389C62.668 69.1771 62.3443 69.0692 62.0206 69.0692C61.6969 69.0152 61.3732 69.0152 61.0494 69.1231C60.7257 69.1771 60.402 69.3389 60.1322 69.5008L60.0783 69.5547L60.0243 69.6087L59.9704 69.6626L59.9164 69.7166C59.9164 69.6087 59.8625 69.5008 59.8625 69.3929C59.8085 69.285 59.8085 69.1771 59.7546 69.0692C59.7006 68.9613 59.6467 68.8533 59.5927 68.7454C59.5388 68.6375 59.4848 68.5296 59.3769 68.4757C59.1611 68.2059 58.8913 67.9901 58.5676 67.8822C58.2978 67.7204 57.9741 67.6125 57.5965 67.5585C57.2727 67.5046 56.949 67.5046 56.6253 67.6125C56.0318 67.6125 55.7081 67.7204 55.4384 67.8822Z" fill="black"/>
<path d="M134.695 94.6422L132.483 93.1316L134.317 92.0525L134.695 94.6422ZM134.749 89.1392L133.184 90.0563L133.292 90.2182L134.047 89.7866L134.371 91.9446L132.321 93.0237L130.486 91.7828L131.188 91.3512L131.08 91.1893L127.735 93.1316L127.843 93.2934L128.328 93.0237L134.371 96.8002L135.18 96.3147L134.317 89.5168L134.803 89.2471L134.749 89.1392Z" fill="black"/>
<path d="M127.519 82.3949L124.713 84.0674C124.713 84.0674 124.767 84.0674 124.929 84.1213C125.037 84.1753 125.199 84.1753 125.414 84.2832C125.63 84.3371 125.846 84.445 126.116 84.5529C126.386 84.6608 126.655 84.8227 126.925 85.0385C126.763 84.9845 126.601 84.9845 126.44 84.9306C126.278 84.9306 126.116 84.9306 125.9 84.9306C125.738 84.9306 125.522 84.9845 125.361 85.0385C125.199 85.0924 124.983 85.2003 124.821 85.2543C124.551 85.4162 124.335 85.632 124.12 85.8478C123.958 86.0636 123.796 86.3333 123.688 86.5491C123.58 86.8189 123.58 87.0347 123.58 87.3044C123.58 87.5742 123.688 87.79 123.85 88.0058C124.012 88.2216 124.174 88.3835 124.389 88.4914C124.605 88.5993 124.875 88.7072 125.145 88.7072C125.414 88.7611 125.684 88.7072 126.008 88.6532C126.278 88.5993 126.601 88.4914 126.871 88.3295C126.871 88.3295 126.925 88.3295 126.925 88.2756C126.925 88.2756 126.979 88.2756 126.979 88.2216C126.979 88.2216 127.033 88.2216 127.033 88.1677C127.033 88.1677 127.087 88.1677 127.087 88.1137C127.087 88.2216 127.087 88.2756 127.087 88.3835C127.087 88.4914 127.087 88.5453 127.141 88.6532C127.141 88.7611 127.195 88.8151 127.249 88.923C127.303 89.0309 127.303 89.0848 127.357 89.1388C127.519 89.3546 127.68 89.5164 127.896 89.6244C128.112 89.7323 128.382 89.8401 128.652 89.8401C128.921 89.8941 129.191 89.8402 129.515 89.7862C129.785 89.7323 130.108 89.6243 130.378 89.4625C130.648 89.3006 130.864 89.1388 131.079 88.923C131.241 88.7072 131.403 88.4914 131.511 88.2216C131.619 88.0058 131.619 87.7361 131.619 87.4663C131.619 87.2505 131.511 86.9807 131.403 86.7649C131.349 86.711 131.295 86.6031 131.241 86.5491C131.187 86.4952 131.133 86.4412 131.026 86.3873C130.972 86.3333 130.864 86.2794 130.81 86.2254C130.702 86.1715 130.648 86.1715 130.54 86.1175C130.54 86.1175 130.594 86.1175 130.594 86.0636C130.594 86.0636 130.648 86.0636 130.648 86.0096C130.648 86.0096 130.702 86.0096 130.702 85.9557C130.702 85.9017 130.756 85.9557 130.756 85.9017C131.026 85.7399 131.241 85.5241 131.457 85.3083C131.619 85.0924 131.781 84.8766 131.889 84.6069C131.997 84.3371 131.997 84.1213 131.997 83.8516C131.997 83.5818 131.889 83.366 131.781 83.1502C131.619 82.9344 131.457 82.7725 131.241 82.6107C131.026 82.5028 130.756 82.3949 130.486 82.3409C130.216 82.287 129.893 82.3409 129.623 82.3949C129.353 82.4488 129.029 82.5567 128.76 82.7186C128.598 82.8265 128.436 82.9344 128.274 83.0423C128.112 83.1502 128.004 83.3121 127.896 83.42C127.788 83.5818 127.734 83.6897 127.627 83.8516C127.573 84.0134 127.519 84.1753 127.519 84.3371C127.465 84.0134 127.411 83.6897 127.411 83.42C127.411 83.1502 127.411 82.8804 127.465 82.6646C127.465 82.4488 127.519 82.287 127.573 82.1791C127.519 82.4488 127.519 82.3949 127.519 82.3949Z" fill="black"/>
<path d="M88.5121 70.6875C87.7568 71.1731 87.1633 71.7665 86.6778 72.36C86.2461 73.0074 85.9224 73.7088 85.7606 74.4102C85.5987 75.1115 85.5987 75.8669 85.7606 76.5682C85.9224 77.2696 86.2461 77.971 86.7317 78.5644C86.8936 78.7802 87.1094 78.996 87.3252 79.2118C87.541 79.4277 87.7568 79.5895 87.9726 79.7514C88.1884 79.9132 88.4582 80.0211 88.7279 80.183C88.9977 80.2909 89.2675 80.3988 89.5372 80.5067C89.4833 80.5067 89.4293 80.5606 89.3754 80.6146C89.3214 80.6685 89.2675 80.6685 89.2135 80.7225C89.1596 80.7764 89.1056 80.7764 89.0517 80.8304C88.9977 80.8843 88.9438 80.8843 88.8898 80.9383C88.1884 81.3699 87.5949 81.9094 87.1094 82.5568C86.6778 83.1503 86.354 83.7977 86.1922 84.4991C86.0303 85.2005 86.0303 85.8479 86.1922 86.5492C86.354 87.1967 86.6778 87.8441 87.1094 88.4376C87.5949 89.031 88.1884 89.4626 88.8359 89.7863C89.4833 90.11 90.2386 90.3258 90.994 90.4338C91.7493 90.5417 92.5586 90.4877 93.3139 90.3258C94.0693 90.164 94.8786 89.8942 95.5799 89.4626C96.0116 89.1929 96.3892 88.9231 96.7669 88.5454C97.0906 88.2217 97.4143 87.8441 97.6301 87.4664C97.846 87.0888 98.0618 86.7111 98.1697 86.2795C98.2776 85.8479 98.3855 85.4702 98.3855 85.0386C98.6553 85.9018 98.8171 86.7111 98.925 87.4125C99.0329 88.1138 99.0329 88.7613 99.0329 89.3008C99.0329 89.8403 98.979 90.2719 98.925 90.5956C98.8711 90.9193 98.8171 91.0812 98.8171 91.0812L105.993 86.7651C105.993 86.7651 105.777 86.7651 105.453 86.6572C105.13 86.6032 104.644 86.4413 104.051 86.2795C103.457 86.1176 102.81 85.8479 102.054 85.5242C101.299 85.2005 100.544 84.7688 99.7343 84.2293C100.166 84.3372 100.652 84.4451 101.137 84.4991C101.623 84.553 102.108 84.4991 102.594 84.4451C103.079 84.3912 103.565 84.2833 104.051 84.1214C104.536 83.9596 104.968 83.7438 105.453 83.474C106.155 83.0424 106.802 82.5029 107.234 81.9094C107.719 81.316 108.043 80.6685 108.259 79.9672C108.475 79.2658 108.529 78.5644 108.421 77.8631C108.313 77.1617 108.043 76.5143 107.611 75.8669C107.18 75.2734 106.586 74.7339 105.939 74.3562C105.291 73.9786 104.536 73.7627 103.727 73.6548C102.918 73.5469 102.108 73.5469 101.299 73.7627C100.49 73.9246 99.6803 74.2483 98.925 74.6799C98.8711 74.7339 98.8171 74.7339 98.7632 74.7878C98.7092 74.8418 98.6553 74.8418 98.6013 74.8957C98.5473 74.9497 98.4934 74.9497 98.4394 75.0036C98.3855 75.0576 98.3315 75.0576 98.2776 75.1115C98.2776 74.8418 98.2776 74.572 98.2236 74.3023C98.1697 74.0325 98.1157 73.7628 98.0618 73.5469C98.0078 73.2772 97.8999 73.0614 97.7381 72.7916C97.6301 72.5219 97.4683 72.3061 97.3064 72.0903C96.8209 71.4428 96.2274 70.9573 95.526 70.5257C94.8246 70.148 94.0693 69.8782 93.26 69.7703C92.4507 69.6624 91.5874 69.6624 90.7782 69.8782C90.0768 69.9322 89.2675 70.202 88.5121 70.6875Z" fill="black"/>
<defs>
<linearGradient id="paint0_linear_203_321" x1="272.182" y1="-6.51446" x2="239.42" y2="44.198" gradientUnits="userSpaceOnUse">
<stop stop-color="#AC100E"/>
<stop offset="1" stop-color="#310000"/>
</linearGradient>
<linearGradient id="paint1_linear_203_321" x1="261.175" y1="-13.8842" x2="267.935" y2="44.271" gradientUnits="userSpaceOnUse">
<stop stop-color="#EC240E"/>
<stop offset="1" stop-color="#510000"/>
</linearGradient>
<linearGradient id="paint2_linear_203_321" x1="270.5" y1="-11.1195" x2="257.122" y2="40.2154" gradientUnits="userSpaceOnUse">
<stop stop-color="white"/>
<stop offset="0.3282" stop-color="#FBFBFB"/>
<stop offset="0.6789" stop-color="#EEEEEE"/>
<stop offset="1" stop-color="#DBDBDB"/>
</linearGradient>
<linearGradient id="paint3_linear_203_321" x1="265.09" y1="-14.5433" x2="246.064" y2="34.2061" gradientUnits="userSpaceOnUse">
<stop stop-color="#D1D1D1"/>
<stop offset="0.5952" stop-color="#9E9E9E"/>
<stop offset="1" stop-color="#808080"/>
</linearGradient>
<linearGradient id="paint4_linear_203_321" x1="264.618" y1="-15.6618" x2="257.793" y2="31.1971" gradientUnits="userSpaceOnUse">
<stop stop-color="#7D7D7D"/>
<stop offset="0.1529" stop-color="#717171"/>
<stop offset="0.4269" stop-color="#525252"/>
<stop offset="0.7877" stop-color="#212121"/>
<stop offset="1"/>
</linearGradient>
<linearGradient id="paint5_linear_203_321" x1="251.413" y1="21.6318" x2="247.761" y2="4.76636" gradientUnits="userSpaceOnUse">
<stop stop-color="#7D7D7D"/>
<stop offset="0.1529" stop-color="#717171"/>
<stop offset="0.4269" stop-color="#525252"/>
<stop offset="0.7877" stop-color="#212121"/>
<stop offset="1"/>
</linearGradient>
<linearGradient id="paint6_linear_203_321" x1="417.577" y1="19.0549" x2="288.688" y2="131.961" gradientUnits="userSpaceOnUse">
<stop offset="0.0303" stop-color="#EDEDED"/>
<stop offset="0.5417" stop-color="#C7C7C7"/>
<stop offset="1" stop-color="#A8A8A8"/>
</linearGradient>
<linearGradient id="paint7_linear_203_321" x1="-9.52399" y1="238.268" x2="-16.927" y2="154.244" gradientUnits="userSpaceOnUse">
<stop stop-color="white"/>
<stop offset="0.3282" stop-color="#FBFBFB"/>
<stop offset="0.6789" stop-color="#EEEEEE"/>
<stop offset="1" stop-color="#DBDBDB"/>
</linearGradient>
<linearGradient id="paint8_linear_203_321" x1="10.1098" y1="59.7831" x2="7.80061" y2="64.0366" gradientUnits="userSpaceOnUse">
<stop stop-color="#EC240E"/>
<stop offset="1" stop-color="#510000"/>
</linearGradient>
<linearGradient id="paint9_linear_203_321" x1="22.8329" y1="0.0250321" x2="-21.2565" y2="53.6126" gradientUnits="userSpaceOnUse">
<stop stop-color="#EC240E"/>
<stop offset="1" stop-color="#510000"/>
</linearGradient>
<linearGradient id="paint10_linear_203_321" x1="-14.5449" y1="12.7935" x2="41.5447" y2="76.7014" gradientUnits="userSpaceOnUse">
<stop stop-color="#EC240E"/>
<stop offset="1" stop-color="#510000"/>
</linearGradient>
<linearGradient id="paint11_linear_203_321" x1="-5.47239" y1="13.0583" x2="23.3856" y2="81.3086" gradientUnits="userSpaceOnUse">
<stop stop-color="#F0F0F0"/>
<stop offset="0.0394" stop-color="#EBEBEB"/>
<stop offset="0.6972" stop-color="#9E9E9E"/>
<stop offset="1" stop-color="#808080"/>
</linearGradient>
<linearGradient id="paint12_linear_203_321" x1="-3.56653" y1="12.2527" x2="25.291" y2="80.5014" gradientUnits="userSpaceOnUse">
<stop stop-color="#F0F0F0"/>
<stop offset="0.0394" stop-color="#EBEBEB"/>
<stop offset="0.6972" stop-color="#9E9E9E"/>
<stop offset="1" stop-color="#808080"/>
</linearGradient>
<linearGradient id="paint13_linear_203_321" x1="-7.39931" y1="13.8724" x2="21.4588" y2="82.1208" gradientUnits="userSpaceOnUse">
<stop stop-color="#F0F0F0"/>
<stop offset="0.0394" stop-color="#EBEBEB"/>
<stop offset="0.6972" stop-color="#9E9E9E"/>
<stop offset="1" stop-color="#808080"/>
</linearGradient>
<linearGradient id="paint14_linear_203_321" x1="-23.0814" y1="32.9989" x2="8.78968" y2="9.48" gradientUnits="userSpaceOnUse">
<stop stop-color="#FFFFCB"/>
<stop offset="0.1479" stop-color="#C6C69D"/>
<stop offset="0.319" stop-color="#8A8A6E"/>
<stop offset="0.4843" stop-color="#595947"/>
<stop offset="0.6392" stop-color="#323228"/>
<stop offset="0.7812" stop-color="#171712"/>
<stop offset="0.9059" stop-color="#060605"/>
<stop offset="1"/>
</linearGradient>
<linearGradient id="paint15_linear_203_321" x1="15.2815" y1="37.3117" x2="-15.3697" y2="55.7682" gradientUnits="userSpaceOnUse">
<stop stop-color="#C7C7C7"/>
<stop offset="0.00475806" stop-color="#C5C5C5"/>
<stop offset="0.2049" stop-color="#8A8A8A"/>
<stop offset="0.3978" stop-color="#595959"/>
<stop offset="0.5786" stop-color="#323232"/>
<stop offset="0.7445" stop-color="#171717"/>
<stop offset="0.8901" stop-color="#060606"/>
<stop offset="1"/>
</linearGradient>
<linearGradient id="paint16_linear_203_321" x1="88.7861" y1="26.8631" x2="92.3258" y2="140.135" gradientUnits="userSpaceOnUse">
<stop offset="0.0303" stop-color="#EDEDED"/>
<stop offset="0.5417" stop-color="#C7C7C7"/>
<stop offset="1" stop-color="#A8A8A8"/>
</linearGradient>
</defs>
</svg>
