<svg width="1919" height="901" viewBox="0 0 1919 901" fill="none" xmlns="http://www.w3.org/2000/svg">
<g opacity="0.1">
<g clip-path="url(#clip0_90_655)">
<path d="M-5.63214 597.801C-5.3079 597.963 -4.82156 598.125 -4.49731 598.45C-4.17308 598.774 -3.84885 599.098 -3.52461 599.585C-3.20037 600.071 -2.87614 600.395 -2.71401 600.882C-2.5519 601.368 -2.38978 601.855 -2.22765 602.341C11.7145 664.278 44.4624 721.35 96.3402 758.966C96.8265 759.291 97.3129 759.777 97.6371 760.101C97.7992 760.425 97.9614 760.912 97.9614 761.236C97.9614 761.56 97.9613 762.047 97.7992 762.371C97.6371 762.695 97.3129 763.02 96.9886 763.344C58.8909 787.665 22.2522 814.255 -12.9275 842.629C-13.4138 843.116 -14.0623 843.44 -14.8729 843.44C-15.6835 843.602 -16.4941 843.44 -17.3046 843.116C-18.1152 842.792 -19.088 842.467 -19.8985 841.819C-20.7091 841.17 -21.5197 840.522 -22.1682 839.549C-83.7731 756.858 -110.685 653.901 -103.065 551.592C-103.065 550.943 -102.903 550.295 -102.579 549.808C-102.417 549.322 -102.092 548.998 -101.768 548.673C-101.444 548.349 -100.958 548.349 -100.633 548.349C-100.147 548.349 -99.8228 548.511 -99.3364 548.836C-69.1825 567.319 -37.8937 583.695 -5.63214 597.801Z" fill="url(#paint0_linear_90_655)"/>
<path d="M75.1005 758.803C72.5066 757.344 69.9127 755.885 67.4809 754.425C68.94 753.777 69.7506 753.29 71.2097 752.642C72.6687 755.074 73.4793 756.371 75.1005 758.803ZM68.7779 745.994C67.4809 746.481 66.9946 746.805 65.6976 747.291C65.8598 747.453 65.8597 747.453 66.0219 747.616C66.6703 747.291 66.9946 747.291 67.4809 746.967C68.7779 749.075 69.2642 750.048 70.5612 751.993C68.94 752.804 68.1294 753.128 66.5082 753.939C64.0765 752.48 62.7795 751.669 60.3477 750.048C60.9962 749.723 61.1583 749.723 61.8068 749.399C61.6447 749.237 61.6447 749.237 61.4826 749.075C58.7265 750.21 57.4296 750.858 54.6736 752.155C54.8357 752.318 54.9978 752.48 55.1599 752.642C55.4842 752.48 55.8084 752.318 56.1327 752.155C62.9416 756.371 69.7506 760.424 76.8838 763.991C77.5323 763.667 77.8565 763.505 78.505 763.019C74.9384 757.668 71.3718 752.318 68.1294 746.643C68.4536 746.481 68.6158 746.318 69.1021 746.156C68.94 746.156 68.94 746.156 68.7779 745.994Z" fill="#EF1B1B"/>
<path d="M44.4614 729.295C44.6236 729.458 44.6236 729.62 44.7857 729.782C44.7857 729.944 44.9478 730.268 44.9478 730.43C44.9478 730.593 44.9478 730.917 45.1099 731.079C45.1099 731.241 45.1099 731.565 45.1099 731.728C45.1099 732.376 44.9478 733.025 44.7857 733.673C44.6236 734.322 44.4614 734.97 44.4614 735.619C44.2993 736.267 44.2993 736.916 44.1372 737.564C44.1372 738.213 44.1372 739.024 44.2993 739.834C44.4614 740.321 44.4614 740.807 44.7857 741.294C44.9478 741.78 45.272 742.266 45.5963 742.753C45.9205 743.239 46.2447 743.726 46.7311 744.212C47.2175 744.699 47.5417 745.185 48.1902 745.509C48.8386 745.996 49.325 746.32 49.9735 746.644C50.6219 746.968 51.1083 747.131 51.5947 747.293C52.081 747.455 52.5674 747.455 53.0537 747.455C53.5401 747.455 53.8643 747.293 54.1886 747.131C54.6749 746.968 55.1613 746.644 55.3234 746.158C55.6476 745.833 55.8097 745.347 55.9718 744.699C56.134 744.212 55.9718 743.564 55.9718 742.915C55.8097 742.266 55.4855 741.618 55.1613 740.969C55.8097 741.456 56.6203 741.942 57.4309 742.266C58.2415 742.591 58.89 742.915 59.7006 743.077C60.5112 743.239 61.1596 743.401 61.8081 743.401C62.4566 743.401 63.1051 743.239 63.5914 743.077C63.9157 742.915 64.2399 742.753 64.402 742.591C64.5641 742.429 64.7262 742.104 64.8884 741.78C64.8884 741.456 64.8884 741.131 64.8884 740.645C64.7262 740.159 64.5641 739.672 64.2399 739.186C63.9157 738.699 63.5914 738.375 63.2672 737.889C62.9429 737.402 62.4566 737.078 61.9702 736.754C61.4839 736.429 60.9975 736.105 60.5112 735.781C60.0248 735.457 59.5385 735.132 58.89 734.97C57.9173 734.484 57.1067 734.16 56.134 733.835C55.1613 733.511 54.3507 733.187 53.378 732.862C52.4052 732.538 51.5947 732.376 50.6219 732.052C49.6492 731.728 48.8386 731.403 47.8659 731.079C47.7038 730.917 47.3796 730.917 47.0553 730.755C46.7311 730.593 46.4069 730.43 46.2447 730.268C45.9205 730.106 45.7584 729.944 45.4342 729.782C44.6236 729.62 44.4614 729.458 44.4614 729.295Z" fill="#EF1B1B"/>
<path d="M-27.1931 224.236L13.3364 179.81L34.5739 254.069L-27.1931 224.236Z" fill="url(#paint1_linear_90_655)"/>
<path d="M74.2964 292.82L73.9722 305.953C73.8101 314.384 67.9738 321.68 59.868 323.95L49.6545 326.707L62.1376 300.602L74.2964 292.82Z" fill="url(#paint2_linear_90_655)"/>
<path d="M-0.120605 123.224L2.95965 122.251C12.5246 119.009 22.9002 123.062 27.7637 131.818L30.0334 135.871L17.3881 137.492L-0.120605 123.224Z" fill="url(#paint3_linear_90_655)"/>
<path d="M59.3792 323.789L-47.7809 352.326C-55.7247 354.433 -64.1549 351.353 -68.8563 344.705L-122.031 270.446C-126.895 263.636 -123.652 253.908 -115.708 251.476L-15.8436 220.507C-0.604537 215.805 15.7694 222.129 23.8753 235.911L66.026 307.576C69.7548 313.899 66.5124 322.006 59.3792 323.789Z" fill="url(#paint4_linear_90_655)"/>
<path d="M-127.06 235.586L-111.983 171.217C-110.362 164.57 -105.66 159.219 -99.1756 157.111L1.98612 122.414C10.092 119.658 18.3601 126.143 17.5495 134.736L12.5238 186.621C11.0647 202.186 0.202825 215.481 -14.712 220.183L-111.497 250.179C-120.413 253.097 -129.167 244.99 -127.06 235.586Z" fill="url(#paint5_linear_90_655)"/>
<path d="M11.7192 196.672L17.7175 133.6C18.2039 128.412 25.0128 127.115 27.6067 131.654L67.6499 205.427C73.1619 215.642 75.9179 227.154 75.5937 238.828L73.8104 305.953C73.6483 310.006 68.2984 311.465 66.1908 307.898L18.366 226.505C13.0161 217.425 10.7465 207.049 11.7192 196.672Z" fill="url(#paint6_linear_90_655)"/>
<path d="M5.87804 255.852C6.52652 256.987 7.01288 258.122 7.01288 259.419C7.01288 260.554 6.85076 261.689 6.20229 262.662C5.71593 263.635 4.90533 264.608 3.77051 265.418C2.7978 266.229 1.50086 266.878 -0.120326 267.364C-1.57939 267.851 -3.20057 268.013 -4.82175 268.013C-6.44293 268.013 -7.90199 267.688 -9.36106 267.202C-10.8201 266.716 -12.1171 266.067 -13.2519 265.256C-14.3867 264.446 -15.3594 263.473 -16.17 262.338C-16.8185 261.203 -17.3049 260.068 -17.3049 258.933C-17.3049 257.798 -17.1427 256.663 -16.6564 255.528C-16.17 254.555 -15.3594 253.582 -14.3867 252.772C-13.414 251.961 -12.1171 251.312 -10.4959 250.826C-9.03682 250.34 -7.41564 250.177 -5.79446 250.177C-4.17328 250.177 -2.71421 250.502 -1.25515 250.988C0.203915 251.475 1.50086 252.123 2.79781 252.934C4.25687 253.582 5.22957 254.717 5.87804 255.852ZM-29.6258 266.229C-30.2743 265.094 -31.4091 264.121 -32.544 263.311C-33.6788 262.5 -35.1378 261.851 -36.5969 261.365C-38.056 260.879 -39.6772 260.716 -41.1362 260.554C-42.7574 260.554 -44.2165 260.716 -45.6755 261.203C-47.1346 261.689 -48.4315 262.338 -49.4042 263.149C-50.377 263.959 -51.1875 264.932 -51.6739 265.905C-52.1603 266.878 -52.3224 268.013 -52.1603 269.148C-51.9981 270.283 -51.6739 271.418 -50.8633 272.553C-50.0527 273.687 -49.08 274.66 -47.9452 275.471C-46.8104 276.282 -45.3513 276.93 -44.0543 277.417C-42.5953 277.903 -41.1362 278.065 -39.515 278.227C-38.056 278.227 -36.4348 278.065 -34.9757 277.579C-33.5167 277.092 -32.2197 276.444 -31.247 275.795C-30.2743 274.985 -29.4637 274.012 -28.9774 273.039C-28.491 272.066 -28.3289 270.931 -28.3289 269.796C-28.491 268.661 -28.8152 267.364 -29.6258 266.229ZM-64.157 276.606C-64.9676 275.471 -65.9403 274.498 -67.0751 273.687C-68.21 272.877 -69.669 272.228 -71.1281 271.742C-72.5871 271.255 -74.0462 271.093 -75.6674 270.931C-77.1265 270.931 -78.7476 271.093 -80.2067 271.58C-81.6658 272.066 -82.8006 272.715 -83.7733 273.363C-84.746 274.174 -85.3945 274.985 -85.8808 276.12C-86.3672 277.092 -86.5293 278.227 -86.3672 279.362C-86.2051 280.497 -85.7187 281.632 -85.0702 282.767C-84.2596 283.902 -83.2869 284.875 -82.1521 285.524C-81.0173 286.334 -79.5582 286.983 -78.2613 287.307C-76.8022 287.793 -75.3431 287.956 -73.8841 287.956C-72.425 287.956 -70.8038 287.793 -69.5069 287.469C-68.0478 286.983 -66.913 286.496 -65.9403 285.686C-64.9676 284.875 -64.3191 284.064 -63.8328 283.091C-63.3464 282.119 -63.1843 280.984 -63.3464 279.849C-63.0222 278.714 -63.5085 277.579 -64.157 276.606ZM29.8715 295.252C29.2231 294.117 28.2504 293.144 27.1155 292.495C25.9807 291.685 24.6838 291.036 23.2247 290.712C21.7656 290.226 20.3066 290.063 18.6854 290.063C17.2263 290.063 15.6051 290.226 14.1461 290.55C12.687 291.036 11.3901 291.523 10.4174 292.333C9.44465 293.144 8.63406 293.955 8.1477 294.928C7.66135 295.9 7.33711 297.035 7.49923 298.008C7.49923 299.143 7.82346 300.116 8.63405 301.251C9.28253 302.386 10.2552 303.197 11.3901 304.007C12.5249 304.818 13.8218 305.467 15.2809 305.791C16.74 306.277 18.199 306.439 19.6581 306.439C21.1172 306.439 22.7383 306.277 24.1974 305.953C25.6565 305.467 26.9534 304.98 27.9261 304.169C28.8988 303.359 29.7094 302.548 30.3579 301.575C30.8442 300.602 31.1685 299.467 31.1685 298.495C30.8442 297.36 30.52 296.225 29.8715 295.252ZM-4.82175 304.818C-5.47023 303.683 -6.44294 302.872 -7.57776 302.062C-8.71259 301.251 -10.0095 300.602 -11.4686 300.278C-12.9277 299.792 -14.3867 299.63 -15.8458 299.63C-17.3048 299.63 -18.926 299.792 -20.3851 300.116C-21.8442 300.602 -23.1411 301.089 -24.1138 301.899C-25.0865 302.71 -25.8971 303.521 -26.3835 304.494C-26.8698 305.467 -26.8698 306.439 -26.8698 307.574C-26.8698 308.709 -26.3835 309.682 -25.735 310.817C-25.0865 311.79 -24.1138 312.763 -22.979 313.573C-21.8442 314.384 -20.5472 314.871 -19.2503 315.357C-17.7912 315.843 -16.3321 316.005 -14.8731 316.005C-13.414 316.005 -11.955 315.843 -10.4959 315.519C-9.03682 315.195 -7.902 314.546 -6.76717 313.736C-5.79446 312.925 -4.98387 312.114 -4.49752 311.141C-4.01116 310.169 -3.68693 309.196 -3.84904 308.061C-3.68693 307.088 -4.17328 305.953 -4.82175 304.818ZM-38.7044 314.384C-39.3529 313.411 -40.3256 312.438 -41.4605 311.628C-42.5953 310.817 -43.8922 310.331 -45.3513 309.844C-46.8104 309.358 -48.2694 309.196 -49.7285 309.196C-51.1875 309.196 -52.6466 309.358 -54.1057 309.682C-55.5647 310.006 -56.6996 310.655 -57.6723 311.466C-58.645 312.114 -59.2935 313.087 -59.7798 314.06C-60.2662 315.033 -60.4283 316.005 -60.2662 316.978C-60.104 317.951 -59.7798 319.086 -58.9692 320.059C-58.3207 321.032 -57.348 322.005 -56.2132 322.653C-55.0784 323.464 -53.7814 323.95 -52.4845 324.437C-51.0254 324.923 -49.5664 325.085 -48.1073 325.085C-46.6482 325.085 -45.1892 324.923 -43.7301 324.599C-42.271 324.275 -41.1362 323.626 -40.1635 322.977C-39.1908 322.329 -38.5423 321.356 -38.056 320.545C-37.5696 319.573 -37.4075 318.6 -37.4075 317.627C-37.5696 316.492 -37.8938 315.357 -38.7044 314.384Z" fill="url(#paint7_linear_90_655)"/>
<path d="M46.5742 209.806C45.9258 208.671 45.2773 207.86 44.791 207.212C44.1425 206.563 43.6561 206.239 43.1698 206.239C42.6834 206.239 42.3592 206.401 42.0349 206.887C41.7107 207.374 41.5486 208.184 41.5486 209.157C41.5486 210.13 41.5486 211.427 41.7107 212.724C41.8728 214.021 42.197 215.481 42.5213 216.94C42.8455 218.399 43.3319 219.858 43.8182 221.155C44.3046 222.453 44.9531 223.75 45.6015 224.885C46.25 226.02 46.8985 226.83 47.3848 227.479C47.8712 228.127 48.5197 228.452 48.8439 228.452C49.3303 228.452 49.6545 228.29 49.9787 227.803C50.303 227.317 50.4651 226.506 50.4651 225.533C50.4651 224.56 50.4651 223.263 50.303 221.966C50.1409 220.669 49.8166 219.21 49.4924 217.913C49.1681 216.453 48.6818 215.156 48.1954 213.859C47.8712 212.076 47.2227 210.779 46.5742 209.806Z" fill="url(#paint8_linear_90_655)"/>
<path d="M35.3851 167.325C34.7366 166.19 34.0881 165.217 33.6017 164.569C32.9533 163.92 32.4669 163.596 31.9806 163.434C31.4942 163.271 31.17 163.434 30.8457 163.92C30.5215 164.406 30.3594 165.055 30.1973 166.028C30.1973 167.001 30.1973 168.136 30.3594 169.433C30.5215 170.73 30.8457 172.027 31.17 173.486C31.4942 174.945 31.9806 176.242 32.4669 177.702C32.9533 178.999 33.6017 180.296 34.2502 181.593C34.8987 182.728 35.5472 183.701 36.0335 184.187C36.682 184.836 37.1684 185.16 37.6547 185.322C38.1411 185.484 38.4653 185.322 38.7895 184.836C39.1138 184.349 39.2759 183.701 39.2759 182.728C39.2759 181.755 39.2759 180.62 39.1138 179.323C38.9517 178.026 38.6274 176.729 38.3032 175.27C37.9789 173.81 37.4926 172.513 37.0062 171.216C36.5199 169.757 36.0335 168.46 35.3851 167.325Z" fill="url(#paint9_linear_90_655)"/>
<path d="M58.0804 252.609C57.4319 251.474 56.7834 250.663 56.2971 250.177C55.8107 249.69 55.1622 249.366 54.838 249.366C54.3516 249.366 54.0274 249.528 53.7032 250.177C53.3789 250.663 53.2168 251.474 53.2168 252.609C53.2168 253.744 53.2168 254.879 53.3789 256.338C53.541 257.635 53.8653 259.094 54.1895 260.553C54.5138 262.013 55.0001 263.472 55.4865 264.769C55.9728 266.066 56.6213 267.363 57.2698 268.498C57.9182 269.633 58.5667 270.444 59.0531 270.93C59.5394 271.417 60.1879 271.741 60.5121 271.741C60.9985 271.741 61.3227 271.417 61.647 270.93C61.9712 270.444 62.1333 269.633 62.1333 268.498C62.1333 267.363 62.1333 266.228 61.9712 264.769C61.8091 263.472 61.4848 262.013 61.1606 260.553C60.8364 259.094 60.35 257.797 59.8637 256.338C59.2152 255.041 58.5667 253.744 58.0804 252.609Z" fill="url(#paint10_linear_90_655)"/>
<g opacity="0.5">
<path opacity="0.5" d="M27.6032 131.656C25.1714 126.954 18.3624 128.413 17.8761 133.602L11.8777 196.673C11.2292 203.321 11.8777 209.806 13.8231 216.13L67.3221 204.78L27.6032 131.656Z" fill="url(#paint11_linear_90_655)"/>
</g>
<g opacity="0.5">
<path opacity="0.5" d="M61.1606 306.441L21.2796 238.667C14.6328 227.317 1.98753 221.318 -10.6577 222.94L-15.6833 340.814L54.8381 322.006C61.647 320.06 64.7272 312.44 61.1606 306.441Z" fill="url(#paint12_linear_90_655)"/>
</g>
<path d="M323.307 184.675C324.118 184.188 324.928 183.702 325.901 183.54C326.712 183.378 327.684 183.378 328.495 183.54C329.305 183.702 330.116 184.026 330.927 184.513C331.737 184.999 332.386 185.648 332.872 186.458L468.889 404.696C469.213 405.182 469.376 405.669 469.376 406.317C469.376 406.804 469.213 407.452 469.051 407.939C468.889 408.425 468.403 409.074 468.079 409.56C467.592 410.046 467.106 410.533 466.457 410.857L327.036 489.656C326.387 489.98 325.739 490.142 325.253 490.305C324.604 490.467 323.956 490.467 323.307 490.467C322.659 490.467 322.01 490.305 321.524 489.98C321.037 489.818 320.551 489.494 320.065 489.007L153.732 309.359C153.083 308.71 152.759 307.9 152.435 307.251C152.11 306.44 152.11 305.792 152.11 304.981C152.11 304.17 152.435 303.522 152.759 302.873C153.083 302.225 153.732 301.576 154.38 301.09L323.307 184.675Z" fill="url(#paint13_linear_90_655)"/>
<path d="M188.912 317.142L184.859 307.089L194.748 313.088L188.912 317.142ZM183.886 298.496L181.13 300.28L191.344 326.546L189.885 327.519L190.371 328.005L195.234 324.762L194.748 324.276L192.316 325.897L189.074 317.79L195.397 313.575L203.502 318.439L201.233 319.898L201.719 320.385L212.257 313.251L211.771 312.602L210.311 313.575L183.886 298.496Z" fill="black"/>
<path d="M205.774 326.546C204.963 327.033 204.315 327.843 203.829 328.492C203.342 329.302 203.018 330.113 203.018 330.924C202.856 331.735 203.018 332.707 203.342 333.518C203.666 334.329 204.153 335.139 204.801 335.95C205.125 336.274 205.288 336.437 205.612 336.761C205.936 336.923 206.26 337.247 206.422 337.409C206.747 337.571 207.071 337.734 207.395 337.896C207.719 338.058 208.044 338.22 208.368 338.22C208.368 338.22 208.206 338.22 208.206 338.382C208.206 338.382 208.044 338.382 208.044 338.544C208.044 338.544 207.882 338.544 207.882 338.706C207.882 338.706 207.719 338.706 207.719 338.869C206.909 339.355 206.26 340.166 205.774 340.814C205.288 341.625 204.963 342.436 204.963 343.246C204.801 344.057 204.963 345.03 205.288 345.841C205.612 346.651 206.098 347.462 206.747 348.273C207.395 349.083 208.206 349.57 209.016 350.056C209.827 350.543 210.8 350.705 211.772 350.867C212.745 351.029 213.718 351.029 214.69 350.705C215.663 350.543 216.636 350.218 217.447 349.57C217.933 349.245 218.419 348.921 218.743 348.435C219.068 347.948 219.392 347.624 219.716 347.138C219.878 346.651 220.203 346.165 220.203 345.678C220.365 345.192 220.365 344.706 220.365 344.057C220.851 345.192 221.175 346.165 221.337 347.138C221.499 348.11 221.662 348.921 221.824 349.57C221.824 350.218 221.824 350.867 221.824 351.191C221.824 351.515 221.824 351.84 221.824 351.84L230.254 346.327C230.254 346.327 229.93 346.327 229.605 346.165C229.119 346.003 228.471 345.841 227.822 345.678C227.011 345.516 226.201 345.03 225.228 344.706C224.255 344.219 223.121 343.733 222.148 343.084C222.796 343.246 223.283 343.408 223.931 343.408C224.58 343.408 225.066 343.408 225.715 343.408C226.363 343.408 226.849 343.246 227.498 342.922C228.146 342.598 228.633 342.436 229.119 342.111C229.93 341.625 230.578 340.976 231.064 340.166C231.551 339.355 231.875 338.544 232.037 337.734C232.199 336.923 232.037 335.95 231.875 335.139C231.551 334.329 231.227 333.518 230.578 332.707C229.93 331.897 229.119 331.41 228.308 330.924C227.498 330.437 226.525 330.113 225.552 330.113C224.58 329.951 223.607 329.951 222.634 330.275C221.662 330.437 220.689 330.924 219.878 331.41L219.716 331.572L219.554 331.735L219.392 331.897L219.23 332.059C219.23 331.735 219.068 331.41 219.068 331.086C218.906 330.762 218.906 330.437 218.743 330.113C218.581 329.789 218.419 329.465 218.257 329.14C218.095 328.816 217.933 328.492 217.609 328.33C216.96 327.519 216.15 326.87 215.177 326.546C214.366 326.06 213.394 325.735 212.259 325.573C211.286 325.411 210.313 325.411 209.341 325.735C207.557 325.735 206.585 326.06 205.774 326.546Z" fill="black"/>
<path d="M443.923 406.967L437.276 402.427L442.788 399.184L443.923 406.967ZM444.085 390.429L439.383 393.185L439.707 393.672L441.977 392.375L442.95 398.86L436.789 402.103L431.277 398.374L433.385 397.077L433.061 396.59L423.009 402.427L423.334 402.914L424.793 402.103L442.95 413.453L445.382 411.993L442.788 391.564L444.247 390.753L444.085 390.429Z" fill="black"/>
<path d="M422.361 370.161L413.93 375.187C413.93 375.187 414.092 375.187 414.579 375.35C414.903 375.512 415.389 375.512 416.038 375.836C416.686 375.998 417.335 376.322 418.145 376.647C418.956 376.971 419.767 377.457 420.577 378.106C420.091 377.944 419.605 377.944 419.118 377.782C418.632 377.782 418.145 377.782 417.497 377.782C417.011 377.782 416.362 377.944 415.876 378.106C415.389 378.268 414.741 378.592 414.255 378.755C413.444 379.241 412.796 379.889 412.147 380.538C411.661 381.187 411.174 381.997 410.85 382.646C410.526 383.456 410.526 384.105 410.526 384.916C410.526 385.726 410.85 386.375 411.337 387.024C411.823 387.672 412.309 388.158 412.958 388.483C413.606 388.807 414.417 389.131 415.227 389.131C416.038 389.293 416.849 389.131 417.821 388.969C418.632 388.807 419.605 388.483 420.415 387.996C420.415 387.996 420.577 387.996 420.577 387.834C420.577 387.834 420.739 387.834 420.739 387.672C420.739 387.672 420.901 387.672 420.901 387.51C420.901 387.51 421.064 387.51 421.064 387.348C421.064 387.672 421.064 387.834 421.064 388.158C421.064 388.483 421.064 388.645 421.226 388.969C421.226 389.293 421.388 389.456 421.55 389.78C421.712 390.104 421.712 390.266 421.874 390.428C422.361 391.077 422.847 391.563 423.495 391.888C424.144 392.212 424.954 392.536 425.765 392.536C426.576 392.698 427.386 392.536 428.359 392.374C429.17 392.212 430.142 391.888 430.953 391.401C431.763 390.915 432.412 390.428 433.06 389.78C433.547 389.131 434.033 388.483 434.357 387.672C434.682 387.024 434.682 386.213 434.682 385.402C434.682 384.754 434.357 383.943 434.033 383.294C433.871 383.132 433.709 382.808 433.547 382.646C433.385 382.484 433.222 382.322 432.898 382.159C432.736 381.997 432.412 381.835 432.25 381.673C431.925 381.511 431.763 381.511 431.439 381.349C431.439 381.349 431.601 381.349 431.601 381.187C431.601 381.187 431.763 381.187 431.763 381.024C431.763 381.024 431.925 381.024 431.925 380.862C431.925 380.7 432.088 380.862 432.088 380.7C432.898 380.214 433.547 379.565 434.195 378.917C434.682 378.268 435.168 377.62 435.492 376.809C435.816 375.998 435.816 375.35 435.816 374.539C435.816 373.728 435.492 373.08 435.168 372.431C434.682 371.783 434.195 371.296 433.547 370.81C432.898 370.486 432.088 370.161 431.277 369.999C430.466 369.837 429.494 369.999 428.683 370.161C427.873 370.323 426.9 370.648 426.089 371.134C425.603 371.458 425.117 371.783 424.63 372.107C424.144 372.431 423.82 372.918 423.495 373.242C423.171 373.728 423.009 374.053 422.685 374.539C422.523 375.025 422.361 375.512 422.361 375.998C422.198 375.025 422.036 374.053 422.036 373.242C422.036 372.431 422.036 371.62 422.198 370.972C422.198 370.323 422.361 369.837 422.523 369.513C422.361 370.323 422.361 370.161 422.361 370.161Z" fill="black"/>
<path d="M305.153 334.978C302.884 336.437 301.1 338.22 299.641 340.004C298.344 341.95 297.372 344.057 296.885 346.165C296.399 348.273 296.399 350.543 296.885 352.651C297.372 354.758 298.344 356.866 299.803 358.65C300.29 359.298 300.938 359.947 301.587 360.595C302.235 361.244 302.884 361.73 303.532 362.217C304.181 362.703 304.991 363.028 305.802 363.514C306.612 363.838 307.423 364.162 308.234 364.487C308.071 364.487 307.909 364.649 307.747 364.811C307.585 364.973 307.423 364.973 307.261 365.135C307.099 365.297 306.937 365.297 306.774 365.46C306.612 365.622 306.45 365.622 306.288 365.784C304.181 367.081 302.397 368.702 300.938 370.648C299.641 372.432 298.669 374.377 298.182 376.485C297.696 378.593 297.696 380.538 298.182 382.646C298.669 384.592 299.641 386.538 300.938 388.321C302.397 390.105 304.181 391.402 306.126 392.374C308.071 393.347 310.341 393.996 312.611 394.32C314.88 394.644 317.312 394.482 319.582 393.996C321.851 393.509 324.283 392.699 326.391 391.402C327.688 390.591 328.823 389.78 329.957 388.645C330.93 387.672 331.903 386.538 332.551 385.403C333.2 384.268 333.848 383.133 334.172 381.835C334.497 380.538 334.821 379.403 334.821 378.106C335.631 380.701 336.118 383.133 336.442 385.24C336.766 387.348 336.766 389.294 336.766 390.915C336.766 392.537 336.604 393.834 336.442 394.807C336.28 395.779 336.118 396.266 336.118 396.266L357.68 383.295C357.68 383.295 357.031 383.295 356.058 382.97C355.086 382.808 353.627 382.322 351.843 381.835C350.06 381.349 348.115 380.538 345.845 379.566C343.575 378.593 341.306 377.296 338.874 375.674C340.171 375.999 341.63 376.323 343.089 376.485C344.548 376.647 346.007 376.485 347.466 376.323C348.925 376.161 350.384 375.836 351.843 375.35C353.302 374.864 354.599 374.215 356.058 373.404C358.166 372.107 360.111 370.486 361.408 368.702C362.867 366.919 363.84 364.973 364.489 362.865C365.137 360.758 365.299 358.65 364.975 356.542C364.651 354.434 363.84 352.489 362.543 350.543C361.246 348.759 359.463 347.138 357.517 346.003C355.572 344.868 353.302 344.219 350.871 343.895C348.439 343.571 346.007 343.571 343.575 344.22C341.143 344.706 338.712 345.679 336.442 346.976C336.28 347.138 336.118 347.138 335.956 347.3C335.794 347.462 335.631 347.462 335.469 347.624C335.307 347.787 335.145 347.787 334.983 347.949C334.821 348.111 334.659 348.111 334.497 348.273C334.497 347.462 334.497 346.652 334.335 345.841C334.172 345.03 334.01 344.22 333.848 343.571C333.686 342.76 333.362 342.112 332.875 341.301C332.551 340.49 332.065 339.842 331.579 339.193C330.119 337.248 328.336 335.788 326.229 334.491C324.121 333.356 321.851 332.546 319.42 332.221C316.988 331.897 314.394 331.897 311.962 332.546C309.855 332.708 307.423 333.518 305.153 334.978Z" fill="black"/>
</g>
<path d="M1527.36 297.11C1527.68 297.11 1527.84 297.11 1528.17 297.11C1528.65 297.11 1529.14 296.948 1529.47 296.948C1529.63 296.948 1529.95 296.948 1530.11 296.786C1530.76 296.624 1531.41 296.624 1532.22 296.462L1555.4 291.273C1554.76 291.435 1554.11 291.598 1553.46 291.598C1553.3 291.598 1552.97 291.598 1552.81 291.76C1552.32 291.76 1551.84 291.922 1551.51 291.922C1551.19 291.922 1551.03 291.922 1550.7 291.922C1550.22 291.922 1549.89 291.922 1549.41 291.922C1549.08 291.922 1548.76 291.922 1548.43 291.922C1548.11 291.922 1547.62 291.922 1547.3 291.922C1546.97 291.922 1546.65 291.922 1546.33 291.922C1546 291.922 1545.51 291.922 1545.19 291.922C1544.87 291.922 1544.54 291.922 1544.22 291.76C1543.89 291.76 1543.41 291.76 1543.08 291.598C1542.76 291.598 1542.43 291.436 1542.11 291.436C1541.79 291.436 1541.3 291.273 1540.98 291.273C1540.65 291.273 1540.33 291.111 1540 291.111C1539.68 290.949 1539.19 290.949 1538.87 290.787C1538.54 290.625 1538.22 290.625 1537.9 290.463C1537.57 290.301 1537.08 290.301 1536.76 290.138C1536.44 289.976 1536.11 289.976 1535.79 289.814C1535.46 289.652 1534.98 289.49 1534.65 289.49C1534.33 289.328 1534 289.166 1533.68 289.166C1533.36 289.003 1532.87 288.841 1532.55 288.679C1532.22 288.517 1531.9 288.355 1531.57 288.193C1531.25 288.031 1530.76 287.868 1530.44 287.706C1530.11 287.544 1529.79 287.382 1529.3 287.22C1528.98 287.058 1528.49 286.896 1528.17 286.571C1527.84 286.409 1527.52 286.247 1527.03 285.923C1526.71 285.761 1526.22 285.436 1525.9 285.274C1525.57 285.112 1525.25 284.788 1524.76 284.626C1524.44 284.464 1523.95 284.139 1523.63 283.977C1523.3 283.815 1522.98 283.491 1522.66 283.329C1522.33 283.004 1521.85 282.842 1521.52 282.518C1521.2 282.194 1520.71 282.031 1520.39 281.707C1520.06 281.383 1519.58 281.221 1519.25 280.897C1518.93 280.572 1518.44 280.248 1518.12 280.086C1517.79 279.762 1517.47 279.437 1516.98 279.275C1516.66 278.951 1516.17 278.627 1515.85 278.302C1515.52 277.978 1515.2 277.654 1514.71 277.33C1514.39 277.005 1513.9 276.681 1513.58 276.357C1512.93 276.032 1512.44 275.708 1512.12 275.384C1511.79 275.06 1511.31 274.573 1510.98 274.249C1510.66 273.925 1510.34 273.6 1510.01 273.276C1509.69 272.952 1509.2 272.465 1508.88 272.141C1508.55 271.817 1508.23 271.493 1507.9 271.006C1507.58 270.52 1507.09 270.195 1506.77 269.709C1506.44 269.385 1506.12 268.898 1505.8 268.574C1505.47 268.088 1504.99 267.763 1504.66 267.277C1504.34 266.953 1504.01 266.466 1503.69 266.142C1503.36 265.656 1502.88 265.169 1502.55 264.683C1502.23 264.196 1501.91 263.872 1501.58 263.386C1501.09 263.061 1500.77 262.575 1500.45 262.089C1500.12 261.602 1499.8 261.278 1499.47 260.791C1499.15 260.305 1498.66 259.819 1498.34 259.17C1498.01 258.684 1497.69 258.359 1497.53 257.873C1497.2 257.387 1496.72 256.738 1496.39 256.252C1496.07 255.765 1495.91 255.441 1495.58 254.954C1495.26 254.306 1494.77 253.82 1494.45 253.171C1494.12 252.685 1493.96 252.36 1493.64 251.874C1493.31 251.225 1492.83 250.577 1492.5 249.928C1492.34 249.442 1492.02 249.118 1491.85 248.631C1491.37 247.82 1491.04 247.172 1490.72 246.361C1490.56 246.037 1490.39 245.713 1490.07 245.226C1489.42 244.091 1488.94 242.956 1488.29 241.821C1487.96 241.173 1487.64 240.362 1487.31 239.551C1486.99 238.903 1486.67 238.092 1486.34 237.444C1485.86 236.471 1485.37 235.336 1485.04 234.363C1484.88 234.201 1484.88 233.877 1484.72 233.714C1484.23 232.742 1483.75 231.607 1483.42 230.634V230.472C1483.1 229.499 1482.61 228.364 1482.29 227.391C1482.29 227.229 1482.13 227.067 1482.13 226.743C1481.8 225.608 1481.32 224.635 1480.99 223.5C1480.99 223.338 1480.83 223.175 1480.83 223.013C1480.51 222.203 1480.18 221.23 1479.86 220.257C1479.86 220.095 1479.69 219.933 1479.69 219.771C1479.37 218.636 1479.05 217.663 1478.72 216.528C1478.72 216.366 1478.56 216.204 1478.56 215.879C1478.24 214.906 1478.07 213.934 1477.75 212.961C1477.75 212.799 1477.75 212.637 1477.59 212.637C1477.26 211.664 1477.1 210.529 1476.78 209.556C1476.78 209.394 1476.61 209.069 1476.61 208.907C1476.45 207.935 1476.13 206.8 1475.97 205.827C1475.97 205.827 1475.97 205.827 1475.97 205.665C1475.8 204.53 1475.64 203.557 1475.48 202.422C1475.48 202.26 1475.48 201.935 1475.32 201.773C1475.16 200.8 1474.99 199.665 1474.83 198.693C1474.83 198.531 1474.83 198.531 1474.83 198.368C1474.67 197.396 1474.51 196.423 1474.51 195.45C1474.51 195.288 1474.51 194.963 1474.51 194.801C1474.35 193.829 1474.35 192.694 1474.18 191.721C1474.18 191.559 1474.18 191.396 1474.18 191.234C1474.18 190.261 1474.02 189.289 1474.02 188.478C1474.02 188.316 1474.02 188.154 1474.02 187.992C1474.02 187.019 1473.86 185.884 1473.86 184.911C1473.86 184.749 1473.86 184.587 1473.86 184.262C1473.86 183.29 1473.86 182.317 1473.86 181.344C1473.86 181.182 1473.86 181.182 1473.86 181.02C1473.86 180.695 1473.86 180.209 1473.86 179.885C1473.86 179.56 1473.86 179.236 1473.86 178.912C1473.86 178.588 1473.86 178.263 1473.86 177.777C1473.86 177.453 1473.86 177.128 1473.86 176.642C1473.86 176.318 1473.86 175.993 1473.86 175.669C1473.86 175.345 1473.86 175.021 1473.86 174.534C1473.86 174.21 1473.86 173.886 1473.86 173.561C1473.86 173.237 1473.86 172.751 1473.86 172.426C1473.86 172.102 1473.86 171.778 1473.86 171.454C1473.86 171.129 1473.86 170.643 1474.02 170.319C1474.02 169.994 1474.02 169.67 1474.18 169.346C1474.18 169.021 1474.18 168.697 1474.35 168.373C1474.35 168.049 1474.35 167.724 1474.51 167.4C1474.51 167.076 1474.51 166.752 1474.67 166.427C1474.67 166.103 1474.83 165.779 1474.83 165.454C1474.83 165.13 1474.99 164.806 1474.99 164.482C1474.99 164.157 1475.16 163.833 1475.16 163.509C1475.16 163.184 1475.32 162.86 1475.32 162.536C1475.32 162.212 1475.48 161.887 1475.48 161.563C1475.48 161.239 1475.64 160.915 1475.64 160.59C1475.64 160.266 1475.8 159.942 1475.8 159.617C1475.8 159.293 1475.97 158.969 1475.97 158.645C1475.97 158.32 1476.13 157.996 1476.13 157.672C1476.13 157.348 1476.29 157.023 1476.29 156.861C1476.29 156.537 1476.45 156.213 1476.45 155.888C1476.45 155.564 1476.61 155.24 1476.61 155.078C1476.61 154.753 1476.78 154.429 1476.78 154.105C1476.78 153.78 1476.94 153.618 1476.94 153.294C1477.1 152.97 1477.1 152.646 1477.26 152.321C1477.43 151.997 1477.43 151.835 1477.59 151.511C1477.75 151.186 1477.75 150.862 1477.91 150.538C1477.91 150.376 1478.07 150.051 1478.07 149.889C1478.4 149.078 1478.56 148.268 1478.88 147.457C1478.88 147.457 1478.88 147.457 1478.88 147.295C1479.21 146.484 1479.53 145.836 1479.69 145.025C1479.69 144.863 1479.86 144.701 1479.86 144.539C1480.18 143.728 1480.51 143.079 1480.83 142.269C1480.83 142.107 1480.99 142.107 1480.99 141.944C1481.32 141.296 1481.64 140.647 1481.96 139.999C1481.96 139.837 1482.13 139.674 1482.13 139.674C1482.45 139.026 1482.78 138.377 1483.26 137.729C1483.26 137.567 1483.42 137.405 1483.42 137.242C1483.75 136.594 1484.23 135.945 1484.56 135.459C1484.56 135.459 1484.56 135.297 1484.72 135.297C1485.21 134.648 1485.53 134 1486.02 133.351C1486.18 133.189 1486.18 133.027 1486.34 133.027C1486.83 132.378 1487.15 131.892 1487.64 131.243C1487.64 131.081 1487.8 131.081 1487.8 130.919C1488.13 130.595 1488.29 130.27 1488.61 129.946C1488.77 129.784 1488.77 129.622 1488.94 129.46C1489.1 129.136 1489.42 128.973 1489.58 128.649C1489.75 128.487 1489.91 128.325 1490.07 128.163C1490.23 127.838 1490.56 127.676 1490.72 127.514C1490.88 127.352 1491.04 127.19 1491.21 127.028C1491.37 126.866 1491.69 126.541 1491.85 126.379C1492.02 126.217 1492.18 126.055 1492.34 125.893C1492.5 125.731 1492.83 125.406 1492.99 125.244C1493.15 125.082 1493.31 124.92 1493.47 124.758C1493.8 124.596 1493.96 124.271 1494.29 124.109C1494.45 123.947 1494.61 123.785 1494.77 123.785C1495.1 123.623 1495.42 123.299 1495.58 123.136C1495.74 122.974 1495.91 122.974 1496.07 122.812C1496.56 122.488 1496.88 122.164 1497.37 122.001L1474.99 130.595C1474.51 130.919 1474.18 131.243 1473.7 131.405C1473.53 131.568 1473.37 131.568 1473.21 131.73C1472.89 131.892 1472.56 132.216 1472.4 132.378C1472.4 132.378 1472.24 132.378 1472.24 132.54C1472.08 132.703 1472.08 132.703 1471.91 132.865C1471.91 133.351 1471.75 133.513 1471.43 133.838C1471.26 134 1471.1 134.162 1470.94 134.324C1470.62 134.486 1470.45 134.81 1470.13 134.972L1469.97 135.135C1469.81 135.135 1469.81 135.297 1469.64 135.459C1469.48 135.621 1469.16 135.945 1469 136.107C1468.83 136.27 1468.67 136.432 1468.51 136.594C1468.35 136.756 1468.02 137.08 1467.86 137.242C1467.7 137.405 1467.7 137.405 1467.54 137.567L1467.37 137.729C1467.05 138.053 1466.89 138.215 1466.56 138.54C1466.4 138.702 1466.24 138.864 1466.24 139.026C1465.91 139.35 1465.75 139.674 1465.43 139.999C1465.43 140.161 1465.27 140.161 1465.27 140.323C1464.78 140.647 1464.29 141.134 1463.81 141.782C1463.65 141.944 1463.65 142.107 1463.48 142.107C1463 142.755 1462.67 143.404 1462.19 143.89C1462.19 143.89 1462.19 143.89 1462.19 144.052C1461.86 144.701 1461.38 145.187 1461.05 145.836C1461.05 145.998 1460.89 146.16 1460.89 146.322C1460.56 146.971 1460.08 147.619 1459.75 148.268V148.43C1459.75 148.592 1459.59 148.592 1459.59 148.754C1459.43 149.078 1459.27 149.403 1459.11 149.565C1458.94 149.889 1458.78 150.213 1458.62 150.538C1458.62 150.7 1458.46 150.7 1458.46 150.862C1458.13 151.511 1457.81 152.321 1457.48 152.97C1457.48 152.97 1457.48 153.132 1457.32 153.132C1457.32 153.294 1457.32 153.294 1457.16 153.456C1456.84 154.267 1456.51 154.915 1456.35 155.726C1456.35 155.726 1456.35 155.726 1456.35 155.888C1456.03 156.699 1455.7 157.51 1455.54 158.32C1455.54 158.482 1455.54 158.482 1455.38 158.645C1455.38 158.807 1455.22 158.969 1455.22 158.969C1455.05 159.293 1455.05 159.617 1454.89 159.78C1454.73 160.104 1454.73 160.266 1454.57 160.59C1454.4 160.915 1454.4 161.239 1454.24 161.563C1454.08 161.887 1454.08 162.05 1454.08 162.374C1453.92 162.698 1453.92 163.022 1453.76 163.347C1453.76 163.671 1453.59 163.833 1453.59 164.157C1453.43 164.482 1453.43 164.806 1453.43 165.13C1453.43 165.292 1453.43 165.292 1453.27 165.454C1453.27 165.617 1453.27 165.779 1453.11 165.941C1453.11 166.265 1452.95 166.589 1452.95 166.914C1452.95 167.238 1452.78 167.562 1452.78 167.724C1452.78 168.049 1452.62 168.373 1452.62 168.697C1452.62 169.021 1452.46 169.346 1452.46 169.67C1452.46 169.994 1452.3 170.319 1452.3 170.643C1452.3 170.967 1452.13 171.291 1452.13 171.616C1452.13 171.94 1451.97 172.264 1451.97 172.588C1451.97 172.751 1451.97 172.751 1451.97 172.913C1451.97 173.075 1451.97 173.399 1451.81 173.561C1451.81 173.886 1451.65 174.21 1451.65 174.534C1451.65 174.858 1451.49 175.183 1451.49 175.507C1451.49 175.831 1451.49 176.156 1451.32 176.48C1451.32 176.804 1451.32 177.128 1451.16 177.453C1451.16 177.615 1451.16 177.939 1451.16 178.101C1451.16 178.263 1451.16 178.263 1451.16 178.425C1451.16 178.75 1451.16 179.074 1451 179.56C1451 179.885 1451 180.209 1451 180.533V180.695C1451 181.02 1451 181.182 1451 181.506C1451 181.83 1451 182.155 1451 182.479C1451 182.803 1451 183.127 1451 183.614C1451 183.938 1451 184.262 1451 184.587C1451 184.911 1451 185.235 1451 185.559C1451 185.884 1451 186.208 1451 186.532C1451 186.857 1451 187.181 1451 187.505C1451 187.829 1451 188.316 1451 188.64C1451 188.64 1451 188.64 1451 188.802V188.964C1451 189.937 1451 190.748 1451 191.721C1451 191.883 1451 192.045 1451 192.369C1451 193.342 1451 194.315 1451.16 195.288C1451.16 195.45 1451.16 195.612 1451.16 195.774C1451.16 196.747 1451.32 197.558 1451.32 198.531C1451.32 198.693 1451.32 198.855 1451.32 199.017C1451.49 199.99 1451.49 201.125 1451.65 202.098V202.26C1451.65 202.422 1451.65 202.422 1451.65 202.584C1451.81 203.557 1451.81 204.53 1451.97 205.502C1451.97 205.665 1451.97 205.665 1451.97 205.827C1452.13 206.8 1452.3 207.935 1452.46 208.907C1452.46 209.069 1452.46 209.394 1452.62 209.556C1452.78 210.529 1452.95 211.664 1453.11 212.637C1453.11 212.637 1453.11 212.637 1453.11 212.799C1453.27 213.771 1453.43 214.744 1453.76 215.879C1453.76 216.041 1453.76 216.204 1453.76 216.204C1453.76 216.366 1453.76 216.366 1453.76 216.528C1453.92 217.501 1454.24 218.636 1454.4 219.608C1454.4 219.771 1454.4 219.933 1454.57 219.933C1454.73 220.906 1455.05 221.878 1455.38 222.851C1455.38 223.013 1455.54 223.175 1455.54 223.5C1455.86 224.473 1456.19 225.608 1456.35 226.58C1456.35 226.743 1456.51 226.905 1456.51 227.067C1456.84 228.04 1457.16 229.012 1457.48 229.985C1457.48 230.147 1457.48 230.147 1457.65 230.31C1457.65 230.31 1457.65 230.31 1457.65 230.472C1457.97 231.444 1458.3 232.579 1458.78 233.552C1458.78 233.714 1458.94 233.877 1458.94 234.201C1459.27 235.174 1459.59 236.146 1460.08 237.119V237.281C1460.4 238.254 1460.89 239.389 1461.38 240.362C1461.54 240.524 1461.54 240.848 1461.7 241.011C1462.19 241.983 1462.51 243.118 1463 244.091C1463.16 244.416 1463.32 244.74 1463.48 245.226C1463.65 245.55 1463.81 245.875 1463.97 246.199C1464.13 246.523 1464.29 246.848 1464.46 247.334C1464.62 247.658 1464.78 247.983 1464.94 248.469C1465.43 249.604 1466.08 250.739 1466.73 251.874C1466.89 252.198 1467.05 252.522 1467.37 252.847C1467.7 253.657 1468.18 254.306 1468.51 255.117C1468.51 255.117 1468.51 255.117 1468.51 255.279C1468.67 255.603 1469 255.927 1469.16 256.414C1469.48 257.062 1469.97 257.711 1470.29 258.359C1470.62 258.846 1470.78 259.17 1471.1 259.656C1471.43 260.305 1471.91 260.791 1472.24 261.44L1472.4 261.602C1472.56 261.926 1472.89 262.251 1473.05 262.575C1473.37 263.061 1473.7 263.71 1474.18 264.196C1474.51 264.683 1474.83 265.007 1474.99 265.493C1475.32 265.98 1475.8 266.466 1476.13 267.115C1476.13 267.277 1476.29 267.277 1476.29 267.439C1476.45 267.763 1476.78 268.088 1476.94 268.412C1477.26 268.898 1477.75 269.385 1478.07 269.871C1478.4 270.358 1478.72 270.682 1479.05 271.006C1479.37 271.33 1479.53 271.655 1479.86 271.979C1480.02 272.141 1480.02 272.303 1480.18 272.303C1480.34 272.465 1480.34 272.628 1480.51 272.628C1480.67 272.952 1480.99 273.114 1481.15 273.438C1481.48 273.925 1481.96 274.249 1482.29 274.735C1482.61 275.06 1482.94 275.546 1483.26 275.87C1483.59 276.357 1484.07 276.681 1484.4 277.005C1484.56 277.167 1484.72 277.33 1484.72 277.33C1484.88 277.492 1485.21 277.816 1485.37 277.978C1485.69 278.302 1486.18 278.789 1486.5 279.113C1486.83 279.437 1487.15 279.762 1487.48 280.086C1487.8 280.41 1488.29 280.734 1488.61 281.221C1488.77 281.383 1488.94 281.545 1489.1 281.545C1489.26 281.707 1489.58 281.869 1489.75 282.032C1490.07 282.356 1490.56 282.68 1490.88 283.004C1491.21 283.329 1491.53 283.653 1492.02 283.815C1492.34 284.139 1492.83 284.464 1493.15 284.788C1493.31 284.95 1493.47 285.112 1493.64 285.112C1493.8 285.274 1493.96 285.436 1494.29 285.599C1494.61 285.923 1495.1 286.247 1495.42 286.409C1495.74 286.733 1496.23 286.896 1496.56 287.22C1496.72 287.382 1496.88 287.544 1497.2 287.706C1497.37 287.868 1497.53 288.031 1497.85 288.031C1498.01 288.193 1498.18 288.355 1498.34 288.355C1498.5 288.517 1498.66 288.517 1498.99 288.679C1499.31 288.841 1499.64 289.166 1500.12 289.328C1500.45 289.49 1500.93 289.814 1501.26 289.976C1501.58 290.138 1501.91 290.463 1502.39 290.625C1502.72 290.787 1503.2 291.111 1503.53 291.273C1503.85 291.435 1504.17 291.598 1504.66 291.76C1504.99 291.922 1505.47 292.084 1505.8 292.246C1506.12 292.408 1506.44 292.57 1506.93 292.733C1507.09 292.733 1507.26 292.895 1507.42 292.895C1507.58 293.057 1507.9 293.057 1508.07 293.219C1508.39 293.381 1508.71 293.543 1509.2 293.705C1509.52 293.868 1510.01 294.03 1510.34 294.192C1510.66 294.354 1510.98 294.516 1511.31 294.516C1511.63 294.678 1512.12 294.84 1512.44 294.84C1512.77 295.003 1513.09 295.003 1513.42 295.165C1513.74 295.327 1514.23 295.327 1514.55 295.489C1514.87 295.489 1515.04 295.651 1515.36 295.651C1515.52 295.651 1515.52 295.651 1515.69 295.651C1515.85 295.651 1515.85 295.651 1516.01 295.651C1516.33 295.651 1516.66 295.813 1516.82 295.813C1517.14 295.813 1517.47 295.975 1517.79 295.975C1518.12 295.975 1518.6 296.137 1518.93 296.137C1519.25 296.137 1519.58 296.3 1519.9 296.3C1520.22 296.3 1520.71 296.462 1521.04 296.462C1521.36 296.462 1521.68 296.462 1522.01 296.624C1522.33 296.624 1522.82 296.624 1523.14 296.624C1523.47 296.624 1523.79 296.624 1524.12 296.624H1524.28C1524.6 296.624 1524.93 296.624 1525.25 296.624C1525.57 296.624 1525.9 296.624 1526.22 296.624C1526.55 297.272 1526.87 297.272 1527.36 297.11Z" fill="url(#paint14_linear_90_655)"/>
<path d="M1497.69 122.489C1504.18 118.273 1511.31 116.652 1518.77 117.3C1525.9 117.787 1533.36 120.543 1540.49 125.083C1547.46 129.461 1554.27 135.622 1560.59 143.242C1566.75 150.863 1572.43 159.943 1577.13 170.157C1581.83 180.534 1585.24 191.073 1587.5 201.612C1589.61 212.151 1590.59 222.69 1590.26 232.58C1589.94 242.633 1588.32 252.037 1585.56 260.306C1582.64 268.737 1578.43 276.033 1572.91 281.546C1567.24 287.221 1560.76 290.464 1553.62 291.599C1546.49 292.734 1538.87 291.436 1531.25 288.194C1523.47 284.789 1515.69 279.114 1508.39 271.331C1501.1 263.549 1494.29 253.658 1488.61 241.984C1482.94 230.148 1478.89 217.826 1476.62 205.666C1474.35 193.505 1473.7 181.507 1474.67 170.482C1475.64 159.618 1478.24 149.728 1482.13 141.459C1485.69 133.19 1491.04 126.704 1497.69 122.489Z" fill="url(#paint15_linear_90_655)"/>
<path d="M1573.56 170.321C1573.89 170.483 1574.05 170.645 1574.21 170.969C1574.37 171.293 1574.7 171.618 1574.86 171.942C1575.02 172.266 1575.19 172.753 1575.19 173.077C1575.19 173.401 1575.35 173.888 1575.35 174.212C1575.35 174.536 1575.19 174.86 1575.19 175.185C1575.19 175.509 1574.86 175.671 1574.7 175.833C1574.54 175.995 1574.21 176.157 1574.05 176.157C1573.89 176.157 1573.56 176.157 1573.24 175.995C1572.92 175.833 1572.75 175.671 1572.59 175.347C1572.43 175.023 1572.11 174.698 1571.94 174.374C1571.78 174.05 1571.62 173.563 1571.62 173.239C1571.62 172.915 1571.46 172.428 1571.46 172.104C1571.46 171.78 1571.62 171.455 1571.62 171.131C1571.78 170.807 1571.94 170.645 1572.11 170.483C1572.27 170.321 1572.59 170.158 1572.75 170.158C1573.08 170.158 1573.24 170.158 1573.56 170.321ZM1587.34 201.613C1586.53 198.046 1585.72 194.317 1584.59 190.75L1577.78 191.561C1577.62 191.561 1577.62 191.561 1577.46 191.561C1577.29 191.561 1577.29 191.561 1577.13 191.723C1576.97 191.723 1576.97 191.885 1576.81 191.885C1576.64 191.885 1576.64 192.047 1576.48 192.047C1576.16 192.209 1576 192.533 1575.83 192.858C1575.67 193.182 1575.51 193.668 1575.35 194.155C1575.19 194.641 1575.19 195.128 1575.19 195.614C1575.19 196.1 1575.19 196.749 1575.35 197.398C1575.51 198.046 1575.51 198.857 1575.67 199.667C1575.83 200.478 1576 201.451 1576.16 202.424C1576.32 203.397 1576.48 204.369 1576.64 205.342C1576.81 206.315 1576.97 207.288 1577.13 208.261C1577.29 209.234 1577.29 210.369 1577.46 211.666C1577.46 213.125 1577.62 214.422 1577.78 215.557C1577.94 216.692 1577.94 217.827 1577.94 218.638C1577.94 219.448 1578.1 220.097 1578.1 220.097C1578.27 220.908 1578.43 221.718 1578.59 222.367C1578.75 223.015 1579.08 223.826 1579.4 224.312C1579.72 224.961 1580.21 225.447 1580.54 225.772C1581.02 226.258 1581.35 226.42 1581.83 226.582L1590.1 229.501C1590.26 220.745 1589.29 211.179 1587.34 201.613ZM1541.14 141.784C1541.46 142.433 1541.79 143.243 1542.11 143.73C1542.44 144.378 1542.92 144.865 1543.41 145.351C1543.9 145.676 1544.38 146.162 1544.87 146.648C1545.36 147.135 1546 147.621 1546.65 148.108C1547.3 148.594 1547.95 149.243 1548.6 149.729C1549.25 150.378 1549.89 150.864 1550.54 151.513C1551.19 152.161 1551.84 152.81 1552.65 153.62C1553.46 154.431 1554.27 155.242 1554.92 156.052C1555.73 156.863 1556.38 157.512 1556.87 158.16C1557.35 158.647 1557.68 159.133 1557.84 159.133C1558.16 159.457 1558.65 159.782 1558.97 159.944C1559.3 160.106 1559.78 160.268 1560.11 160.43C1560.43 160.43 1560.76 160.43 1561.08 160.43C1561.41 160.43 1561.73 160.268 1562.05 159.944L1562.22 159.782L1562.38 159.619C1562.38 159.457 1562.54 159.457 1562.54 159.295C1562.54 159.133 1562.7 159.133 1562.7 158.971L1566.43 151.026C1564.49 148.108 1562.38 145.351 1560.27 142.757C1554.6 135.785 1548.44 130.11 1542.11 125.733L1540.49 137.082C1540.33 137.731 1540.33 138.379 1540.49 139.19C1540.65 140.325 1540.82 141.136 1541.14 141.784ZM1583.78 244.742C1583.62 244.418 1583.45 243.931 1583.29 243.607C1583.13 243.283 1582.8 242.958 1582.64 242.796C1582.48 242.634 1582.32 242.472 1582.16 242.472C1581.99 242.31 1581.83 242.31 1581.67 242.31C1581.51 242.31 1581.35 242.31 1581.18 242.31C1581.02 242.31 1580.86 242.472 1580.7 242.634L1580.54 242.796C1580.54 242.796 1580.37 242.958 1580.37 243.12C1580.37 243.283 1580.21 243.283 1580.21 243.445C1580.21 243.607 1580.21 243.607 1580.05 243.769C1579.89 244.093 1579.89 244.58 1579.89 244.904C1579.89 245.228 1580.05 245.715 1580.05 246.039C1580.21 246.363 1580.37 246.85 1580.54 247.174C1580.7 247.498 1581.02 247.822 1581.18 247.985C1581.35 248.147 1581.51 248.309 1581.67 248.309C1581.83 248.471 1581.99 248.471 1582.16 248.471C1582.32 248.471 1582.48 248.471 1582.64 248.471C1582.8 248.471 1582.97 248.309 1583.13 248.147L1583.29 247.985C1583.29 247.985 1583.45 247.822 1583.45 247.66C1583.45 247.498 1583.62 247.498 1583.62 247.336C1583.62 247.174 1583.62 247.174 1583.78 247.012C1583.94 246.687 1583.94 246.201 1583.94 245.877C1583.94 245.39 1583.78 245.066 1583.78 244.742ZM1491.21 239.553C1491.37 240.04 1491.69 240.364 1492.02 240.688C1492.34 241.013 1492.67 241.175 1492.83 241.337C1492.99 241.499 1493.48 241.499 1493.8 241.499C1494.13 241.499 1494.45 241.337 1494.61 241.175C1494.94 241.013 1495.1 240.688 1495.26 240.364C1495.42 240.04 1495.59 239.553 1495.59 239.229C1495.59 238.743 1495.59 238.418 1495.59 237.932C1495.42 237.446 1495.42 236.959 1495.1 236.635C1494.94 236.148 1494.61 235.824 1494.29 235.5C1493.96 235.176 1493.64 235.014 1493.48 234.851C1493.15 234.689 1492.83 234.689 1492.51 234.689C1492.18 234.689 1491.86 234.851 1491.69 235.014C1491.37 235.176 1491.21 235.5 1491.05 235.824C1490.88 236.148 1490.72 236.635 1490.72 236.959C1490.72 237.446 1490.72 237.77 1490.72 238.256C1490.72 238.743 1490.88 239.229 1491.21 239.553ZM1572.59 281.547C1576.16 277.98 1579.08 273.764 1581.51 269.062L1574.21 257.226C1573.89 256.578 1573.4 256.091 1573.08 255.767C1572.75 255.443 1572.27 255.119 1571.78 254.956C1571.29 254.794 1570.81 254.794 1570.32 254.794C1569.84 254.956 1569.51 255.119 1569.02 255.443C1568.7 255.767 1568.38 256.254 1567.89 256.74C1567.4 257.226 1567.08 257.713 1566.59 258.199C1566.11 258.686 1565.62 259.334 1565.13 259.821C1564.65 260.307 1564.16 260.956 1563.68 261.442C1563.19 261.928 1562.54 262.415 1561.89 263.063C1561.24 263.712 1560.43 264.198 1559.78 264.685C1559.14 265.171 1558.33 265.982 1558 266.306C1557.51 266.63 1557.19 266.955 1557.19 266.955C1556.7 267.279 1556.38 267.927 1556.22 268.414C1555.89 269.062 1555.73 269.711 1555.73 270.36C1555.57 271.008 1555.57 271.819 1555.73 272.467C1555.73 273.278 1555.89 273.927 1556.22 274.737L1561.41 289.492C1565.13 287.87 1569.02 285.114 1572.59 281.547ZM1542.11 280.088C1542.11 280.412 1542.11 280.736 1542.11 280.899C1542.11 281.385 1542.28 281.871 1542.44 282.196C1542.6 282.52 1542.76 283.006 1543.09 283.331C1543.25 283.655 1543.57 283.817 1543.9 284.141C1544.22 284.303 1544.55 284.466 1544.71 284.466C1544.87 284.466 1544.87 284.466 1545.03 284.466C1545.19 284.466 1545.19 284.466 1545.36 284.466C1545.52 284.466 1545.52 284.466 1545.68 284.303L1545.84 284.141C1546 283.979 1546.17 283.817 1546.17 283.655C1546.33 283.493 1546.33 283.168 1546.49 283.006C1546.49 282.682 1546.65 282.52 1546.65 282.196C1546.65 281.871 1546.65 281.547 1546.65 281.385C1546.65 280.899 1546.49 280.412 1546.33 280.088C1546.17 279.764 1546 279.277 1545.68 278.953C1545.36 278.629 1545.19 278.466 1544.87 278.142C1544.55 277.98 1544.22 277.818 1544.06 277.818C1543.9 277.818 1543.9 277.818 1543.73 277.818C1543.57 277.818 1543.57 277.818 1543.41 277.818C1543.25 277.818 1543.25 277.818 1543.09 277.98L1542.92 278.142C1542.76 278.304 1542.6 278.466 1542.6 278.629C1542.44 278.791 1542.44 279.115 1542.28 279.277C1542.11 279.601 1542.11 279.764 1542.11 280.088ZM1486.99 155.89C1486.83 155.566 1486.51 155.242 1486.18 154.917C1486.02 154.755 1485.7 154.593 1485.53 154.431C1485.37 154.269 1485.05 154.269 1484.89 154.269C1484.72 154.269 1484.4 154.269 1484.24 154.269C1484.07 154.269 1483.91 154.431 1483.75 154.431C1483.59 154.431 1483.59 154.593 1483.59 154.593L1483.43 154.755C1483.43 154.917 1483.26 154.917 1483.26 155.08C1483.26 155.242 1483.1 155.242 1483.1 155.404C1482.94 155.728 1482.94 156.215 1482.94 156.539C1482.94 157.025 1482.94 157.349 1483.1 157.836C1483.26 158.322 1483.43 158.647 1483.59 158.971C1483.75 159.295 1484.08 159.619 1484.4 159.944C1484.56 160.106 1484.89 160.268 1485.05 160.43C1485.21 160.592 1485.53 160.592 1485.7 160.592C1485.86 160.592 1486.18 160.592 1486.34 160.592C1486.51 160.592 1486.67 160.43 1486.83 160.43C1486.99 160.43 1486.99 160.268 1486.99 160.268L1487.16 160.106C1487.16 159.944 1487.32 159.944 1487.32 159.782C1487.32 159.619 1487.48 159.619 1487.48 159.457C1487.64 159.133 1487.64 158.647 1487.64 158.322C1487.64 157.836 1487.64 157.512 1487.48 157.025C1487.32 156.701 1487.16 156.215 1486.99 155.89ZM1546.17 257.713C1541.63 258.361 1536.76 257.551 1532.06 255.281C1527.2 253.173 1522.5 249.606 1518.12 244.904C1513.74 240.364 1509.69 234.365 1506.29 227.393C1502.88 220.421 1500.61 212.963 1499.15 205.667C1497.86 198.37 1497.53 191.074 1498.02 184.426C1498.67 177.779 1500.12 171.618 1502.56 166.429C1504.99 161.241 1508.23 157.025 1512.45 154.269C1516.5 151.35 1521.04 150.053 1525.58 150.215C1530.12 150.215 1534.82 151.675 1539.36 154.269C1543.9 156.863 1548.27 160.43 1552.16 165.132C1556.06 169.834 1559.78 175.347 1562.7 181.832C1565.62 188.318 1567.89 194.965 1569.19 201.775C1570.48 208.423 1570.97 215.071 1570.65 221.394C1570.32 227.717 1569.19 233.716 1567.08 238.905C1565.13 244.093 1562.22 248.633 1558.49 252.038C1554.92 255.119 1550.71 257.226 1546.17 257.713ZM1567.57 227.717L1562.22 223.177C1561.89 224.637 1561.73 225.934 1561.24 227.231C1560.92 228.528 1560.43 229.825 1559.95 230.96C1559.46 232.095 1558.97 233.392 1558.33 234.365C1557.68 235.5 1557.03 236.473 1556.38 237.446L1560.92 244.093C1561.73 242.958 1562.38 241.823 1563.19 240.526C1563.84 239.229 1564.49 237.932 1564.97 236.473C1565.46 235.014 1565.94 233.716 1566.43 232.095C1566.92 230.798 1567.4 229.177 1567.57 227.717ZM1559.3 192.371C1559.78 193.993 1560.27 195.452 1560.76 197.073C1561.24 198.695 1561.57 200.154 1561.89 201.775C1562.22 203.397 1562.38 204.856 1562.7 206.477C1562.86 208.099 1563.03 209.558 1563.03 211.179L1568.54 212.152C1568.38 210.369 1568.21 208.585 1568.05 206.802C1567.89 205.018 1567.57 203.234 1567.24 201.451C1566.92 199.667 1566.43 197.884 1565.94 196.1C1565.46 194.317 1564.97 192.533 1564.32 190.75L1559.3 192.371ZM1544.71 160.754L1542.92 167.726C1543.9 168.537 1544.87 169.348 1545.84 170.321C1546.81 171.293 1547.79 172.266 1548.76 173.401C1549.73 174.536 1550.54 175.671 1551.52 176.806C1552.33 178.103 1553.3 179.238 1554.11 180.697L1557.51 175.671C1556.54 174.212 1555.57 172.753 1554.6 171.293C1553.62 169.834 1552.49 168.537 1551.52 167.402C1550.38 166.105 1549.41 164.97 1548.27 163.835C1546.98 162.7 1545.84 161.727 1544.71 160.754ZM1518.93 154.593L1521.52 163.186C1522.5 162.862 1523.47 162.538 1524.6 162.214C1525.58 162.051 1526.71 161.889 1527.68 161.889C1528.82 161.889 1529.79 161.889 1530.93 162.214C1532.06 162.376 1533.03 162.7 1534.17 163.024L1533.36 154.593C1532.06 154.269 1530.93 153.945 1529.63 153.62C1528.33 153.458 1527.2 153.296 1525.9 153.296C1524.6 153.296 1523.47 153.458 1522.33 153.62C1521.36 153.782 1520.23 154.107 1518.93 154.593ZM1501.91 177.617L1507.91 182.643C1508.23 181.184 1508.55 179.887 1509.04 178.59C1509.53 177.292 1510.01 175.995 1510.5 174.86C1510.99 173.725 1511.64 172.59 1512.28 171.455C1512.93 170.321 1513.74 169.348 1514.55 168.375L1509.69 161.241C1508.72 162.214 1507.91 163.349 1507.1 164.646C1506.29 165.781 1505.64 167.078 1504.99 168.537C1504.34 169.834 1503.69 171.293 1503.2 172.915C1502.72 174.374 1502.23 175.995 1501.91 177.617ZM1510.5 215.395C1509.85 213.773 1509.37 211.99 1508.88 210.369C1508.39 208.747 1508.07 206.964 1507.74 205.342C1507.42 203.721 1507.26 201.937 1506.93 200.316C1506.77 198.695 1506.61 197.073 1506.61 195.452L1500.29 194.317C1500.29 196.263 1500.45 198.046 1500.77 199.992C1500.94 201.937 1501.26 203.883 1501.58 205.829C1501.91 207.774 1502.39 209.72 1502.88 211.666C1503.37 213.611 1504.02 215.557 1504.66 217.503L1510.5 215.395ZM1526.39 248.633L1528.33 240.85C1527.2 240.04 1526.23 239.229 1525.09 238.256C1523.96 237.283 1522.98 236.311 1522.01 235.176C1521.04 234.041 1520.07 232.906 1519.09 231.609C1518.12 230.312 1517.15 229.014 1516.34 227.555L1512.45 233.392C1513.42 235.014 1514.55 236.473 1515.69 237.932C1516.82 239.391 1517.96 240.688 1519.09 241.985C1520.23 243.283 1521.52 244.418 1522.66 245.552C1523.96 246.85 1525.09 247.822 1526.39 248.633ZM1543.09 241.985C1546.33 241.661 1549.41 240.364 1552 237.932C1554.6 235.5 1556.7 232.419 1558.16 228.69C1559.62 224.961 1560.43 220.745 1560.76 216.206C1561.08 211.666 1560.76 206.964 1559.78 202.1C1558.81 197.235 1557.35 192.371 1555.08 187.831C1552.98 183.129 1550.38 179.076 1547.46 175.833C1544.55 172.428 1541.46 169.834 1538.22 168.213C1534.98 166.429 1531.58 165.456 1528.5 165.456C1525.25 165.456 1522.01 166.429 1519.25 168.537C1516.34 170.645 1514.07 173.725 1512.45 177.292C1510.82 181.022 1509.69 185.399 1509.37 190.101C1508.88 194.803 1509.2 199.992 1510.18 205.018C1511.15 210.206 1512.77 215.395 1515.2 220.259C1517.63 225.123 1520.39 229.339 1523.47 232.744C1526.55 236.148 1529.95 238.581 1533.2 240.202C1536.6 241.661 1539.84 242.31 1543.09 241.985ZM1545.68 254.308C1546.81 254.146 1548.11 253.822 1549.25 253.497C1550.38 253.173 1551.52 252.687 1552.65 252.038L1550.06 243.445C1549.08 243.931 1548.11 244.418 1547.14 244.742C1546.17 245.066 1545.03 245.228 1544.06 245.39C1543.09 245.552 1541.95 245.552 1540.82 245.552C1539.68 245.552 1538.71 245.39 1537.57 245.066L1538.38 253.984C1539.68 254.308 1540.98 254.47 1542.11 254.47C1543.25 254.47 1544.38 254.47 1545.68 254.308ZM1529.14 267.117C1528.66 266.468 1528.17 265.982 1527.68 265.495C1527.2 265.171 1526.71 264.685 1526.06 264.198C1525.42 263.712 1524.77 263.225 1524.12 262.739C1523.47 262.253 1522.66 261.766 1522.01 261.118C1521.36 260.631 1520.55 259.983 1519.9 259.496C1519.25 258.848 1518.44 258.199 1517.47 257.389C1516.66 256.578 1515.69 255.767 1514.88 254.956C1514.07 254.146 1513.26 253.497 1512.77 252.849C1512.12 252.362 1511.8 251.876 1511.8 251.876C1511.31 251.552 1510.99 251.227 1510.5 251.065C1510.01 250.903 1509.69 250.741 1509.2 250.741C1508.72 250.741 1508.39 250.741 1507.91 250.903C1507.58 251.065 1507.1 251.227 1506.77 251.552C1506.45 251.552 1506.45 251.552 1506.29 251.714C1506.12 251.876 1506.12 251.876 1505.96 252.038C1505.8 252.2 1505.8 252.2 1505.8 252.362C1505.8 252.524 1505.64 252.687 1505.64 252.687L1500.94 262.577C1503.37 265.658 1505.8 268.738 1508.23 271.332C1514.88 278.304 1521.85 283.655 1528.98 287.222L1530.93 273.764C1531.09 272.954 1531.09 272.305 1530.93 271.495C1530.77 270.684 1530.6 269.873 1530.44 269.225C1529.95 268.414 1529.63 267.765 1529.14 267.117ZM1497.69 122.49C1493.48 125.084 1489.91 128.651 1486.67 133.029L1494.94 146.486C1495.26 147.135 1495.75 147.621 1496.23 148.108C1496.72 148.594 1497.21 148.918 1497.86 149.08C1498.34 149.243 1498.99 149.405 1499.48 149.405C1499.96 149.405 1500.45 149.243 1500.94 148.918C1501.26 148.594 1501.75 148.27 1502.23 147.783C1502.72 147.297 1503.2 146.973 1503.69 146.486C1504.18 146 1504.83 145.513 1505.31 145.189C1505.96 144.703 1506.45 144.378 1507.1 143.892C1507.58 143.568 1508.39 143.081 1509.2 142.595C1510.01 142.109 1510.82 141.784 1511.47 141.298C1512.12 140.974 1512.93 140.487 1513.42 140.325C1513.9 140.001 1514.23 139.839 1514.39 139.839C1514.88 139.514 1515.2 139.028 1515.53 138.541C1515.85 138.055 1516.01 137.407 1516.17 136.758C1516.34 136.109 1516.34 135.461 1516.34 134.65C1516.34 134.002 1516.17 133.191 1515.85 132.542L1510.66 117.788C1506.12 118.274 1501.75 119.896 1497.69 122.49ZM1549.89 233.392C1552.16 231.284 1553.95 228.528 1555.24 225.285C1556.54 222.042 1557.35 218.313 1557.51 214.422C1557.68 210.531 1557.51 206.315 1556.7 202.1C1555.89 197.884 1554.6 193.668 1552.65 189.615C1550.71 185.561 1548.44 181.994 1546 179.238C1543.57 176.32 1540.82 174.05 1537.9 172.59C1535.14 171.131 1532.22 170.321 1529.31 170.321C1526.55 170.321 1523.79 171.293 1521.36 173.077C1518.93 174.86 1516.82 177.617 1515.53 180.697C1514.07 183.94 1513.26 187.669 1512.93 191.723C1512.61 195.776 1512.77 200.154 1513.58 204.694C1514.39 209.071 1515.85 213.611 1517.8 217.989C1519.9 222.205 1522.33 225.934 1524.93 228.852C1527.52 231.771 1530.44 233.879 1533.36 235.338C1536.28 236.635 1539.2 237.283 1541.95 236.959C1545.03 236.635 1547.63 235.5 1549.89 233.392ZM1479.21 218.151L1488.29 216.854C1488.45 216.854 1488.61 216.854 1488.61 216.854C1488.78 216.854 1488.78 216.854 1488.94 216.692C1489.1 216.692 1489.1 216.53 1489.26 216.53C1489.42 216.53 1489.42 216.368 1489.59 216.368C1489.91 216.043 1490.24 215.719 1490.56 215.395C1490.88 214.908 1491.05 214.584 1491.21 213.936C1491.37 213.449 1491.53 212.801 1491.53 212.152C1491.53 211.504 1491.53 210.855 1491.53 210.206C1491.37 209.396 1491.37 208.585 1491.21 207.612C1491.05 206.639 1490.88 205.667 1490.72 204.532C1490.56 203.397 1490.4 202.262 1490.24 201.289C1490.07 200.154 1489.91 199.019 1489.91 197.884C1489.75 196.749 1489.75 195.452 1489.59 194.155C1489.42 192.696 1489.42 191.398 1489.26 189.939C1489.26 188.642 1489.1 187.345 1489.1 186.534C1489.1 185.561 1489.1 185.075 1489.1 184.913C1488.94 184.102 1488.78 183.129 1488.61 182.319C1488.29 181.508 1487.97 180.697 1487.64 180.049C1487.32 179.4 1486.83 178.752 1486.34 178.265C1485.86 177.779 1485.37 177.455 1484.72 177.292L1474.02 173.401C1473.38 183.616 1474.19 194.479 1476.29 205.504C1476.94 209.72 1478.08 213.936 1479.21 218.151ZM1527.04 125.57C1526.87 125.57 1526.87 125.57 1526.71 125.57C1526.55 125.57 1526.55 125.57 1526.39 125.57C1526.39 125.57 1526.23 125.57 1526.23 125.733C1526.06 125.895 1525.9 125.895 1525.9 126.057C1525.74 126.219 1525.74 126.381 1525.58 126.543C1525.58 126.705 1525.42 127.03 1525.42 127.192C1525.42 127.516 1525.42 127.678 1525.42 128.003C1525.42 128.489 1525.58 128.813 1525.74 129.3C1525.9 129.624 1526.06 130.11 1526.23 130.435C1526.39 130.759 1526.71 131.083 1527.04 131.245C1527.36 131.407 1527.52 131.57 1527.85 131.732C1528.01 131.732 1528.01 131.732 1528.17 131.732C1528.33 131.732 1528.33 131.732 1528.5 131.732C1528.66 131.732 1528.66 131.732 1528.82 131.732C1528.82 131.732 1528.98 131.732 1528.98 131.57C1529.14 131.407 1529.31 131.407 1529.31 131.245C1529.31 131.083 1529.47 130.921 1529.63 130.759C1529.63 130.597 1529.79 130.272 1529.79 130.11C1529.79 129.786 1529.79 129.624 1529.79 129.3C1529.79 128.813 1529.63 128.489 1529.47 128.003C1529.31 127.516 1529.14 127.192 1528.98 126.868C1528.82 126.543 1528.5 126.219 1528.17 126.057C1527.85 125.895 1527.68 125.733 1527.36 125.57C1527.36 125.57 1527.2 125.57 1527.04 125.57Z" fill="url(#paint16_linear_90_655)"/>
<path d="M1479.21 217.988L1456.03 225.285C1455.86 224.798 1455.7 224.15 1455.54 223.663C1455.54 223.501 1455.38 223.339 1455.38 223.015C1455.05 222.042 1454.89 221.069 1454.57 220.096C1454.57 219.934 1454.57 219.772 1454.4 219.772C1454.08 218.799 1453.92 217.664 1453.76 216.691C1453.76 216.529 1453.76 216.529 1453.76 216.367C1453.76 216.205 1453.76 216.043 1453.76 216.043C1453.59 215.07 1453.27 214.097 1453.11 212.962C1453.11 212.962 1453.11 212.962 1453.11 212.8C1452.95 211.827 1452.78 210.692 1452.62 209.719C1452.62 209.557 1452.62 209.233 1452.46 209.071C1452.3 208.098 1452.13 206.963 1451.97 205.99C1451.97 205.828 1451.97 205.828 1451.97 205.666C1451.81 204.693 1451.81 203.72 1451.65 202.747C1451.65 202.585 1451.65 202.585 1451.65 202.423V202.261C1451.49 201.288 1451.49 200.153 1451.32 199.18C1451.32 199.018 1451.32 198.856 1451.32 198.694C1451.32 197.721 1451.16 196.91 1451.16 195.938C1451.16 195.775 1451.16 195.613 1451.16 195.451C1451.16 194.478 1451 193.506 1451 192.533C1451 192.371 1451 192.208 1451 191.884C1451 190.911 1451 190.101 1451 189.128V188.966C1451 188.966 1451 188.966 1451 188.803C1451 188.479 1451 187.993 1451 187.669C1451 187.344 1451 187.02 1451 186.696C1451 186.371 1451 186.047 1451 185.723C1451 185.399 1451 185.074 1451 184.75C1451 184.426 1451 184.102 1451 183.777C1451 183.453 1451 183.129 1451 182.642L1474.02 173.725C1474.02 174.049 1474.02 174.373 1474.02 174.698C1474.02 175.022 1474.02 175.346 1474.02 175.832C1474.02 176.157 1474.02 176.481 1474.02 176.805C1474.02 177.13 1474.02 177.454 1474.02 177.94C1474.02 178.265 1474.02 178.589 1474.02 179.075C1474.02 179.4 1474.02 179.724 1474.02 180.048C1474.02 180.372 1474.02 180.859 1474.02 181.183C1474.02 181.345 1474.02 181.345 1474.02 181.507C1474.02 182.48 1474.02 183.453 1474.02 184.426C1474.02 184.588 1474.02 184.75 1474.02 185.074C1474.02 186.047 1474.18 187.182 1474.18 188.155C1474.18 188.317 1474.18 188.479 1474.18 188.641C1474.18 189.614 1474.34 190.587 1474.34 191.398C1474.34 191.56 1474.34 191.722 1474.34 191.884C1474.51 192.857 1474.51 193.992 1474.67 194.965C1474.67 195.127 1474.67 195.451 1474.67 195.613C1474.83 196.586 1474.83 197.559 1474.99 198.532C1474.99 198.694 1474.99 198.694 1474.99 198.856C1475.16 199.829 1475.32 200.964 1475.48 201.937C1475.48 202.099 1475.48 202.423 1475.64 202.585C1475.8 203.558 1475.97 204.693 1476.13 205.828C1476.13 205.828 1476.13 205.828 1476.13 205.99C1476.29 206.963 1476.61 208.098 1476.78 209.071C1476.78 209.233 1476.94 209.557 1476.94 209.719C1477.1 210.692 1477.43 211.827 1477.75 212.8C1477.75 212.962 1477.75 213.124 1477.91 213.124C1478.07 214.097 1478.4 215.07 1478.72 216.043C1478.72 216.205 1478.88 216.367 1478.88 216.691C1478.88 217.015 1479.05 217.502 1479.21 217.988ZM1487.8 131.569C1487.8 131.407 1487.96 131.407 1487.96 131.245C1488.29 130.92 1488.45 130.596 1488.77 130.272C1488.94 130.11 1488.94 129.947 1489.1 129.785C1489.26 129.461 1489.58 129.299 1489.75 128.975C1489.91 128.812 1490.07 128.65 1490.23 128.488C1490.39 128.164 1490.72 128.002 1490.88 127.84C1491.04 127.678 1491.21 127.515 1491.37 127.353C1491.53 127.191 1491.85 126.867 1492.02 126.705C1492.18 126.543 1492.34 126.38 1492.5 126.218C1492.66 126.056 1492.99 125.732 1493.15 125.57C1493.31 125.408 1493.47 125.245 1493.64 125.083C1493.96 124.921 1494.12 124.597 1494.45 124.435C1494.61 124.273 1494.77 124.111 1494.93 124.111C1495.26 123.948 1495.58 123.624 1495.74 123.462C1495.91 123.3 1496.07 123.3 1496.23 123.138C1496.72 122.813 1497.04 122.489 1497.53 122.327C1498.01 122.003 1498.5 121.678 1498.99 121.354C1499.47 121.03 1499.96 120.868 1500.61 120.543C1501.09 120.219 1501.58 120.057 1502.23 119.733C1502.72 119.571 1503.2 119.246 1503.85 119.084L1481.64 127.515C1480.99 128.002 1480.51 128.326 1480.02 128.488C1479.53 128.65 1478.88 128.975 1478.4 129.299C1477.91 129.623 1477.43 129.785 1476.78 130.11C1476.29 130.434 1475.8 130.758 1475.16 131.082C1474.67 131.407 1474.35 131.731 1473.86 131.893C1473.7 132.055 1473.53 132.055 1473.37 132.217C1473.05 132.38 1472.72 132.704 1472.56 132.866C1472.56 132.866 1472.4 132.866 1472.4 133.028C1472.24 133.19 1472.24 133.19 1472.08 133.352C1471.91 133.352 1471.75 133.514 1471.43 133.839C1471.26 134.001 1471.1 134.163 1470.94 134.325C1470.62 134.487 1470.45 134.812 1470.13 134.974L1469.97 135.136C1469.81 135.136 1469.81 135.298 1469.64 135.46C1469.48 135.622 1469.16 135.947 1469 136.109C1468.83 136.271 1468.67 136.433 1468.51 136.595C1468.35 136.757 1468.02 137.082 1467.86 137.244C1467.7 137.406 1467.7 137.406 1467.54 137.568L1467.37 137.73C1467.05 138.054 1466.89 138.216 1466.56 138.541C1466.4 138.703 1466.24 138.865 1466.24 139.027C1465.91 139.351 1465.75 139.676 1465.43 140C1465.43 140.162 1465.27 140.162 1465.27 140.324C1464.78 140.649 1464.29 141.135 1463.81 141.784C1463.65 141.946 1463.65 142.108 1463.48 142.108C1463 142.756 1462.67 143.405 1462.19 143.891C1462.19 143.891 1462.19 143.891 1462.19 144.053C1462.19 144.216 1462.02 144.216 1462.02 144.378L1486.67 132.866C1486.99 132.542 1487.31 132.055 1487.8 131.569ZM1527.68 286.573C1527.36 286.41 1527.03 286.248 1526.55 285.924C1526.22 285.762 1525.74 285.438 1525.41 285.276C1525.09 285.113 1524.76 284.789 1524.28 284.627C1523.95 284.465 1523.47 284.141 1523.14 283.978C1522.82 283.816 1522.49 283.492 1522.17 283.33C1521.85 283.006 1521.36 282.843 1521.04 282.519C1520.71 282.195 1520.22 282.033 1519.9 281.708C1519.58 281.384 1519.09 281.222 1518.77 280.898C1518.44 280.574 1517.95 280.249 1517.63 280.087C1517.31 279.763 1516.98 279.439 1516.5 279.276C1516.17 278.952 1515.69 278.628 1515.36 278.304C1515.04 277.979 1514.71 277.655 1514.23 277.331C1513.9 277.006 1513.42 276.682 1513.09 276.358C1512.93 276.034 1512.44 275.709 1512.12 275.385C1511.79 275.061 1511.31 274.574 1510.98 274.25C1510.66 273.926 1510.34 273.602 1510.01 273.277C1509.69 272.953 1509.2 272.467 1508.88 272.142C1508.55 271.818 1508.23 271.494 1507.9 271.007C1507.58 270.521 1507.09 270.197 1506.77 269.71C1506.44 269.386 1506.12 268.9 1505.8 268.575C1505.47 268.089 1504.99 267.765 1504.66 267.278C1504.34 266.954 1504.01 266.468 1503.69 266.143C1503.36 265.657 1502.88 265.17 1502.55 264.684C1502.23 264.198 1501.91 263.873 1501.58 263.387C1501.42 263.063 1501.09 262.738 1500.93 262.414L1479.05 270.683C1479.37 271.007 1479.53 271.332 1479.86 271.656C1480.02 271.818 1480.02 271.98 1480.18 271.98C1480.34 272.142 1480.34 272.304 1480.51 272.304C1480.67 272.629 1480.99 272.791 1481.15 273.115C1481.48 273.602 1481.96 273.926 1482.29 274.412C1482.61 274.737 1482.94 275.223 1483.26 275.547C1483.59 276.034 1484.07 276.358 1484.4 276.682C1484.56 276.844 1484.72 277.006 1484.72 277.006C1484.88 277.169 1485.21 277.493 1485.37 277.655C1485.69 277.979 1486.18 278.466 1486.5 278.79C1486.83 279.114 1487.15 279.439 1487.48 279.763C1487.8 280.087 1488.29 280.411 1488.61 280.898C1488.77 281.06 1488.94 281.222 1489.1 281.222C1489.26 281.384 1489.58 281.546 1489.75 281.708C1490.07 282.033 1490.56 282.357 1490.88 282.681C1491.21 283.006 1491.53 283.33 1492.02 283.492C1492.34 283.816 1492.83 284.141 1493.15 284.465C1493.31 284.627 1493.47 284.789 1493.64 284.789C1493.8 284.951 1493.96 285.113 1494.29 285.276C1494.61 285.6 1495.1 285.924 1495.42 286.086C1495.74 286.41 1496.23 286.573 1496.56 286.897C1496.72 287.059 1496.88 287.221 1497.2 287.383C1497.37 287.545 1497.53 287.708 1497.85 287.708C1498.01 287.87 1498.18 288.032 1498.34 288.032C1498.5 288.194 1498.66 288.194 1498.99 288.356C1499.31 288.518 1499.64 288.843 1500.12 289.005C1500.45 289.167 1500.93 289.491 1501.26 289.653C1501.58 289.815 1501.91 290.14 1502.39 290.302C1502.72 290.464 1503.2 290.788 1503.53 290.95C1503.85 291.112 1504.17 291.275 1504.66 291.437C1504.99 291.599 1505.47 291.761 1505.8 291.923C1506.12 292.085 1506.44 292.247 1506.93 292.41C1507.09 292.41 1507.26 292.572 1507.42 292.572C1507.58 292.734 1507.9 292.734 1508.07 292.896C1508.39 293.058 1508.71 293.22 1509.2 293.382L1529.47 286.573C1528.49 287.059 1528.01 286.897 1527.68 286.573Z" fill="url(#paint17_linear_90_655)"/>
<path opacity="0.62" d="M1573.56 279.276C1568.05 284.789 1561.57 288.031 1554.59 289.166C1547.62 290.301 1540 289.004 1532.55 285.761C1524.93 282.356 1517.31 276.844 1510.17 269.223C1502.88 261.603 1496.23 251.875 1490.72 240.363C1485.05 228.851 1481.16 216.691 1478.89 204.692C1476.62 192.694 1475.97 181.02 1476.94 170.157C1477.91 159.294 1480.34 149.566 1484.24 141.459C1488.13 133.514 1493.31 127.191 1499.96 122.975C1506.45 118.922 1513.42 117.3 1520.55 117.787C1523.63 117.949 1526.71 118.597 1529.79 119.57C1526.06 118.273 1522.33 117.462 1518.77 117.138C1511.47 116.489 1504.34 118.111 1497.69 122.326C1491.04 126.542 1485.69 133.028 1481.8 141.134C1477.75 149.403 1475.32 159.294 1474.35 170.157C1473.37 181.182 1474.02 193.181 1476.29 205.341C1478.56 217.663 1482.61 229.986 1488.29 241.66C1493.96 253.334 1500.77 263.224 1508.07 271.007C1515.36 278.789 1523.14 284.464 1530.93 287.869C1538.55 291.274 1546.16 292.409 1553.3 291.274C1560.27 290.139 1566.92 286.896 1572.59 281.222C1578.1 275.709 1582.32 268.413 1585.24 259.981C1585.4 259.657 1585.56 259.171 1585.56 258.847C1582.8 267.116 1578.91 273.925 1573.56 279.276Z" fill="#C6C6C6"/>
<path opacity="0.6" d="M1570.8 192.37C1574.04 183.128 1575.02 173.562 1574.21 164.32C1570.15 156.376 1565.45 149.242 1560.43 143.242C1554.27 135.622 1547.3 129.461 1540.32 125.083C1533.19 120.543 1525.9 117.949 1518.6 117.3C1511.3 116.652 1504.17 118.273 1497.52 122.489C1490.88 126.704 1485.53 133.19 1481.64 141.297C1477.58 149.566 1475.15 159.456 1474.18 170.319C1473.21 181.345 1473.86 193.343 1476.13 205.503C1477.91 215.232 1480.83 224.96 1484.88 234.364C1520.22 246.524 1558.64 227.716 1570.8 192.37Z" fill="url(#paint18_linear_90_655)"/>
<g opacity="0.6">
<path opacity="0.6" d="M1484.56 233.714C1484.23 232.742 1483.75 231.607 1483.42 230.634V230.472C1483.1 229.499 1482.61 228.364 1482.29 227.391C1482.29 227.229 1482.13 227.067 1482.13 226.743C1481.8 225.608 1481.32 224.635 1480.99 223.5C1480.99 223.338 1480.83 223.175 1480.83 223.013C1480.51 222.203 1480.18 221.23 1479.86 220.257C1479.86 220.095 1479.69 219.933 1479.69 219.771C1479.37 218.636 1479.05 217.663 1478.72 216.528C1478.72 216.366 1478.56 216.204 1478.56 215.879C1478.24 214.906 1478.07 213.934 1477.75 212.961C1477.75 212.799 1477.75 212.637 1477.59 212.637C1477.26 211.664 1477.1 210.529 1476.78 209.556C1476.78 209.394 1476.61 209.069 1476.61 208.907C1476.45 207.935 1476.13 206.8 1475.97 205.827C1475.97 205.827 1475.97 205.827 1475.97 205.665C1475.8 204.53 1475.64 203.557 1475.48 202.422C1475.48 202.26 1475.48 201.935 1475.32 201.773C1475.16 200.8 1474.99 199.665 1474.83 198.693C1474.83 198.531 1474.83 198.531 1474.83 198.368C1474.67 197.396 1474.51 196.423 1474.51 195.45C1474.51 195.288 1474.51 194.963 1474.51 194.801C1474.35 193.829 1474.35 192.694 1474.18 191.721C1474.18 191.559 1474.18 191.396 1474.18 191.234C1474.18 190.261 1474.02 189.289 1474.02 188.478C1474.02 188.316 1474.02 188.154 1474.02 187.992C1474.02 187.019 1473.86 185.884 1473.86 184.911C1473.86 184.749 1473.86 184.587 1473.86 184.262C1473.86 183.29 1473.86 182.317 1473.86 181.344C1473.86 181.182 1473.86 181.182 1473.86 181.02C1473.86 180.695 1473.86 180.209 1473.86 179.885C1473.86 179.56 1473.86 179.236 1473.86 178.912C1473.86 178.588 1473.86 178.263 1473.86 177.777C1473.86 177.453 1473.86 177.128 1473.86 176.642C1473.86 176.318 1473.86 175.993 1473.86 175.669C1473.86 175.345 1473.86 175.021 1473.86 174.534C1473.86 174.21 1473.86 173.886 1473.86 173.561C1473.86 173.237 1473.86 172.751 1473.86 172.426C1473.86 172.102 1473.86 171.778 1473.86 171.454C1473.86 171.129 1473.86 170.643 1474.02 170.319C1474.02 169.994 1474.02 169.67 1474.18 169.346C1474.18 169.021 1474.18 168.697 1474.34 168.373C1474.34 168.049 1474.35 167.724 1474.51 167.4C1474.51 167.076 1474.51 166.752 1474.67 166.427C1474.67 166.103 1474.83 165.779 1474.83 165.454C1474.83 165.13 1474.99 164.806 1474.99 164.482C1474.99 164.157 1475.16 163.833 1475.16 163.509C1475.16 163.184 1475.32 162.86 1475.32 162.536C1475.32 162.212 1475.48 161.887 1475.48 161.563C1475.48 161.239 1475.64 160.915 1475.64 160.59C1475.64 160.266 1475.8 159.942 1475.8 159.617C1475.8 159.293 1475.97 158.969 1475.97 158.645C1475.97 158.32 1476.13 157.996 1476.13 157.672C1476.13 157.348 1476.29 157.023 1476.29 156.861C1476.29 156.537 1476.45 156.213 1476.45 155.888C1476.45 155.564 1476.61 155.24 1476.61 155.078C1476.61 154.753 1476.78 154.429 1476.78 154.105C1476.78 153.78 1476.94 153.618 1476.94 153.294C1477.1 152.97 1477.1 152.646 1477.26 152.321C1477.43 151.997 1477.43 151.835 1477.59 151.511C1477.75 151.186 1477.75 150.862 1477.91 150.538C1477.91 150.376 1478.07 150.051 1478.07 149.889C1478.4 149.078 1478.56 148.268 1478.88 147.457C1478.88 147.457 1478.88 147.457 1478.88 147.295C1479.21 146.484 1479.53 145.836 1479.69 145.025C1479.69 144.863 1479.86 144.701 1479.86 144.539C1480.18 143.728 1480.51 143.079 1480.83 142.269C1480.83 142.107 1480.99 142.107 1480.99 141.944C1481.32 141.296 1481.64 140.647 1481.96 139.999C1481.96 139.837 1482.13 139.674 1482.13 139.674C1482.45 139.026 1482.78 138.377 1483.26 137.729C1483.26 137.567 1483.42 137.405 1483.42 137.242C1483.75 136.594 1484.23 135.945 1484.56 135.459C1484.56 135.459 1484.56 135.297 1484.72 135.297C1485.21 134.648 1485.53 134 1486.02 133.351C1486.18 133.189 1486.18 133.027 1486.34 133.027C1486.83 132.378 1487.15 131.892 1487.64 131.243C1487.64 131.081 1487.8 131.081 1487.8 130.919C1488.13 130.595 1488.29 130.27 1488.61 129.946C1488.77 129.784 1488.77 129.622 1488.94 129.46C1489.1 129.136 1489.42 128.973 1489.58 128.649C1489.75 128.487 1489.91 128.325 1490.07 128.163C1490.23 127.838 1490.56 127.676 1490.72 127.514C1490.88 127.352 1491.04 127.19 1491.21 127.028C1491.37 126.866 1491.69 126.541 1491.85 126.379C1492.02 126.217 1492.18 126.055 1492.34 125.893C1492.5 125.731 1492.83 125.406 1492.99 125.244C1493.15 125.082 1493.31 124.92 1493.47 124.758C1493.8 124.596 1493.96 124.271 1494.29 124.109C1494.45 123.947 1494.61 123.785 1494.77 123.785C1495.1 123.623 1495.42 123.299 1495.58 123.136C1495.74 122.974 1495.91 122.974 1496.07 122.812C1496.56 122.488 1496.88 122.164 1497.37 122.001L1474.99 130.595C1474.51 130.919 1474.18 131.243 1473.7 131.405C1473.53 131.568 1473.37 131.568 1473.21 131.73C1472.89 131.892 1472.56 132.216 1472.4 132.378C1472.4 132.378 1472.24 132.378 1472.24 132.54C1472.08 132.703 1472.08 132.703 1471.91 132.865C1471.91 133.351 1471.75 133.513 1471.43 133.838C1471.26 134 1471.1 134.162 1470.94 134.324C1470.62 134.486 1470.45 134.81 1470.13 134.972L1469.97 135.135C1469.81 135.135 1469.81 135.297 1469.64 135.459C1469.48 135.621 1469.16 135.945 1469 136.107C1468.83 136.27 1468.67 136.432 1468.51 136.594C1468.35 136.756 1468.02 137.08 1467.86 137.242C1467.7 137.405 1467.7 137.405 1467.54 137.567L1467.37 137.729C1467.05 138.053 1466.89 138.215 1466.56 138.54C1466.4 138.702 1466.24 138.864 1466.24 139.026C1465.91 139.35 1465.75 139.674 1465.43 139.999C1465.43 140.161 1465.27 140.161 1465.27 140.323C1464.78 140.647 1464.29 141.134 1463.81 141.782C1463.65 141.944 1463.65 142.107 1463.48 142.107C1463 142.755 1462.67 143.404 1462.19 143.89C1462.19 143.89 1462.19 143.89 1462.19 144.052C1461.86 144.701 1461.38 145.187 1461.05 145.836C1461.05 145.998 1460.89 146.16 1460.89 146.322C1460.56 146.971 1460.08 147.619 1459.75 148.268V148.43C1459.75 148.592 1459.59 148.592 1459.59 148.754C1459.43 149.078 1459.27 149.403 1459.11 149.565C1458.94 149.889 1458.78 150.213 1458.62 150.538C1458.62 150.7 1458.46 150.7 1458.46 150.862C1458.13 151.511 1457.81 152.321 1457.48 152.97C1457.48 152.97 1457.48 153.132 1457.32 153.132C1457.32 153.294 1457.32 153.294 1457.16 153.456C1456.84 154.267 1456.51 154.915 1456.35 155.726C1456.35 155.726 1456.35 155.726 1456.35 155.888C1456.03 156.699 1455.7 157.51 1455.54 158.32C1455.54 158.482 1455.54 158.482 1455.38 158.645C1455.38 158.807 1455.22 158.969 1455.22 158.969C1455.05 159.293 1455.05 159.617 1454.89 159.78C1454.73 160.104 1454.73 160.266 1454.57 160.59C1454.4 160.915 1454.4 161.239 1454.24 161.563C1454.08 161.887 1454.08 162.05 1454.08 162.374C1453.92 162.698 1453.92 163.022 1453.76 163.347C1453.76 163.671 1453.59 163.833 1453.59 164.157C1453.43 164.482 1453.43 164.806 1453.43 165.13C1453.43 165.292 1453.43 165.292 1453.27 165.454C1453.27 165.617 1453.27 165.779 1453.11 165.941C1453.11 166.265 1452.95 166.589 1452.95 166.914C1452.95 167.238 1452.78 167.562 1452.78 167.724C1452.78 168.049 1452.62 168.373 1452.62 168.697C1452.62 169.021 1452.46 169.346 1452.46 169.67C1452.46 169.994 1452.3 170.319 1452.3 170.643C1452.3 170.967 1452.13 171.291 1452.13 171.616C1452.13 171.94 1451.97 172.264 1451.97 172.588C1451.97 172.751 1451.97 172.751 1451.97 172.913C1451.97 173.075 1451.97 173.399 1451.81 173.561C1451.81 173.886 1451.65 174.21 1451.65 174.534C1451.65 174.858 1451.49 175.183 1451.49 175.507C1451.49 175.831 1451.49 176.156 1451.32 176.48C1451.32 176.804 1451.32 177.128 1451.16 177.453C1451.16 177.615 1451.16 177.939 1451.16 178.101C1451.16 178.263 1451.16 178.263 1451.16 178.425C1451.16 178.75 1451.16 179.074 1451 179.56C1451 179.885 1451 180.209 1451 180.533V180.695C1451 181.02 1451 181.182 1451 181.506C1451 181.83 1451 182.155 1451 182.479C1451 182.803 1451 183.127 1451 183.614C1451 183.938 1451 184.262 1451 184.587C1451 184.911 1451 185.235 1451 185.56C1451 185.884 1451 186.208 1451 186.532C1451 186.857 1451 187.181 1451 187.505C1451 187.829 1451 188.316 1451 188.64C1451 188.64 1451 188.64 1451 188.802V188.964C1451 189.937 1451 190.748 1451 191.721C1451 191.883 1451 192.045 1451 192.369C1451 193.342 1451 194.315 1451.16 195.288C1451.16 195.45 1451.16 195.612 1451.16 195.774C1451.16 196.747 1451.32 197.558 1451.32 198.531C1451.32 198.693 1451.32 198.855 1451.32 199.017C1451.49 199.99 1451.49 201.125 1451.65 202.098V202.26C1451.65 202.422 1451.65 202.422 1451.65 202.584C1451.81 203.557 1451.81 204.53 1451.97 205.502C1451.97 205.665 1451.97 205.665 1451.97 205.827C1452.13 206.8 1452.3 207.935 1452.46 208.907C1452.46 209.069 1452.46 209.394 1452.62 209.556C1452.78 210.529 1452.95 211.664 1453.11 212.637C1453.11 212.637 1453.11 212.637 1453.11 212.799C1453.27 213.771 1453.43 214.744 1453.76 215.879C1453.76 216.041 1453.76 216.204 1453.76 216.204C1453.76 216.366 1453.76 216.366 1453.76 216.528C1453.92 217.501 1454.24 218.636 1454.4 219.608C1454.4 219.771 1454.4 219.933 1454.57 219.933C1454.73 220.906 1455.05 221.878 1455.38 222.851C1455.38 223.013 1455.54 223.175 1455.54 223.5C1455.86 224.473 1456.19 225.608 1456.35 226.58C1456.35 226.743 1456.51 226.905 1456.51 227.067C1456.84 228.04 1457.16 229.012 1457.48 229.985C1457.48 230.147 1457.48 230.147 1457.65 230.31C1457.65 230.31 1457.65 230.31 1457.65 230.472C1457.97 231.445 1458.3 232.579 1458.78 233.552C1458.78 233.714 1458.94 233.877 1458.94 234.201C1459.27 235.174 1459.59 236.147 1460.08 237.119V237.281C1460.4 238.254 1460.89 239.389 1461.38 240.362V240.524L1484.56 233.714C1484.72 233.877 1484.72 233.877 1484.56 233.714Z" fill="url(#paint19_linear_90_655)"/>
</g>
<path d="M2043.36 217.038C2044.33 217.038 2045.14 217.362 2045.95 217.687C2046.76 218.011 2047.25 218.497 2047.73 218.984C2048.22 219.47 2048.54 220.119 2048.71 220.93C2048.87 221.578 2048.87 222.389 2048.54 223.199L1938.47 552.501C1938.14 553.636 1937.49 554.771 1936.68 555.582C1935.87 556.555 1935.06 557.203 1934.09 557.69C1933.12 558.176 1931.98 558.501 1930.85 558.663C1929.71 558.825 1928.58 558.663 1927.44 558.338L1718.31 489.106C1717.5 488.781 1716.85 488.457 1716.36 487.808C1715.88 487.16 1715.55 486.511 1715.23 485.701C1715.07 484.89 1714.91 484.079 1715.07 483.106C1715.23 482.134 1715.39 481.323 1715.88 480.35L1847.68 208.445C1848 207.796 1848.49 207.148 1848.98 206.661C1849.46 206.175 1850.11 205.689 1850.76 205.202C1851.41 204.878 1852.22 204.554 1852.87 204.229C1853.68 204.067 1854.33 203.905 1855.14 204.067L2043.36 217.038Z" fill="url(#paint20_linear_90_655)"/>
<path d="M1902.96 306.215C1902.8 306.863 1902.15 307.512 1901.34 308.323C1900.53 309.133 1899.55 309.944 1898.58 310.755C1897.61 311.565 1896.47 312.376 1895.5 313.025C1894.53 313.673 1893.56 314.322 1892.75 314.808C1889.34 316.754 1885.77 318.537 1882.21 320.159C1878.64 321.78 1875.07 323.564 1871.51 325.185C1867.94 326.968 1864.54 328.752 1861.13 330.698C1857.73 332.643 1854.32 334.913 1851.08 337.507C1849.3 338.967 1847.51 340.588 1845.89 342.209C1844.27 343.993 1842.65 345.776 1841.35 347.722C1840.06 349.668 1838.92 351.776 1837.95 353.883C1837.14 355.991 1836.49 358.099 1836.17 360.369C1835.84 362.963 1835.84 365.233 1836.17 367.179C1836.49 369.124 1837.14 370.908 1838.11 372.367C1839.08 373.826 1840.22 374.961 1841.68 375.772C1843.14 376.745 1844.76 377.231 1846.54 377.718C1848.81 378.204 1851.41 378.204 1854.16 377.88C1856.92 377.556 1859.67 376.745 1862.43 375.61C1865.19 374.475 1867.94 373.016 1870.54 371.232C1873.13 369.449 1875.56 367.341 1877.51 364.909C1874.75 369.611 1871.67 373.502 1868.75 377.069C1865.67 380.474 1862.75 383.392 1860.16 385.662C1857.57 387.932 1855.3 389.716 1853.68 390.851C1852.05 391.986 1851.08 392.634 1851.08 392.634L1880.91 399.12C1880.91 399.12 1880.59 398.309 1879.94 396.526C1879.45 394.904 1878.8 392.472 1878.32 389.554C1877.83 386.635 1877.51 382.906 1877.67 378.853C1877.83 374.799 1878.32 370.259 1879.45 365.233C1879.29 367.989 1879.78 370.746 1880.59 373.178C1881.4 375.61 1882.69 378.042 1884.15 379.988C1885.77 381.933 1887.56 383.717 1889.67 385.176C1891.77 386.473 1894.2 387.608 1896.64 388.094C1898.58 388.419 1900.69 388.581 1902.64 388.419C1904.74 388.257 1906.85 387.77 1908.96 386.797C1911.07 385.987 1913.17 384.69 1915.12 383.068C1917.06 381.447 1919.01 379.501 1920.95 376.907C1922.58 374.799 1923.71 372.691 1924.68 370.421C1925.66 368.152 1926.14 365.882 1926.63 363.612C1926.95 361.342 1927.11 359.072 1926.95 356.964C1926.79 354.856 1926.47 352.748 1925.82 350.803C1924.85 347.236 1923.39 344.155 1921.76 341.074C1920.14 338.156 1918.36 335.4 1916.42 332.643C1914.47 330.049 1912.52 327.455 1910.58 324.699C1908.63 322.104 1906.85 319.51 1905.39 316.754C1905.07 316.105 1904.58 315.295 1904.26 314.322C1903.93 313.349 1903.61 312.376 1903.28 311.403C1902.96 310.43 1902.8 309.458 1902.8 308.485C1902.63 307.674 1902.8 306.863 1902.96 306.215Z" fill="black"/>
<path d="M1856.59 230.172L1863.73 222.065L1862.92 230.658L1856.59 230.172ZM1871.02 216.552L1868.1 216.39L1848.97 237.468L1847.35 237.306L1847.03 237.954L1852.38 238.441L1852.7 237.792L1850.11 237.468L1856.11 230.82L1863.08 231.469L1862.43 238.765L1860 238.603L1859.67 239.251L1871.35 240.386L1871.67 239.738L1870.05 239.576L1871.02 216.552Z" fill="black"/>
<path d="M1856.43 243.63C1856.27 243.792 1856.11 244.116 1855.94 244.278C1855.62 244.603 1855.3 244.765 1854.97 245.089C1854.65 245.413 1854.32 245.576 1853.84 245.9C1853.51 246.062 1853.19 246.386 1852.86 246.548C1851.73 247.197 1850.43 247.845 1849.3 248.494C1848.16 249.143 1846.87 249.629 1845.73 250.278C1844.6 250.926 1843.3 251.412 1842.16 252.223C1841.03 252.872 1839.89 253.682 1838.76 254.493C1838.11 254.979 1837.62 255.466 1836.98 256.114C1836.49 256.601 1835.84 257.249 1835.52 257.898C1835.03 258.546 1834.71 259.195 1834.38 259.844C1834.06 260.492 1833.9 261.141 1833.73 261.789C1833.57 262.6 1833.57 263.249 1833.73 263.897C1833.9 264.546 1834.06 265.032 1834.38 265.356C1834.71 265.681 1835.03 266.005 1835.52 266.329C1836 266.491 1836.49 266.653 1837.14 266.816C1837.95 266.978 1838.76 266.816 1839.57 266.653C1840.38 266.491 1841.35 266.167 1842.33 265.843C1843.3 265.518 1844.11 265.032 1844.92 264.383C1845.73 263.735 1846.54 263.086 1847.19 262.276C1846.22 263.735 1845.24 265.032 1844.27 266.005C1843.3 267.14 1842.33 267.951 1841.35 268.761C1840.54 269.572 1839.73 270.058 1839.25 270.383C1838.76 270.707 1838.44 270.869 1838.44 270.869L1848 272.004C1848 272.004 1847.84 271.68 1847.68 271.355C1847.51 270.869 1847.35 270.22 1847.19 269.41C1847.03 268.599 1847.03 267.464 1847.03 266.329C1847.03 265.194 1847.35 263.735 1847.68 262.276C1847.68 263.086 1847.68 263.897 1848 264.708C1848.16 265.356 1848.65 266.005 1849.14 266.653C1849.62 267.14 1850.27 267.626 1850.92 267.951C1851.57 268.275 1852.38 268.599 1853.03 268.599C1853.67 268.599 1854.32 268.599 1854.97 268.599C1855.62 268.437 1856.27 268.275 1856.92 267.951C1857.57 267.626 1858.21 267.302 1858.86 266.816C1859.51 266.329 1860.16 265.681 1860.81 264.87C1861.29 264.221 1861.78 263.573 1862.1 262.924C1862.43 262.276 1862.59 261.627 1862.75 260.816C1862.92 260.168 1862.92 259.519 1862.92 258.871C1862.92 258.222 1862.75 257.574 1862.75 257.087C1862.43 256.114 1862.1 255.142 1861.62 254.331C1861.13 253.52 1860.65 252.71 1860 251.899C1859.51 251.088 1858.86 250.278 1858.21 249.629C1857.73 248.818 1857.08 248.008 1856.59 247.197C1856.43 247.035 1856.43 246.711 1856.27 246.548C1856.11 246.224 1856.11 245.9 1855.94 245.576C1855.94 245.251 1855.78 244.927 1855.78 244.603C1856.27 243.954 1856.43 243.792 1856.43 243.63Z" fill="black"/>
<path d="M1913.5 522.019L1914.15 507.265L1922.9 509.859L1913.5 522.019ZM1935.55 498.996L1928.09 496.888L1927.76 497.861L1931.49 498.833L1923.87 508.724L1914.15 505.805L1914.63 493.807L1918.04 494.78L1918.36 493.807L1902.8 489.429L1902.47 490.402L1904.58 491.051L1903.93 529.64L1907.98 530.937L1933.11 499.158L1935.38 499.806L1935.55 498.996Z" fill="black"/>
<path d="M1942.84 448.409L1930.2 445.328C1930.2 445.328 1930.36 445.653 1930.68 446.301C1931.01 446.95 1931.17 447.923 1931.49 449.22C1931.82 450.517 1931.98 451.976 1931.98 453.76C1931.98 455.543 1931.82 457.489 1931.49 459.759C1931.49 458.462 1931.33 457.327 1930.84 456.192C1930.52 455.057 1929.87 454.084 1929.22 453.111C1928.58 452.138 1927.76 451.49 1926.79 450.841C1925.98 450.193 1925.01 449.706 1923.87 449.544C1923.06 449.382 1922.25 449.22 1921.44 449.382C1920.63 449.382 1919.82 449.544 1919.01 449.868C1918.2 450.192 1917.39 450.679 1916.58 451.327C1915.77 451.976 1914.96 452.787 1914.31 453.76C1913.66 454.57 1913.17 455.543 1912.85 456.516C1912.53 457.489 1912.2 458.462 1912.04 459.434C1911.88 460.407 1911.88 461.38 1911.88 462.353C1911.88 463.326 1912.04 464.299 1912.2 465.109C1912.53 466.731 1913.17 468.19 1913.82 469.649C1914.47 471.108 1915.28 472.405 1916.09 473.703C1916.9 475 1917.71 476.297 1918.52 477.756C1919.33 479.053 1920.14 480.512 1920.79 481.972C1920.96 482.296 1921.12 482.782 1921.28 483.269C1921.44 483.755 1921.6 484.242 1921.77 484.728C1921.93 485.214 1921.93 485.701 1922.09 486.187C1922.09 486.674 1922.09 486.998 1922.09 487.322C1922.25 486.998 1922.41 486.674 1922.74 486.349C1923.06 486.025 1923.55 485.539 1923.87 485.214C1924.36 484.89 1924.85 484.566 1925.17 484.242C1925.66 483.917 1925.98 483.593 1926.47 483.431C1927.93 482.62 1929.55 481.809 1931.17 481.161C1932.79 480.512 1934.25 479.864 1935.87 479.053C1937.49 478.405 1938.95 477.594 1940.57 476.783C1942.03 475.972 1943.49 475 1944.95 473.865C1945.76 473.216 1946.57 472.568 1947.22 471.757C1947.87 470.946 1948.52 470.136 1949 469.163C1949.49 468.19 1949.97 467.379 1950.3 466.244C1950.62 465.271 1950.79 464.299 1950.79 463.164C1950.79 462.029 1950.62 460.894 1950.46 459.921C1950.14 458.948 1949.81 458.137 1949.33 457.489C1948.84 456.84 1948.19 456.192 1947.54 455.867C1946.89 455.381 1946.08 455.057 1945.27 454.895C1944.3 454.57 1943 454.57 1941.87 454.732C1940.73 454.895 1939.44 455.057 1938.3 455.543C1937.17 456.03 1936.03 456.516 1934.9 457.327C1933.76 458.137 1932.79 458.948 1931.98 460.083C1933.11 458.137 1934.25 456.354 1935.55 454.895C1936.68 453.435 1937.98 452.138 1938.95 451.327C1940.09 450.355 1940.9 449.706 1941.54 449.22C1942.52 448.733 1942.84 448.409 1942.84 448.409Z" fill="black"/>
</g>
<defs>
<linearGradient id="paint0_linear_90_655" x1="10.5716" y1="838.599" x2="-11.6797" y2="586.087" gradientUnits="userSpaceOnUse">
<stop stop-color="white"/>
<stop offset="0.3282" stop-color="#FBFBFB"/>
<stop offset="0.6789" stop-color="#EEEEEE"/>
<stop offset="1" stop-color="#DBDBDB"/>
</linearGradient>
<linearGradient id="paint1_linear_90_655" x1="7.65042" y1="218.02" x2="-5.95899" y2="290.828" gradientUnits="userSpaceOnUse">
<stop stop-color="#EC240E"/>
<stop offset="0.3549" stop-color="#B51709"/>
<stop offset="1" stop-color="#510000"/>
</linearGradient>
<linearGradient id="paint2_linear_90_655" x1="69.5686" y1="302.207" x2="62.6284" y2="314.989" gradientUnits="userSpaceOnUse">
<stop stop-color="#EC240E"/>
<stop offset="1" stop-color="#510000"/>
</linearGradient>
<linearGradient id="paint3_linear_90_655" x1="23.0676" y1="131.787" x2="0.540348" y2="124.789" gradientUnits="userSpaceOnUse">
<stop stop-color="#EC240E"/>
<stop offset="1" stop-color="#510000"/>
</linearGradient>
<linearGradient id="paint4_linear_90_655" x1="107.8" y1="122.618" x2="-24.7032" y2="283.644" gradientUnits="userSpaceOnUse">
<stop stop-color="#EC240E"/>
<stop offset="1" stop-color="#510000"/>
</linearGradient>
<linearGradient id="paint5_linear_90_655" x1="143.284" y1="142.16" x2="-166.831" y2="211.428" gradientUnits="userSpaceOnUse">
<stop stop-color="#EC240E"/>
<stop offset="1" stop-color="#510000"/>
</linearGradient>
<linearGradient id="paint6_linear_90_655" x1="-4.51312" y1="160.992" x2="164.053" y2="353.027" gradientUnits="userSpaceOnUse">
<stop stop-color="#EC240E"/>
<stop offset="1" stop-color="#510000"/>
</linearGradient>
<linearGradient id="paint7_linear_90_655" x1="15.5689" y1="274.948" x2="-95.4882" y2="310.116" gradientUnits="userSpaceOnUse">
<stop stop-color="#D1D1D1"/>
<stop offset="0.5952" stop-color="#9E9E9E"/>
<stop offset="1" stop-color="#808080"/>
</linearGradient>
<linearGradient id="paint8_linear_90_655" x1="22.7473" y1="161.787" x2="109.481" y2="366.888" gradientUnits="userSpaceOnUse">
<stop stop-color="#F0F0F0"/>
<stop offset="0.0394" stop-color="#EBEBEB"/>
<stop offset="0.6972" stop-color="#9E9E9E"/>
<stop offset="1" stop-color="#808080"/>
</linearGradient>
<linearGradient id="paint9_linear_90_655" x1="28.4744" y1="159.366" x2="115.208" y2="364.462" gradientUnits="userSpaceOnUse">
<stop stop-color="#F0F0F0"/>
<stop offset="0.0394" stop-color="#EBEBEB"/>
<stop offset="0.6972" stop-color="#9E9E9E"/>
<stop offset="1" stop-color="#808080"/>
</linearGradient>
<linearGradient id="paint10_linear_90_655" x1="16.9568" y1="164.233" x2="103.692" y2="369.328" gradientUnits="userSpaceOnUse">
<stop stop-color="#F0F0F0"/>
<stop offset="0.0394" stop-color="#EBEBEB"/>
<stop offset="0.6972" stop-color="#9E9E9E"/>
<stop offset="1" stop-color="#808080"/>
</linearGradient>
<linearGradient id="paint11_linear_90_655" x1="-30.1625" y1="221.714" x2="65.614" y2="151.046" gradientUnits="userSpaceOnUse">
<stop stop-color="#FFFFCB"/>
<stop offset="0.1479" stop-color="#C6C69D"/>
<stop offset="0.319" stop-color="#8A8A6E"/>
<stop offset="0.4843" stop-color="#595947"/>
<stop offset="0.6392" stop-color="#323228"/>
<stop offset="0.7812" stop-color="#171712"/>
<stop offset="0.9059" stop-color="#060605"/>
<stop offset="1"/>
</linearGradient>
<linearGradient id="paint12_linear_90_655" x1="85.1081" y1="234.675" x2="-7.00035" y2="290.13" gradientUnits="userSpaceOnUse">
<stop stop-color="#C7C7C7"/>
<stop offset="0.00475806" stop-color="#C5C5C5"/>
<stop offset="0.2049" stop-color="#8A8A8A"/>
<stop offset="0.3978" stop-color="#595959"/>
<stop offset="0.5786" stop-color="#323232"/>
<stop offset="0.7445" stop-color="#171717"/>
<stop offset="0.8901" stop-color="#060606"/>
<stop offset="1"/>
</linearGradient>
<linearGradient id="paint13_linear_90_655" x1="305.978" y1="203.274" x2="316.617" y2="543.684" gradientUnits="userSpaceOnUse">
<stop offset="0.0303" stop-color="#EDEDED"/>
<stop offset="0.5417" stop-color="#C7C7C7"/>
<stop offset="1" stop-color="#A8A8A8"/>
</linearGradient>
<linearGradient id="paint14_linear_90_655" x1="1558.03" y1="141.623" x2="1450.26" y2="308.438" gradientUnits="userSpaceOnUse">
<stop stop-color="#AC100E"/>
<stop offset="1" stop-color="#310000"/>
</linearGradient>
<linearGradient id="paint15_linear_90_655" x1="1521.82" y1="117.381" x2="1544.06" y2="308.677" gradientUnits="userSpaceOnUse">
<stop stop-color="#EC240E"/>
<stop offset="1" stop-color="#510000"/>
</linearGradient>
<linearGradient id="paint16_linear_90_655" x1="1552.5" y1="126.475" x2="1508.49" y2="295.337" gradientUnits="userSpaceOnUse">
<stop stop-color="white"/>
<stop offset="0.3282" stop-color="#FBFBFB"/>
<stop offset="0.6789" stop-color="#EEEEEE"/>
<stop offset="1" stop-color="#DBDBDB"/>
</linearGradient>
<linearGradient id="paint17_linear_90_655" x1="1534.7" y1="115.214" x2="1472.12" y2="275.57" gradientUnits="userSpaceOnUse">
<stop stop-color="#D1D1D1"/>
<stop offset="0.5952" stop-color="#9E9E9E"/>
<stop offset="1" stop-color="#808080"/>
</linearGradient>
<linearGradient id="paint18_linear_90_655" x1="1533.15" y1="111.534" x2="1510.7" y2="265.672" gradientUnits="userSpaceOnUse">
<stop stop-color="#7D7D7D"/>
<stop offset="0.1529" stop-color="#717171"/>
<stop offset="0.4269" stop-color="#525252"/>
<stop offset="0.7877" stop-color="#212121"/>
<stop offset="1"/>
</linearGradient>
<linearGradient id="paint19_linear_90_655" x1="1489.71" y1="234.208" x2="1477.7" y2="178.73" gradientUnits="userSpaceOnUse">
<stop stop-color="#7D7D7D"/>
<stop offset="0.1529" stop-color="#717171"/>
<stop offset="0.4269" stop-color="#525252"/>
<stop offset="0.7877" stop-color="#212121"/>
<stop offset="1"/>
</linearGradient>
<linearGradient id="paint20_linear_90_655" x1="2078.17" y1="218.877" x2="1654.21" y2="590.272" gradientUnits="userSpaceOnUse">
<stop offset="0.0303" stop-color="#EDEDED"/>
<stop offset="0.5417" stop-color="#C7C7C7"/>
<stop offset="1" stop-color="#A8A8A8"/>
</linearGradient>
<clipPath id="clip0_90_655">
<rect width="1295" height="901" fill="white" transform="translate(-129)"/>
</clipPath>
</defs>
</svg>
