<svg width="1919" height="2674" viewBox="0 0 1919 2674" fill="none" xmlns="http://www.w3.org/2000/svg">
<path d="M-343 0.500001L-342.999 1802.95L-342.999 2274.57L-342.999 2653.81L-342.999 2658.06C-342.201 2657.57 -341.416 2657.08 -340.63 2656.59C-299.594 2630.52 -255.537 2607.97 -208.684 2588.86C-158.783 2568.52 -106.407 2553.08 -52.6327 2540.45C3.98987 2527.15 61.9967 2519.7 120.776 2515.89C146.105 2514.25 171.515 2513.16 196.912 2512.51C234.154 2511.55 271.423 2512.31 308.599 2513.79C341.622 2515.1 374.619 2517.19 407.522 2520.15C439.241 2523.01 470.92 2526 502.439 2529.95C558.915 2537.05 615.098 2545.39 670.909 2555.26C743.158 2568.03 814.98 2582.09 886.577 2596.95C967.691 2613.79 1048.87 2630.46 1130.84 2644.6C1175.2 2652.24 1219.82 2658.89 1264.78 2663.99C1292.78 2667.16 1320.96 2669.31 1349.15 2671.43C1374.78 2673.34 1400.48 2673.77 1426.05 2673.93C1443.39 2674.03 1461 2673.75 1478.52 2672.58C1505.1 2670.8 1531.55 2668.59 1557.76 2664.75C1596.61 2659.06 1634.37 2650.26 1671.43 2639.5C1718.64 2625.79 1764.25 2609.37 1807.74 2589.38C1847.24 2571.23 1884.05 2550.2 1919 2527.16L1919 2524.11L1919 2274.57L1919 1802.95L1919 0.499936L-343 0.500001Z" fill="#1A1C25"/>
</svg>
