<svg width="286" height="313" viewBox="0 0 286 313" fill="none" xmlns="http://www.w3.org/2000/svg">
<g opacity="0.1">
<path d="M204.882 267.011C205.295 266.817 205.501 266.721 205.914 266.527C206.534 266.236 207.056 265.739 207.469 265.545C207.676 265.448 208.089 265.255 208.198 264.951C208.927 264.357 209.753 263.97 210.688 263.279L237.113 242.817C236.384 243.411 235.655 244.005 234.829 244.392C234.623 244.489 234.21 244.683 234.1 244.986C233.481 245.277 232.958 245.774 232.545 245.968C232.132 246.162 231.926 246.258 231.513 246.452C230.893 246.743 230.48 246.937 229.861 247.227C229.448 247.421 229.035 247.615 228.622 247.809C228.209 248.002 227.59 248.293 227.177 248.487C226.764 248.681 226.351 248.874 225.938 249.068C225.525 249.262 224.906 249.552 224.493 249.746C224.08 249.94 223.667 250.134 223.157 250.121C222.744 250.315 222.125 250.605 221.615 250.593C221.202 250.786 220.692 250.774 220.279 250.968C219.866 251.161 219.15 251.245 218.737 251.439C218.324 251.633 217.814 251.62 217.401 251.814C216.892 251.801 216.272 252.092 215.762 252.079C215.252 252.066 214.84 252.26 214.33 252.247C213.82 252.235 213.201 252.525 212.691 252.513C212.181 252.5 211.768 252.694 211.258 252.681C210.748 252.668 210.032 252.752 209.619 252.946C209.109 252.933 208.599 252.921 208.186 253.115C207.677 253.102 206.96 253.186 206.45 253.173C205.941 253.16 205.431 253.148 204.921 253.135C204.411 253.122 203.695 253.206 203.185 253.194C202.675 253.181 202.165 253.168 201.449 253.252C200.939 253.24 200.223 253.324 199.616 253.105C199.106 253.092 198.596 253.079 197.783 252.957C197.273 252.944 196.46 252.822 195.95 252.809C195.441 252.796 194.834 252.577 194.118 252.661C193.608 252.649 192.795 252.526 192.285 252.513C191.775 252.501 191.168 252.282 190.658 252.269C190.052 252.05 189.335 252.134 188.728 251.915C188.122 251.695 187.405 251.779 186.799 251.56C186.192 251.341 185.476 251.425 184.869 251.206C184.262 250.987 183.449 250.864 182.939 250.852C182.333 250.632 181.726 250.413 181.01 250.497C180.403 250.278 179.59 250.156 178.983 249.937C178.376 249.717 177.769 249.498 176.956 249.376C176.349 249.157 175.536 249.034 174.93 248.815C173.91 248.79 173.097 248.667 172.49 248.448C171.883 248.229 170.973 247.9 170.366 247.681C169.76 247.461 169.153 247.242 168.546 247.023C167.939 246.804 167.029 246.475 166.423 246.256C165.816 246.037 165.209 245.817 164.506 245.392C163.802 244.966 162.989 244.844 162.285 244.418C161.678 244.199 160.975 243.773 160.368 243.554C159.664 243.128 158.851 243.006 158.148 242.58C157.541 242.361 156.837 241.935 156.231 241.716C155.527 241.29 154.617 240.961 153.913 240.535C153.21 240.11 152.603 239.891 151.899 239.465C151.086 239.343 150.382 238.917 149.679 238.491C148.975 238.065 148.368 237.846 147.665 237.42C146.961 236.995 146.051 236.666 145.251 236.034C144.547 235.608 143.94 235.389 143.443 234.866C142.739 234.44 141.732 233.905 141.029 233.479C140.325 233.054 139.925 232.738 139.221 232.312C138.421 231.68 137.511 231.351 136.71 230.719C136.007 230.293 135.606 229.977 134.903 229.551C134.102 228.919 133.095 228.383 132.295 227.751C131.798 227.229 131.191 227.009 130.694 226.487C129.59 225.745 128.789 225.113 127.892 224.274C127.492 223.958 127.091 223.642 126.388 223.216C124.884 222.158 123.586 221.003 122.082 219.946C121.281 219.313 120.384 218.475 119.486 217.636C118.686 217.004 117.789 216.165 116.988 215.533C115.787 214.584 114.49 213.43 113.495 212.384C113.192 212.275 112.998 211.862 112.695 211.752C111.494 210.804 110.196 209.649 109.202 208.604L109.105 208.397C108.111 207.352 106.813 206.197 105.819 205.152C105.722 204.946 105.419 204.836 105.225 204.423C104.134 203.171 102.933 202.223 101.842 200.971C101.745 200.765 101.441 200.655 101.344 200.449C100.447 199.61 99.4527 198.565 98.4584 197.52C98.3615 197.313 98.0582 197.204 97.9613 196.997C96.8701 195.745 95.8758 194.7 94.7846 193.449C94.6877 193.242 94.3843 193.132 94.1905 192.719C93.1962 191.674 92.4084 190.532 91.4141 189.487C91.3172 189.281 91.2203 189.074 91.0138 189.171C90.0195 188.126 89.1348 186.777 88.1405 185.732C88.0436 185.525 87.6433 185.209 87.5464 185.003C86.7586 183.861 85.6674 182.609 84.8796 181.467C84.8796 181.467 84.8796 181.467 84.7827 181.26C83.8979 179.912 83.1101 178.77 82.2253 177.421C82.1284 177.215 81.9347 176.802 81.6313 176.692C80.8435 175.55 79.9588 174.202 79.1709 173.059C79.074 172.853 79.074 172.853 78.9771 172.646C78.1893 171.504 77.4015 170.362 76.8201 169.123C76.7232 168.917 76.5294 168.504 76.4325 168.297C75.6447 167.155 74.9664 165.71 74.1786 164.568C74.0817 164.361 73.9848 164.155 73.8879 163.948C73.3065 162.709 72.5186 161.567 72.0342 160.535C71.9373 160.328 71.8404 160.122 71.7435 159.915C71.1621 158.676 70.2774 157.328 69.696 156.089C69.5991 155.882 69.5023 155.676 69.3085 155.263C68.7271 154.024 68.1457 152.785 67.5644 151.546C67.4675 151.339 67.4675 151.339 67.3706 151.133C67.1768 150.72 66.8861 150.1 66.6923 149.687C66.4985 149.274 66.3047 148.861 66.1109 148.448C65.9171 148.036 65.7234 147.623 65.4327 147.003C65.2389 146.59 65.0451 146.177 64.7544 145.558C64.5606 145.145 64.3668 144.732 64.173 144.319C63.9792 143.906 63.7855 143.493 63.4948 142.873C63.301 142.46 63.1072 142.047 62.9134 141.634C62.7196 141.221 62.4289 140.602 62.2351 140.189C62.0414 139.776 61.8476 139.363 61.6538 138.95C61.46 138.537 61.1693 137.917 61.182 137.407C60.9882 136.994 60.7944 136.581 60.8071 136.072C60.6133 135.659 60.4195 135.246 60.4322 134.736C60.2384 134.323 60.0446 133.91 60.0573 133.4C59.8635 132.987 59.6697 132.574 59.6824 132.064C59.4886 131.651 59.5013 131.141 59.3075 130.728C59.1137 130.315 59.1264 129.805 58.9326 129.392C58.7388 128.979 58.7514 128.47 58.5576 128.057C58.3639 127.644 58.3766 127.134 58.1828 126.721C57.989 126.308 58.0016 125.798 57.8079 125.385C57.6141 124.972 57.6268 124.462 57.433 124.049C57.2392 123.636 57.2519 123.126 57.0581 122.713C56.8643 122.3 56.877 121.79 56.6832 121.377C56.4894 120.964 56.5021 120.454 56.3083 120.041C56.1145 119.628 56.1272 119.119 56.0303 118.912C55.8365 118.499 55.8492 117.989 55.6554 117.576C55.4616 117.163 55.4742 116.653 55.3773 116.447C55.1836 116.034 55.1963 115.524 55.0025 115.111C54.8087 114.698 54.9182 114.395 54.7244 113.982C54.7371 113.472 54.5433 113.059 54.556 112.549C54.5687 112.039 54.4718 111.833 54.4845 111.323C54.4972 110.813 54.3034 110.4 54.3161 109.89C54.2192 109.683 54.2318 109.174 54.1349 108.967C54.0634 107.741 53.7855 106.612 53.7139 105.385C53.7139 105.385 53.7139 105.385 53.617 105.179C53.5455 103.953 53.5708 102.933 53.2928 101.803C53.1959 101.597 53.3055 101.294 53.2086 101.087C53.137 99.8609 53.1624 98.8411 53.0909 97.6149C52.994 97.4084 53.2004 97.3115 53.1035 97.105C53.1289 96.0853 53.1543 95.0655 53.1796 94.0458C53.0827 93.8393 53.1923 93.536 53.1923 93.536C53.2177 92.5162 53.243 91.4965 53.4748 90.3798C53.3779 90.1734 53.4876 89.87 53.3907 89.6635C53.416 88.6437 53.6478 87.5271 53.7701 86.7139C53.7701 86.7139 53.6732 86.5074 53.8796 86.4105C54.1115 85.2939 54.1369 84.2741 54.3687 83.1575C54.4783 82.8541 54.3814 82.6476 54.5878 82.5507C54.8197 81.4341 54.9419 80.6209 55.1737 79.5042C55.0768 79.2978 55.2833 79.2009 55.1864 78.9944C55.4056 78.3876 55.4182 77.8777 55.6374 77.271C55.747 76.9676 55.6501 76.7611 55.7597 76.4577C55.7723 75.9479 56.0884 75.5476 56.1011 75.0377C56.2107 74.7343 56.3202 74.431 56.4298 74.1276C56.4425 73.6177 56.7585 73.2175 56.8681 72.9141C56.9777 72.6107 57.0872 72.3073 57.1968 72.004C57.3064 71.7006 57.5255 71.0938 57.6351 70.7905C57.7447 70.4871 57.8542 70.1837 57.9638 69.8803C58.0734 69.577 58.2925 68.9702 58.4021 68.6668C58.5117 68.3634 58.6212 68.0601 58.7308 67.7567C59.0469 67.3564 59.0595 66.8466 59.3756 66.4463C59.4851 66.1429 59.5948 65.8395 59.8012 65.7427C60.1173 65.3424 60.3364 64.7356 60.446 64.4323C60.5556 64.1289 60.762 64.032 60.8716 63.7286C61.2972 63.025 61.5164 62.4182 62.0389 61.9211L38.6816 86.2351C38.256 86.9388 38.0369 87.5455 37.5143 88.0426C37.4048 88.346 37.1982 88.4429 37.0887 88.7463C36.7726 89.1466 36.5535 89.7533 36.4439 90.0567C36.4439 90.0567 36.2375 90.1536 36.3344 90.3601C36.2248 90.6634 36.2248 90.6634 36.1152 90.9668C36.4059 91.5863 36.2963 91.8897 36.0771 92.4964C35.9676 92.7998 35.858 93.1032 35.7484 93.4066C35.4324 93.8068 35.4197 94.3167 35.1037 94.717L34.9941 95.0203C34.7876 95.1172 34.8846 95.3237 34.775 95.6271C34.6654 95.9304 34.4462 96.5372 34.3367 96.8406C34.2271 97.144 34.1175 97.4474 34.0079 97.7507C33.8983 98.0541 33.6792 98.6608 33.5697 98.9642C33.4601 99.2676 33.4601 99.2676 33.3505 99.571L33.2409 99.8744C33.0217 100.481 32.9122 100.785 32.693 101.391C32.5835 101.695 32.4739 101.998 32.5708 102.205C32.3516 102.811 32.339 103.321 32.1198 103.928C32.2167 104.134 32.0103 104.231 32.1072 104.438C31.6815 105.141 31.3528 106.052 31.121 107.168C31.0114 107.472 31.1083 107.678 30.9018 107.775C30.67 108.892 30.6446 109.911 30.3159 110.821C30.3159 110.821 30.3159 110.821 30.4128 111.028C30.3874 112.048 30.0587 112.958 30.0333 113.978C30.1302 114.184 30.0207 114.487 30.1176 114.694C30.0922 115.714 29.8604 116.83 29.8351 117.85L29.9319 118.056C30.0288 118.263 29.8223 118.36 29.9192 118.566C29.9065 119.076 29.8939 119.586 29.7843 119.889C29.7716 120.399 29.759 120.909 29.7463 121.419C29.8432 121.626 29.6367 121.722 29.7336 121.929C29.7082 122.949 29.7798 124.175 29.7545 125.195C29.7545 125.195 29.8513 125.401 29.6448 125.498C29.7417 125.705 29.7418 125.705 29.6322 126.008C29.7037 127.234 29.6783 128.254 29.9563 129.383C29.9563 129.383 29.9563 129.383 30.0532 129.59C30.1247 130.816 30.1963 132.042 30.4743 133.172C30.5712 133.378 30.5712 133.378 30.4616 133.681C30.5585 133.888 30.4489 134.191 30.4489 134.191C30.4362 134.701 30.63 135.114 30.5205 135.418C30.5078 135.927 30.6047 136.134 30.5921 136.644C30.5794 137.154 30.7732 137.567 30.7605 138.076C30.7478 138.586 30.8446 138.793 31.0384 139.206C31.0258 139.716 31.2195 140.129 31.2069 140.639C31.4006 141.052 31.2911 141.355 31.4849 141.768C31.4722 142.278 31.666 142.691 31.8598 143.104C31.9567 143.31 31.9567 143.31 31.8471 143.614C31.944 143.82 32.0409 144.027 31.9314 144.33C32.1251 144.743 32.1124 145.253 32.3062 145.666C32.5 146.079 32.4874 146.589 32.5843 146.795C32.778 147.208 32.7653 147.718 32.9591 148.131C33.1529 148.544 33.1403 149.054 33.334 149.467C33.5278 149.88 33.5151 150.39 33.7089 150.803C33.9027 151.216 33.89 151.726 34.0838 152.139C34.2776 152.552 34.265 153.061 34.4588 153.474C34.5557 153.681 34.5557 153.681 34.6526 153.887C34.7494 154.094 34.9432 154.507 34.8336 154.81C35.0274 155.223 35.0148 155.733 35.2086 156.146C35.4023 156.559 35.3896 157.069 35.5834 157.482C35.7772 157.895 35.971 158.308 35.9583 158.818C36.1521 159.231 36.3459 159.644 36.3332 160.154C36.4301 160.36 36.6239 160.773 36.7208 160.98C36.8177 161.186 36.8177 161.186 36.9146 161.393C37.1084 161.806 37.3022 162.219 37.3864 162.935C37.5802 163.348 37.774 163.761 37.9678 164.174L38.0647 164.38C38.2584 164.793 38.3553 165 38.5491 165.413C38.7429 165.826 38.9367 166.239 39.1305 166.652C39.3243 167.065 39.5181 167.478 39.8088 168.097C40.0026 168.51 40.1963 168.923 40.3901 169.336C40.5839 169.749 40.7777 170.162 40.9715 170.575C41.1653 170.988 41.3591 171.401 41.5529 171.814C41.7467 172.227 41.9404 172.64 42.1342 173.053C42.328 173.466 42.6187 174.086 42.8125 174.499C42.8125 174.499 42.8125 174.499 42.9094 174.705L43.0063 174.912C43.5877 176.151 44.0721 177.183 44.6535 178.422C44.7504 178.629 44.8473 178.835 45.0411 179.248C45.6224 180.487 46.2038 181.726 46.9916 182.868C47.0885 183.075 47.1854 183.281 47.2823 183.487C47.8637 184.726 48.5547 185.662 49.136 186.901C49.2329 187.107 49.3298 187.314 49.4267 187.52C50.2145 188.663 50.8928 190.108 51.6807 191.25L51.7776 191.457C51.8744 191.663 51.8744 191.663 51.9713 191.87C52.7592 193.012 53.3406 194.251 54.1284 195.393C54.2253 195.599 54.2253 195.599 54.3222 195.806C55.11 196.948 55.9947 198.296 56.7826 199.438C56.8795 199.645 57.0732 200.058 57.3766 200.168C58.1644 201.31 59.0492 202.658 59.837 203.8C59.837 203.8 59.837 203.8 59.9339 204.007C60.7218 205.149 61.5095 206.291 62.6007 207.543C62.6976 207.749 62.7945 207.956 62.7945 207.956C62.8914 208.162 62.8914 208.162 62.9883 208.369C63.7762 209.511 64.8674 210.762 65.6552 211.904C65.7521 212.111 65.8491 212.317 66.0555 212.221C66.8434 213.363 67.8377 214.408 68.832 215.453C68.9289 215.659 69.2322 215.769 69.426 216.182C70.4203 217.227 71.5115 218.479 72.2993 219.621C72.3962 219.828 72.6996 219.937 72.7965 220.144C73.7908 221.189 74.7851 222.234 75.7794 223.279C75.8763 223.486 75.8763 223.486 76.1797 223.595C76.1797 223.595 76.1797 223.595 76.2766 223.802C77.2709 224.847 78.3621 226.099 79.5628 227.047C79.6597 227.254 79.9631 227.363 80.1568 227.776C81.1512 228.821 82.1455 229.867 83.3463 230.815L83.4432 231.021C84.4375 232.067 85.7351 233.221 86.9359 234.17C87.2393 234.279 87.4331 234.692 87.7364 234.802C88.9372 235.75 90.0284 237.002 91.2292 237.95C91.6294 238.266 92.0297 238.582 92.5269 239.105C92.9271 239.421 93.3274 239.737 93.7276 240.053C94.1279 240.369 94.5281 240.686 95.0253 241.208C95.4255 241.524 95.8258 241.84 96.323 242.363C97.6207 243.518 99.1248 244.576 100.629 245.634C101.029 245.95 101.429 246.266 102.036 246.485C102.934 247.324 103.941 247.859 104.838 248.698C104.838 248.698 104.838 248.698 104.935 248.904C105.335 249.22 105.942 249.44 106.439 249.962C107.24 250.594 108.246 251.13 109.047 251.762C109.751 252.188 110.151 252.504 110.854 252.929C111.655 253.562 112.565 253.89 113.366 254.523L113.669 254.632C114.069 254.948 114.676 255.168 115.076 255.484C115.78 255.909 116.58 256.542 117.491 256.871C118.194 257.296 118.801 257.515 119.298 258.038C120.002 258.464 120.912 258.793 121.712 259.425C121.809 259.631 122.016 259.534 122.113 259.741C122.513 260.057 123.119 260.276 123.52 260.592C124.223 261.018 125.133 261.347 125.837 261.773C126.541 262.198 127.147 262.418 127.754 262.637C128.361 262.856 128.761 263.172 129.368 263.391C129.671 263.501 129.768 263.707 129.975 263.611C130.278 263.72 130.375 263.927 130.581 263.83C130.982 264.146 131.491 264.159 131.892 264.475C132.595 264.9 133.408 265.023 134.112 265.448C134.719 265.668 135.422 266.093 136.029 266.313C136.733 266.738 137.546 266.861 138.153 267.08C138.456 267.189 138.759 267.299 138.759 267.299C139.063 267.409 139.67 267.628 139.973 267.738C140.58 267.957 141.49 268.286 142.096 268.505C142.703 268.724 143.31 268.943 143.917 269.163C144.523 269.382 145.337 269.504 146.04 269.93C146.344 270.039 146.647 270.149 146.853 270.052C147.157 270.162 147.667 270.174 147.97 270.284C148.577 270.503 149.39 270.626 149.997 270.845C150.603 271.064 151.21 271.283 151.926 271.199C152.533 271.418 153.346 271.541 153.953 271.76C154.256 271.87 154.56 271.979 154.766 271.882C155.07 271.992 155.373 272.102 155.883 272.114C156.489 272.333 157.303 272.456 157.812 272.469C158.419 272.688 159.136 272.604 159.742 272.823C160.046 272.932 160.349 273.042 160.859 273.055C161.162 273.164 161.466 273.274 161.878 273.08C162.182 273.19 162.485 273.299 162.692 273.203C162.995 273.312 163.201 273.215 163.711 273.228C164.221 273.241 164.828 273.46 165.544 273.376C166.054 273.389 166.867 273.511 167.377 273.524C167.887 273.536 168.494 273.756 169.21 273.671C169.72 273.684 170.533 273.806 171.043 273.819C171.553 273.832 172.062 273.845 172.779 273.76C173.289 273.773 174.005 273.689 174.515 273.702C175.025 273.715 175.534 273.727 176.251 273.643C176.457 273.546 176.761 273.656 176.967 273.559C177.27 273.669 177.683 273.475 177.987 273.584C178.496 273.597 179.006 273.61 179.723 273.526C180.232 273.538 180.949 273.454 181.459 273.467C181.968 273.48 182.478 273.492 182.891 273.299C183.401 273.311 184.117 273.227 184.53 273.033C185.04 273.046 185.453 272.852 185.963 272.865C186.473 272.878 187.092 272.587 187.602 272.6C188.015 272.406 188.318 272.516 188.731 272.322C188.938 272.225 188.938 272.225 189.144 272.128C189.351 272.031 189.351 272.031 189.557 271.935C189.97 271.741 190.48 271.753 190.686 271.657C191.099 271.463 191.609 271.476 192.022 271.282C192.435 271.088 193.151 271.004 193.564 270.81C193.977 270.616 194.487 270.629 194.9 270.435C195.313 270.242 196.029 270.157 196.442 269.964C196.855 269.77 197.268 269.576 197.778 269.589C198.191 269.395 198.81 269.104 199.223 268.911C199.636 268.717 200.049 268.523 200.462 268.329L200.668 268.232C201.081 268.039 201.494 267.845 201.907 267.651C202.32 267.457 202.733 267.264 203.146 267.07C203.946 267.702 204.359 267.508 204.882 267.011Z" fill="url(#paint0_linear_90_79653)"/>
<path d="M62.7453 62.347C68.4848 53.1029 76.6004 46.7751 86.4856 43.1444C95.8609 39.5011 107.006 38.5548 118.803 40.0738C130.298 41.4832 142.651 45.2609 155.258 51.1876C167.658 57.2113 180.31 65.3841 192.402 75.5836C204.591 85.9896 215.225 97.3771 224.414 109.443C233.396 121.606 240.933 134.446 246.431 147.236C252.025 160.233 255.58 173.178 257.012 185.356C258.334 197.838 257.326 209.649 253.601 219.964C249.766 230.582 243.445 238.587 235.038 244.296C226.632 250.004 216.153 252.905 204.511 253.329C192.565 253.643 179.264 251.066 165.322 245.514C151.38 239.962 136.797 231.435 122.594 219.958C108.295 208.275 95.7689 195.004 85.6112 180.873C75.4536 166.743 67.4575 151.85 62.1075 137.227C56.8543 122.81 54.2472 108.664 54.2609 95.8076C53.8616 83.145 56.7993 71.6881 62.7453 62.347Z" fill="url(#paint1_linear_90_79653)"/>
<path d="M187.959 77.922C188.469 77.9347 188.772 78.0444 189.172 78.3605C189.572 78.6766 190.179 78.8958 190.579 79.2119C190.98 79.528 191.477 80.0506 191.671 80.4636C191.864 80.8766 192.362 81.3992 192.555 81.8122C192.749 82.2251 192.737 82.735 192.93 83.148C193.124 83.561 192.808 83.9612 192.699 84.2646C192.589 84.568 192.273 84.9682 192.066 85.0651C191.86 85.162 191.447 85.3558 190.937 85.343C190.427 85.3303 190.124 85.2207 189.724 84.9046C189.323 84.5885 188.717 84.3693 188.316 84.0532C187.916 83.7371 187.419 83.2145 187.225 82.8015C187.031 82.3885 186.534 81.8659 186.341 81.4529C186.147 81.0399 186.159 80.5301 185.966 80.1171C185.978 79.6072 186.088 79.3038 186.197 79.0004C186.307 78.6971 186.623 78.2968 186.83 78.1999C187.242 78.0062 187.449 77.9093 187.959 77.922ZM224.209 109.54C221.045 105.482 217.784 101.217 214.207 97.3522L206.02 102.454C205.814 102.551 205.814 102.551 205.607 102.648C205.401 102.744 205.401 102.744 205.291 103.048C205.085 103.145 205.182 103.351 204.975 103.448C204.769 103.545 204.866 103.751 204.659 103.848C204.343 104.249 204.33 104.758 204.318 105.268C204.305 105.778 204.389 106.495 204.473 107.211C204.558 107.927 204.848 108.547 205.139 109.166C205.43 109.786 205.817 110.612 206.411 111.341C207.005 112.07 207.49 113.102 208.181 114.038C208.872 114.974 209.66 116.116 210.447 117.258C211.235 118.4 212.023 119.542 212.811 120.684C213.599 121.826 214.387 122.968 215.174 124.11C215.962 125.252 216.641 126.698 217.622 128.253C218.494 130.111 219.476 131.666 220.361 133.015C221.245 134.363 221.924 135.809 222.408 136.841C222.893 137.874 223.487 138.603 223.487 138.603C224.178 139.538 224.868 140.474 225.463 141.203C226.057 141.932 226.954 142.771 227.658 143.197C228.458 143.829 229.368 144.158 229.975 144.377C230.885 144.706 231.395 144.719 232.111 144.634L244.385 143.41C239.359 132.163 232.404 120.561 224.209 109.54ZM129.612 60.9557C130.412 61.5879 131.309 62.4266 132.013 62.8523C132.814 63.4845 133.724 63.8133 134.634 64.1422C135.447 64.2645 136.357 64.5933 137.267 64.9222C138.177 65.251 139.294 65.4829 140.41 65.7149C141.527 65.9468 142.74 66.3853 143.857 66.6172C145.07 67.0557 146.187 67.2877 147.4 67.7261C148.614 68.1645 149.827 68.603 151.344 69.151C152.861 69.6991 154.378 70.2471 155.688 70.8921C157.205 71.4401 158.418 71.8786 159.425 72.4139C160.335 72.7427 161.039 73.1685 161.246 73.0716C161.852 73.2908 162.666 73.4131 163.175 73.4259C163.685 73.4386 164.401 73.3544 164.911 73.3672C165.324 73.1734 165.737 72.9796 166.15 72.7859C166.563 72.5921 166.879 72.1919 167.098 71.5851L167.208 71.2817L167.317 70.9783C167.22 70.7718 167.427 70.6749 167.33 70.4684C167.233 70.262 167.44 70.1651 167.343 69.9586L167.344 57.6121C163.122 55.0578 158.791 52.8069 154.556 50.7625C143.163 45.2741 131.926 41.7284 121.258 39.9315L125.976 55.3549C126.157 56.2777 126.544 57.1037 127.235 58.0393C128.12 59.3879 128.811 60.3234 129.612 60.9557ZM245.441 166.599C245.041 166.283 244.544 165.76 244.143 165.444C243.743 165.128 243.136 164.909 242.833 164.799C242.53 164.69 242.226 164.58 242.02 164.677C241.716 164.567 241.51 164.664 241.304 164.761C241.097 164.858 240.891 164.955 240.684 165.052C240.478 165.149 240.368 165.452 240.258 165.755L240.149 166.059C240.149 166.059 240.039 166.362 240.136 166.569C240.233 166.775 240.027 166.872 240.124 167.079C240.22 167.285 240.22 167.285 240.111 167.588C240.098 168.098 240.389 168.718 240.583 169.131C240.776 169.544 241.274 170.066 241.467 170.479C241.868 170.795 242.365 171.318 242.765 171.634C243.165 171.95 243.772 172.169 244.075 172.279C244.379 172.389 244.682 172.498 244.889 172.401C245.192 172.511 245.398 172.414 245.605 172.317C245.811 172.22 246.018 172.124 246.224 172.027C246.431 171.93 246.54 171.626 246.65 171.323L246.76 171.02C246.76 171.02 246.869 170.716 246.772 170.51C246.675 170.303 246.882 170.206 246.785 170C246.688 169.793 246.688 169.793 246.798 169.49C246.81 168.98 246.52 168.361 246.326 167.948C246.035 167.328 245.635 167.012 245.441 166.599ZM124.447 215.311C124.944 215.834 125.551 216.053 126.157 216.273C126.764 216.492 127.274 216.504 127.577 216.614C127.881 216.724 128.5 216.433 128.913 216.239C129.326 216.046 129.642 215.645 129.751 215.342C130.067 214.942 130.08 214.432 130.093 213.922C130.106 213.412 130.021 212.696 129.828 212.283C129.537 211.663 129.343 211.25 129.052 210.631C128.555 210.108 128.265 209.489 127.658 209.269C127.161 208.747 126.554 208.528 125.947 208.308C125.34 208.089 124.831 208.076 124.527 207.967C124.017 207.954 123.605 208.148 123.192 208.342C122.779 208.535 122.463 208.936 122.353 209.239C122.037 209.639 122.024 210.149 122.012 210.659C121.999 211.169 122.083 211.885 122.277 212.298C122.568 212.918 122.761 213.331 123.052 213.95C123.343 214.57 123.84 215.092 124.447 215.311ZM253.19 220.158C255.6 213.484 256.798 206.371 257.085 198.93L240.72 188.215C239.92 187.583 239.01 187.254 238.403 187.035C237.796 186.816 236.983 186.693 236.267 186.778C235.55 186.862 234.931 187.152 234.312 187.443C233.789 187.94 233.473 188.34 233.047 189.044C232.828 189.651 232.706 190.464 232.377 191.374C232.049 192.284 231.926 193.098 231.598 194.008C231.269 194.918 231.037 196.034 230.708 196.945C230.38 197.855 230.148 198.971 229.819 199.881C229.49 200.792 228.955 201.799 228.517 203.012C228.079 204.226 227.337 205.33 226.802 206.337C226.266 207.344 225.719 208.86 225.499 209.467C225.074 210.171 224.855 210.778 224.855 210.778C224.429 211.481 224.404 212.501 224.488 213.217C224.463 214.237 224.644 215.16 225.031 215.986C225.212 216.909 225.697 217.941 226.291 218.67C226.775 219.703 227.369 220.432 228.267 221.271L243.691 236.961C247.471 232.668 250.779 226.832 253.19 220.158ZM213.502 236.514C213.695 236.927 213.889 237.34 213.986 237.546C214.277 238.166 214.774 238.688 215.174 239.004C215.574 239.32 216.072 239.843 216.678 240.062C217.079 240.378 217.588 240.391 218.195 240.61C218.705 240.623 219.215 240.636 219.421 240.539C219.628 240.442 219.628 240.442 219.834 240.345C220.041 240.248 220.041 240.248 220.247 240.151C220.454 240.054 220.454 240.054 220.563 239.751L220.673 239.448C220.782 239.144 220.892 238.841 220.795 238.635C220.905 238.331 220.711 237.918 220.82 237.615C220.627 237.202 220.736 236.898 220.542 236.485C220.349 236.072 220.155 235.659 220.058 235.453C219.767 234.833 219.27 234.311 218.87 233.995C218.47 233.679 217.972 233.156 217.366 232.937C216.759 232.718 216.456 232.608 215.849 232.389C215.339 232.376 214.829 232.363 214.623 232.46C214.416 232.557 214.416 232.557 214.21 232.654C214.003 232.751 214.003 232.751 213.797 232.848C213.59 232.945 213.59 232.945 213.481 233.248L213.371 233.551C213.262 233.855 213.152 234.158 213.249 234.365C213.139 234.668 213.333 235.081 213.224 235.384C213.211 235.894 213.308 236.101 213.502 236.514ZM69.0808 111.28C68.6806 110.963 68.0738 110.744 67.467 110.525C67.1637 110.415 66.6539 110.403 66.3505 110.293C66.0472 110.183 65.6342 110.377 65.4277 110.474C65.2213 110.571 64.8083 110.765 64.6018 110.862C64.3954 110.959 64.2858 111.262 64.0794 111.359C63.8729 111.456 63.9697 111.662 63.9697 111.662L63.8602 111.966C63.9571 112.172 63.7506 112.269 63.8475 112.475C63.9444 112.682 63.7379 112.779 63.8348 112.985C63.8222 113.495 64.1129 114.115 64.3067 114.528C64.5973 115.147 64.7911 115.56 65.2883 116.083C65.7854 116.605 66.1856 116.921 66.5859 117.238C66.9862 117.554 67.593 117.773 68.1997 117.992C68.503 118.102 69.0128 118.114 69.3162 118.224C69.6195 118.334 70.0325 118.14 70.239 118.043C70.4454 117.946 70.8584 117.752 71.0649 117.655C71.2713 117.559 71.3809 117.255 71.5873 117.158C71.7938 117.061 71.697 116.855 71.697 116.855L71.8065 116.552C71.7096 116.345 71.916 116.248 71.8192 116.042C71.7223 115.835 71.9288 115.738 71.8319 115.532C71.8446 115.022 71.5538 114.402 71.36 113.989C71.0694 113.37 70.8756 112.957 70.3785 112.434C69.9782 112.118 69.4811 111.596 69.0808 111.28ZM205.292 205.595C199.898 209.134 193.22 211.008 185.876 210.927C178.422 211.149 170.303 209.416 161.918 206.043C153.63 202.877 144.883 197.659 136.381 190.814C127.879 183.97 120.531 175.827 114.313 167.407C108.301 158.89 103.527 149.791 100.174 141.034C97.0274 132.181 95.2036 123.462 95.2 115.401C95.1964 107.34 96.8065 100.033 100.527 94.004C103.945 87.865 108.951 83.5004 114.829 80.9941C120.61 78.2814 127.47 77.3302 134.801 77.9214C142.133 78.5126 149.839 80.4396 157.604 84.1028C165.369 87.7659 173.413 92.5584 181.005 99.0742C188.597 105.59 195.46 112.7 201.182 120.598C206.806 128.289 211.398 136.464 214.764 144.711C218.13 152.958 220.27 161.277 220.687 169.144C221.31 176.915 220.306 184.44 217.592 191.005C214.891 197.06 210.782 202.263 205.292 205.595ZM214.62 154.606L205.094 152.021C205.553 154.073 206.121 155.822 206.277 157.764C206.639 159.61 206.795 161.553 206.854 163.289C206.913 165.025 207.069 166.968 206.824 168.594C206.677 170.427 206.432 172.054 206.188 173.68L215.941 179.434C216.295 177.504 216.443 175.671 216.7 173.534C216.751 171.495 216.802 169.455 216.549 167.306C216.296 165.157 216.141 163.215 215.791 160.859C215.635 158.916 215.286 156.561 214.62 154.606ZM182.967 114.531C184.556 116.305 186.047 117.873 187.635 119.647C189.224 121.422 190.509 123.086 191.891 124.957C193.273 126.829 194.351 128.59 195.733 130.461C196.908 132.429 197.987 134.191 198.956 136.256L206.557 134.201C205.285 132.026 204.013 129.852 202.74 127.677C201.468 125.503 199.989 123.425 198.51 121.347C197.031 119.27 195.346 117.289 193.661 115.308C191.976 113.327 190.29 111.346 188.399 109.463L182.967 114.531ZM145.491 82.984L147.386 92.929C149.109 93.3802 150.832 93.8313 152.653 94.489C154.473 95.1467 156.293 95.8043 158.21 96.6685C160.127 97.5327 161.838 98.4937 163.755 99.3578C165.562 100.525 167.479 101.39 169.384 102.764L170.716 94.3277C168.605 93.0506 166.494 91.7734 164.383 90.4963C162.272 89.2191 160.052 88.2453 158.135 87.3812C155.915 86.4074 153.997 85.5433 151.874 84.776C149.544 84.1056 147.517 83.5448 145.491 82.984ZM108.98 90.5417L117.419 99.9357C118.464 98.9414 119.509 97.9471 120.76 96.856C121.902 96.0682 123.251 95.1835 124.49 94.6022C125.935 93.924 127.174 93.3427 128.813 93.0775C130.355 92.6058 131.788 92.4375 133.427 92.1723L127.356 81.9191C125.51 82.2812 123.871 82.5464 122.026 82.9084C120.277 83.477 118.735 83.9487 117.083 84.7237C115.431 85.4988 114.083 86.3835 112.735 87.2681C111.593 88.0559 110.341 89.1471 108.98 90.5417ZM101.06 130.037L111.703 132.853C111.244 130.801 110.882 128.955 110.726 127.013C110.57 125.07 110.414 123.127 110.355 121.391C110.297 119.655 110.444 117.822 110.592 115.989C110.739 114.156 111.19 112.433 111.641 110.71L101.184 104.53C100.526 106.351 100.172 108.28 99.9152 110.417C99.5611 112.347 99.5104 114.386 99.5566 116.632C99.5059 118.672 99.5521 120.918 99.9016 123.273C100.154 125.422 100.504 127.778 101.06 130.037ZM134.579 173.015C132.784 171.337 131.099 169.357 129.511 167.582C127.922 165.808 126.444 163.73 125.062 161.859C123.68 159.988 122.408 157.813 121.026 155.942C119.85 153.974 118.675 152.006 117.706 149.941L108.975 152.274C110.138 154.752 111.41 156.927 112.986 159.211C114.355 161.592 115.931 163.876 117.507 166.16C119.082 168.444 120.864 170.632 122.647 172.819C124.429 175.006 126.417 177.097 128.406 179.187L134.579 173.015ZM174.677 205.851L172.503 194.777C170.573 194.423 168.85 193.972 166.823 193.411C164.797 192.85 162.977 192.193 161.06 191.328C159.143 190.464 157.225 189.6 155.211 188.529C153.198 187.459 151.183 186.388 149.279 185.014L147.812 194.773C150.02 196.257 152.337 197.437 154.654 198.617C156.972 199.797 159.192 200.771 161.413 201.745C163.633 202.719 165.963 203.389 168.087 204.156C170.514 205.033 172.54 205.594 174.677 205.851ZM191.97 187.406C195.906 185.056 199.053 181.563 200.904 176.915C202.754 172.268 203.597 167.085 203.226 161.464C202.856 155.842 201.369 149.989 199.069 144.014C196.769 138.038 193.546 132.243 189.4 126.63C185.255 121.016 180.49 115.693 174.886 111.268C169.392 106.539 163.666 102.927 158.012 100.541C152.261 97.9485 146.787 96.4853 141.689 96.3581C136.494 96.0243 131.576 96.8199 127.654 98.6607C123.524 100.598 119.976 103.775 117.726 108.106C115.269 112.535 114.22 117.814 114.287 123.326C114.45 129.044 115.621 135.298 118.018 141.48C120.209 147.759 123.722 154.173 127.965 159.993C132.304 166.019 137.47 171.658 143.474 176.4C149.477 181.142 155.507 184.863 161.464 187.359C167.422 189.855 173.211 190.917 178.31 191.045C183.518 190.869 188.035 189.757 191.97 187.406ZM202.638 201.55C203.986 200.665 205.444 199.477 206.695 198.386C207.947 197.295 209.102 195.997 210.159 194.493L201.72 185.099C200.772 186.3 199.824 187.5 198.779 188.495C197.734 189.489 196.386 190.374 195.244 191.161C194.102 191.949 192.657 192.627 191.211 193.306C189.766 193.984 188.43 194.359 186.791 194.624L193.153 205.496C194.998 205.134 196.747 204.566 198.192 203.888C199.637 203.209 201.083 202.531 202.638 201.55ZM189.232 227.745C188.225 227.209 187.315 226.881 186.405 226.552C185.592 226.429 184.682 226.101 183.565 225.869C182.449 225.637 181.332 225.405 180.216 225.173C179.099 224.941 177.776 224.806 176.563 224.367C175.446 224.135 174.026 223.794 172.91 223.562C171.696 223.123 170.276 222.782 168.553 222.331C167.036 221.783 165.313 221.332 163.796 220.783C162.279 220.235 160.859 219.894 159.852 219.359C158.736 219.127 158.032 218.701 158.032 218.701C157.219 218.579 156.612 218.359 155.896 218.443C155.18 218.528 154.67 218.515 154.05 218.806C153.431 219.096 153.018 219.29 152.496 219.787C152.18 220.187 151.657 220.685 151.438 221.291C151.025 221.485 151.025 221.485 150.915 221.788C150.806 222.092 150.806 222.092 150.696 222.395C150.587 222.699 150.587 222.699 150.684 222.905C150.78 223.111 150.671 223.415 150.671 223.415L150.594 238.821C155.532 241.291 160.47 243.761 165.117 245.612C177.749 250.519 189.825 253.167 201.041 253.447L195.476 235.145C195.198 234.016 194.811 233.19 194.12 232.254C193.429 231.319 192.738 230.383 192.144 229.654C191.04 228.912 190.239 228.28 189.232 227.745ZM62.7474 62.3475C58.9296 68.1704 56.5189 74.8447 55.0057 82.3577L73.5778 94.5557C74.3784 95.1879 75.2885 95.5167 76.1986 95.8455C77.1087 96.1743 77.9218 96.2967 78.8446 96.1157C79.5609 96.0315 80.4836 95.8505 81.1031 95.5598C81.7225 95.2692 82.245 94.772 82.6706 94.0684C82.8897 93.4616 83.3154 92.758 83.6441 91.8479C83.9728 90.9377 84.3985 90.2341 84.7272 89.324C85.0559 88.4138 85.5911 87.4068 86.0167 86.7032C86.5519 85.6962 86.9775 84.9925 87.5127 83.9855C87.9383 83.2819 88.68 82.178 89.4217 81.0741C90.1633 79.9702 91.0019 79.0728 91.537 78.0658C92.1691 77.2653 92.9108 76.1614 93.4333 75.6642C93.8589 74.9606 94.175 74.5603 94.3814 74.4634C94.8071 73.7598 94.9293 72.9466 95.0516 72.1333C95.1738 71.3201 94.9927 70.3972 94.8116 69.4743C94.6305 68.5515 94.2429 67.7255 93.7584 66.693C93.3708 65.8671 92.6799 64.9315 91.8794 64.2993L76.455 48.6086C70.9645 51.9408 66.3588 56.6215 62.7474 62.3475ZM195.506 172.393C197.137 168.352 197.761 163.776 197.475 158.871C197.189 153.966 195.993 148.733 193.874 143.68C191.755 138.627 189.029 133.355 185.477 128.471C181.926 123.586 177.755 118.992 172.855 114.993C167.955 110.993 162.933 107.806 158.188 105.749C153.347 103.486 148.481 102.242 143.892 102.127C139.51 101.916 135.309 102.627 131.593 104.371C128.083 106.018 125.154 108.904 123.123 112.629C121.092 116.353 120.055 121.123 120.244 125.822C120.324 130.824 121.52 136.057 123.53 141.413C125.539 146.77 128.362 152.248 132.107 157.545C135.756 162.636 140.327 167.546 145.421 171.959C150.624 176.068 155.95 179.364 160.997 181.531C166.045 183.698 171.021 184.639 175.609 184.753C180.101 184.661 184.205 183.743 187.521 181.683C191.25 179.429 193.875 176.434 195.506 172.393ZM96.3778 195.224L107.165 188.146C107.371 188.049 107.578 187.952 107.578 187.952C107.784 187.856 107.784 187.856 107.894 187.552C108.1 187.455 108.004 187.249 108.21 187.152C108.416 187.055 108.32 186.849 108.526 186.752C108.745 186.145 108.964 185.538 109.183 184.931C109.306 184.118 109.318 183.608 109.137 182.685C109.053 181.969 108.872 181.046 108.484 180.22C108.097 179.394 107.709 178.568 107.322 177.742C106.631 176.807 106.146 175.774 105.358 174.632C104.571 173.49 103.783 172.348 102.898 170.999C102.013 169.651 101.128 168.302 100.341 167.16C99.4559 165.812 98.5713 164.463 97.893 163.018C97.0083 161.669 96.2331 160.017 95.2515 158.462C94.1729 156.7 93.3978 155.048 92.3193 153.287C91.5441 151.635 90.5624 150.08 90.078 149.047C89.4966 147.808 89.2059 147.189 89.109 146.983C88.4181 146.047 87.6302 144.905 86.9393 143.969C86.0419 143.131 85.1445 142.292 84.3439 141.66C83.5434 141.027 82.5365 140.492 81.6264 140.163C80.7163 139.834 79.9031 139.712 78.9803 139.893L63.0279 141.332C68.3064 154.728 75.8307 168.079 85.1036 180.861C88.4488 185.842 92.4133 190.533 96.3778 195.224ZM101.959 48.7351C101.753 48.832 101.753 48.832 101.546 48.9289C101.34 49.0258 101.34 49.0257 101.133 49.1226C101.133 49.1226 100.927 49.2195 101.024 49.426C100.914 49.7294 100.708 49.8263 100.805 50.0328C100.695 50.3361 100.792 50.5426 100.682 50.846C100.779 51.0525 100.767 51.5624 100.864 51.7689C101.057 52.1819 101.154 52.3883 101.348 52.8013C101.639 53.4208 102.039 53.7369 102.536 54.2595C102.936 54.5756 103.434 55.0982 103.834 55.4143C104.234 55.7304 104.841 55.9497 105.351 55.9624C105.86 55.9751 106.164 56.0847 106.674 56.0975C106.88 56.0006 106.88 56.0006 107.087 55.9037C107.293 55.8068 107.293 55.8068 107.499 55.7099C107.706 55.613 107.706 55.613 107.912 55.5162C107.912 55.5162 108.119 55.4193 108.022 55.2128C108.132 54.9094 108.338 54.8125 108.241 54.606C108.144 54.3996 108.254 54.0962 108.363 53.7928C108.266 53.5863 108.279 53.0764 108.182 52.8699C107.989 52.4569 107.892 52.2504 107.698 51.8374C107.407 51.218 107.007 50.9019 106.51 50.3793C106.013 49.8567 105.612 49.5405 105.212 49.2244C104.812 48.9083 104.205 48.6891 103.695 48.6764C103.185 48.6637 102.882 48.5541 102.372 48.5413C102.372 48.5413 102.166 48.6382 101.959 48.7351Z" fill="url(#paint2_linear_90_79653)"/>
<path d="M96.2767 195.018L71.112 218.164C70.6148 217.642 70.0207 216.913 69.5236 216.39C69.4267 216.184 69.1233 216.074 68.9296 215.661C67.9352 214.616 67.1474 213.474 66.1531 212.429C66.0562 212.222 65.9593 212.016 65.7528 212.112C64.7585 211.067 63.8738 209.719 63.0859 208.577C62.989 208.37 62.989 208.37 62.8921 208.164C62.7952 207.957 62.6983 207.751 62.6983 207.751C61.9105 206.609 60.9163 205.563 60.0315 204.215C60.0315 204.215 60.0315 204.215 59.9346 204.008C59.1468 202.866 58.262 201.518 57.4742 200.376C57.3773 200.169 57.1835 199.756 56.8802 199.646C56.0923 198.504 55.2076 197.156 54.4198 196.014C54.3229 195.807 54.3229 195.807 54.226 195.601C53.4381 194.459 52.8568 193.22 52.0689 192.078C51.972 191.871 51.972 191.871 51.8751 191.665L51.7783 191.458C50.9904 190.316 50.3121 188.871 49.5243 187.729C49.4274 187.522 49.3305 187.316 49.2336 187.109C48.6523 185.87 47.9613 184.935 47.3799 183.696C47.283 183.489 47.1861 183.283 47.0892 183.076C46.5078 181.837 45.72 180.695 45.1387 179.456C45.0418 179.25 44.9449 179.043 44.7511 178.63C44.1697 177.391 43.6853 176.359 43.1039 175.12L43.007 174.913C43.007 174.913 43.007 174.913 42.9101 174.707C42.7163 174.294 42.4256 173.674 42.2318 173.261C42.038 172.848 41.8443 172.435 41.6505 172.022C41.4567 171.609 41.2629 171.196 41.0691 170.783C40.8753 170.37 40.6815 169.957 40.4877 169.544C40.2939 169.131 40.1001 168.718 39.9064 168.305C39.7126 167.892 39.5188 167.479 39.2281 166.86L63.2174 141.745C63.4112 142.158 63.605 142.571 63.7988 142.984C63.9926 143.397 64.1864 143.81 64.4771 144.43C64.6708 144.843 64.8646 145.256 65.0584 145.669C65.2522 146.082 65.446 146.495 65.7367 147.114C65.9305 147.527 66.1243 147.94 66.415 148.56C66.6087 148.973 66.8025 149.386 66.9963 149.799C67.1901 150.212 67.4808 150.831 67.6746 151.244C67.7715 151.451 67.7715 151.451 67.8684 151.657C68.4497 152.896 69.0311 154.135 69.6125 155.374C69.7094 155.58 69.8063 155.787 70.0001 156.2C70.5814 157.439 71.4662 158.787 72.0476 160.026C72.1445 160.233 72.2414 160.439 72.3383 160.646C72.9196 161.885 73.7074 163.027 74.1919 164.059C74.2888 164.266 74.3857 164.472 74.4826 164.679C75.2704 165.821 75.9487 167.266 76.7365 168.409C76.8334 168.615 77.0272 169.028 77.1241 169.235C77.912 170.377 78.4933 171.616 79.2812 172.758C79.3781 172.964 79.3781 172.964 79.475 173.171C80.2628 174.313 81.1475 175.661 81.9353 176.803C82.0322 177.01 82.2261 177.423 82.5294 177.532C83.3173 178.675 84.202 180.023 85.0867 181.372C85.0867 181.372 85.0867 181.372 85.1836 181.578C85.9714 182.72 87.0627 183.972 87.8505 185.114C87.9474 185.321 88.3476 185.637 88.4445 185.843C89.2323 186.985 90.3236 188.237 91.3179 189.282C91.4148 189.489 91.5117 189.695 91.7181 189.598C92.506 190.74 93.5003 191.785 94.4946 192.831C94.5915 193.037 94.8949 193.147 95.0887 193.56C95.2824 193.973 95.7795 194.495 96.2767 195.018ZM55.5747 79.8219C55.4778 79.6154 55.6842 79.5185 55.5874 79.312C55.8065 78.7053 55.8192 78.1954 56.0383 77.5887C56.1479 77.2853 56.051 77.0788 56.1606 76.7754C56.1733 76.2655 56.4893 75.8653 56.502 75.3554C56.6116 75.052 56.7211 74.7487 56.8307 74.4453C56.8434 73.9354 57.1594 73.5351 57.269 73.2318C57.3786 72.9284 57.4881 72.625 57.5977 72.3217C57.7073 72.0183 57.9264 71.4115 58.036 71.1081C58.1456 70.8048 58.2552 70.5014 58.3648 70.198C58.4744 69.8946 58.6935 69.2879 58.803 68.9845C58.9126 68.6811 59.0222 68.3777 59.1318 68.0743C59.4479 67.6741 59.4605 67.1642 59.7766 66.764C59.8861 66.4606 59.9957 66.1572 60.2021 66.0603C60.5182 65.6601 60.7373 65.0533 60.8469 64.75C60.9565 64.4466 61.163 64.3497 61.2726 64.0463C61.6982 63.3427 61.9173 62.7359 62.4398 62.2388C62.8654 61.5351 63.291 60.8315 63.7167 60.1279C64.1423 59.4242 64.6648 58.9271 65.2969 58.1265C65.7225 57.4229 66.245 56.9258 66.8771 56.1253C67.3996 55.6281 67.8252 54.9245 68.5542 54.3305L45.3065 78.3411C44.7713 79.3481 44.3457 80.0517 43.8232 80.5489C43.3007 81.046 42.6686 81.8466 42.2429 82.5502C41.8173 83.2538 41.2948 83.751 40.6628 84.5515C40.2371 85.2551 39.8115 85.9588 39.1794 86.7593C38.7538 87.4629 38.5347 88.0697 38.0122 88.5668C37.9026 88.8702 37.6961 88.9671 37.5866 89.2704C37.2705 89.6707 37.0513 90.2775 36.9417 90.5809C36.9417 90.5809 36.7353 90.6777 36.8322 90.8842C36.7226 91.1876 36.7226 91.1876 36.613 91.491C36.4066 91.5879 36.297 91.8913 36.0778 92.498C35.9683 92.8014 35.8587 93.1048 35.7491 93.4081C35.4331 93.8084 35.4204 94.3183 35.1044 94.7185L34.9948 95.0219C34.7883 95.1188 34.8853 95.3253 34.7757 95.6286C34.6661 95.932 34.4469 96.5388 34.3374 96.8421C34.2278 97.1455 34.1182 97.4489 34.0086 97.7523C33.899 98.0557 33.6799 98.6624 33.5704 98.9658C33.4608 99.2692 33.4608 99.2692 33.3512 99.5725L33.2416 99.8759C33.0224 100.483 32.9129 100.786 32.6937 101.393C32.5841 101.696 32.4746 102 32.5715 102.206C32.3523 102.813 32.3396 103.323 32.1205 103.929C32.2174 104.136 32.011 104.233 32.1079 104.439C31.6822 105.143 31.3535 106.053 31.1217 107.17C31.0121 107.473 31.109 107.68 30.9025 107.776C30.6707 108.893 30.6453 109.913 30.3166 110.823C30.3166 110.823 30.3166 110.823 30.4135 111.029C30.5104 111.236 30.3039 111.333 30.4008 111.539L54.9046 82.152C55.1237 81.5453 55.246 80.732 55.5747 79.8219ZM198.997 253.397C198.488 253.384 197.978 253.371 197.165 253.249C196.655 253.236 195.842 253.114 195.332 253.101C194.822 253.089 194.215 252.869 193.499 252.953C192.989 252.941 192.176 252.818 191.666 252.806C191.156 252.793 190.549 252.574 190.04 252.561C189.433 252.342 188.717 252.426 188.11 252.207C187.503 251.987 186.787 252.072 186.18 251.852C185.573 251.633 184.857 251.717 184.25 251.498C183.644 251.279 182.83 251.157 182.321 251.144C181.714 250.925 181.107 250.705 180.391 250.79C179.784 250.57 178.971 250.448 178.364 250.229C177.757 250.01 177.151 249.79 176.338 249.668C175.731 249.449 174.918 249.326 174.311 249.107C173.911 248.791 173.097 248.669 172.491 248.45C171.884 248.23 170.974 247.901 170.367 247.682C169.76 247.463 169.154 247.244 168.547 247.025C167.94 246.805 167.03 246.477 166.423 246.257C165.817 246.038 165.21 245.819 164.506 245.393C163.803 244.967 162.989 244.845 162.286 244.419C161.679 244.2 160.976 243.774 160.369 243.555C159.665 243.13 158.852 243.007 158.148 242.581C157.542 242.362 156.838 241.937 156.231 241.717C155.528 241.292 154.618 240.963 153.914 240.537C153.21 240.111 152.604 239.892 151.9 239.466C151.5 239.15 150.893 238.931 150.493 238.615L127.561 262.225C128.168 262.445 128.568 262.761 129.175 262.98C129.478 263.09 129.575 263.296 129.781 263.199C130.085 263.309 130.182 263.515 130.388 263.418C130.788 263.734 131.298 263.747 131.699 264.063C132.402 264.489 133.215 264.611 133.919 265.037C134.526 265.256 135.229 265.682 135.836 265.901C136.54 266.327 137.353 266.449 137.96 266.668C138.263 266.778 138.566 266.888 138.566 266.888C138.87 266.997 139.476 267.217 139.78 267.326C140.387 267.545 141.297 267.874 141.903 268.093C142.51 268.313 143.117 268.532 143.724 268.751C144.33 268.97 145.143 269.093 145.847 269.518C146.15 269.628 146.454 269.738 146.66 269.641C146.964 269.75 147.473 269.763 147.777 269.873C148.384 270.092 149.197 270.214 149.803 270.433C150.41 270.653 151.017 270.872 151.733 270.788C152.34 271.007 153.153 271.129 153.76 271.349C154.063 271.458 154.367 271.568 154.573 271.471C154.876 271.58 155.18 271.69 155.69 271.703C156.296 271.922 157.11 272.044 157.619 272.057C158.226 272.276 158.942 272.192 159.549 272.411C159.853 272.521 160.156 272.631 160.666 272.643C160.969 272.753 161.272 272.863 161.685 272.669C161.989 272.778 162.292 272.888 162.499 272.791C162.802 272.901 163.008 272.804 163.518 272.817C164.028 272.829 164.635 273.049 165.351 272.964C165.861 272.977 166.674 273.099 167.184 273.112C167.694 273.125 168.3 273.344 169.017 273.26C169.527 273.273 170.34 273.395 170.85 273.408C171.359 273.421 171.869 273.433 172.586 273.349C173.096 273.362 173.812 273.278 174.322 273.29C174.831 273.303 175.341 273.316 176.058 273.232C176.264 273.135 176.567 273.244 176.774 273.147C177.077 273.257 177.49 273.063 177.794 273.173C178.303 273.186 178.813 273.198 179.53 273.114L201.269 252.331C200.32 253.532 199.604 253.616 198.997 253.397Z" fill="url(#paint3_linear_90_79653)"/>
<path opacity="0.62" d="M253.069 216.685C249.344 227 243.023 235.005 234.823 240.617C226.623 246.228 216.144 249.13 204.709 249.457C192.97 249.674 179.971 247.206 166.333 241.764C152.487 236.418 138.209 228.001 124.309 216.634C110.203 205.364 97.9808 192.202 87.9201 178.278C77.8593 164.354 70.0569 149.874 64.8038 135.457C59.5507 121.041 56.834 107.198 56.9445 94.548C57.152 82.1046 59.9801 70.9511 65.926 61.6101C71.7624 52.5724 79.6716 46.3415 89.0469 42.6981C93.0667 41.0639 97.3772 40.0491 101.881 39.4472C96.3575 40.0236 91.1243 41.2194 86.3882 42.9379C76.7095 46.4716 68.5939 52.7994 62.6479 62.1405C56.7019 71.4815 53.7643 82.9384 53.6538 95.5883C53.4337 108.542 56.2472 122.591 61.5003 137.007C66.8503 151.63 74.8465 166.523 85.0041 180.654C95.2587 194.991 107.784 208.263 121.987 219.739C136.19 231.216 150.772 239.743 164.714 245.295C178.656 250.847 191.958 253.424 203.903 253.11C215.642 252.893 226.025 249.785 234.431 244.076C242.631 238.465 249.158 230.363 252.993 219.745C256.719 209.43 257.727 197.619 256.405 185.137C256.417 184.627 256.333 183.911 256.139 183.498C257.571 195.676 256.685 206.674 253.069 216.685Z" fill="#C6C6C6"/>
<path opacity="0.6" d="M197.619 107.654C196.225 93.9465 191.747 81.1821 185.192 69.8964C175.282 62.2002 165.031 55.9241 155.046 51.2872C142.646 45.2636 130.086 41.5828 118.591 40.1734C106.794 38.6544 95.9521 39.7103 86.2735 43.244C76.5948 46.7778 68.4791 53.1056 62.5331 62.4466C56.5872 71.7877 53.6495 83.2446 53.539 95.8944C53.3189 108.848 56.1324 122.897 61.3856 137.313C66.7356 151.936 74.7317 166.829 84.8893 180.96C92.9742 192.284 102.504 202.93 113.286 212.484C165.563 206.851 203.257 159.936 197.619 107.654Z" fill="url(#paint4_linear_90_79653)"/>
<g opacity="0.6">
<path opacity="0.6" d="M112.489 211.849C111.494 210.804 110.197 209.649 109.202 208.604L109.105 208.398C108.111 207.352 106.813 206.198 105.819 205.152C105.722 204.946 105.419 204.836 105.225 204.423C104.134 203.172 102.933 202.223 101.842 200.972C101.745 200.765 101.442 200.656 101.345 200.449C100.447 199.61 99.4529 198.565 98.4586 197.52C98.3617 197.313 98.0584 197.204 97.9615 196.997C96.8703 195.746 95.876 194.7 94.7848 193.449C94.6879 193.242 94.3846 193.133 94.1908 192.72C93.1965 191.674 92.4086 190.532 91.4143 189.487C91.3174 189.281 91.2205 189.074 91.014 189.171C90.0197 188.126 89.135 186.777 88.1407 185.732C88.0438 185.526 87.6435 185.21 87.5466 185.003C86.7588 183.861 85.6676 182.609 84.8798 181.467C84.8798 181.467 84.8798 181.467 84.7829 181.261C83.8982 179.912 83.1103 178.77 82.2255 177.421C82.1287 177.215 81.9349 176.802 81.6315 176.692C80.8437 175.55 79.959 174.202 79.1712 173.06C79.0743 172.853 79.0743 172.853 78.9774 172.647C78.1895 171.505 77.4017 170.362 76.8203 169.123C76.7234 168.917 76.5296 168.504 76.4327 168.298C75.6449 167.155 74.9666 165.71 74.1788 164.568C74.0819 164.361 73.985 164.155 73.8881 163.948C73.3067 162.709 72.5189 161.567 72.0344 160.535C71.9375 160.328 71.8406 160.122 71.7437 159.915C71.1623 158.676 70.2776 157.328 69.6963 156.089C69.5994 155.882 69.5025 155.676 69.3087 155.263C68.7273 154.024 68.1459 152.785 67.5646 151.546C67.4677 151.34 67.4677 151.34 67.3708 151.133C67.177 150.72 66.8863 150.101 66.6925 149.688C66.4987 149.275 66.3049 148.862 66.1112 148.449C65.9174 148.036 65.7236 147.623 65.4329 147.003C65.2391 146.59 65.0453 146.177 64.7546 145.558C64.5608 145.145 64.367 144.732 64.1733 144.319C63.9795 143.906 63.7857 143.493 63.495 142.873C63.3012 142.46 63.1074 142.047 62.9136 141.634C62.7198 141.221 62.4292 140.602 62.2354 140.189C62.0416 139.776 61.8478 139.363 61.654 138.95C61.4602 138.537 61.1695 137.917 61.1822 137.408C60.9884 136.995 60.7946 136.582 60.8073 136.072C60.6135 135.659 60.4197 135.246 60.4324 134.736C60.2386 134.323 60.0448 133.91 60.0575 133.4C59.8637 132.987 59.6699 132.574 59.6826 132.064C59.4888 131.651 59.5015 131.141 59.3077 130.728C59.1139 130.315 59.1266 129.805 58.9328 129.393C58.739 128.98 58.7517 128.47 58.5579 128.057C58.3641 127.644 58.3768 127.134 58.183 126.721C57.9892 126.308 58.0019 125.798 57.8081 125.385C57.6143 124.972 57.627 124.462 57.4332 124.049C57.2394 123.636 57.2521 123.126 57.0583 122.713C56.8645 122.3 56.8772 121.79 56.6834 121.377C56.4896 120.964 56.5023 120.455 56.3085 120.042C56.1147 119.629 56.1274 119.119 56.0305 118.912C55.8367 118.499 55.8494 117.989 55.6556 117.576C55.4618 117.163 55.4745 116.654 55.3776 116.447C55.1838 116.034 55.1965 115.524 55.0027 115.111C54.8089 114.698 54.9185 114.395 54.7247 113.982C54.7373 113.472 54.5436 113.059 54.5562 112.549C54.5689 112.039 54.472 111.833 54.4847 111.323C54.4974 110.813 54.3036 110.4 54.3163 109.89C54.2194 109.684 54.232 109.174 54.1351 108.967C54.0636 107.741 53.7857 106.612 53.7141 105.385C53.7141 105.385 53.7141 105.385 53.6172 105.179C53.5457 103.953 53.571 102.933 53.293 101.804C53.1961 101.597 53.3057 101.294 53.2088 101.087C53.1373 99.861 53.1626 98.8413 53.0911 97.615C52.9942 97.4085 53.2006 97.3117 53.1038 97.1052C53.1291 96.0854 53.1545 95.0657 53.1799 94.046C53.083 93.8395 53.1925 93.5361 53.1925 93.5361C53.2179 92.5164 53.2432 91.4966 53.475 90.38C53.3781 90.1735 53.4878 89.8701 53.3909 89.6636C53.4162 88.6439 53.648 87.5272 53.7703 86.714C53.7703 86.714 53.6734 86.5075 53.8798 86.4106C54.1117 85.294 54.1371 84.2743 54.3689 83.1576C54.4785 82.8543 54.3816 82.6478 54.588 82.5509C54.8199 81.4342 54.9421 80.621 55.1739 79.5044C55.077 79.2979 55.2835 79.201 55.1866 78.9945C55.4058 78.3877 55.4185 77.8779 55.6376 77.2711C55.7472 76.9678 55.6503 76.7613 55.7599 76.4579C55.7725 75.948 56.0886 75.5477 56.1013 75.0379C56.2109 74.7345 56.3204 74.4311 56.43 74.1277C56.4427 73.6179 56.7587 73.2176 56.8683 72.9142C56.9779 72.6109 57.0874 72.3075 57.197 72.0041C57.3066 71.7007 57.5257 71.094 57.6353 70.7906C57.7449 70.4872 57.8544 70.1839 57.964 69.8805C58.0736 69.5771 58.2927 68.9703 58.4023 68.667C58.5119 68.3636 58.6214 68.0602 58.731 67.7568C59.0471 67.3566 59.0597 66.8467 59.3758 66.4465C59.4853 66.1431 59.595 65.8397 59.8014 65.7428C60.1175 65.3425 60.3366 64.7358 60.4462 64.4324C60.5558 64.129 60.7622 64.0322 60.8718 63.7288C61.2974 63.0252 61.5166 62.4184 62.0391 61.9212L38.6818 86.2353C38.2562 86.9389 38.0371 87.5456 37.5146 88.0428C37.405 88.3462 37.1985 88.4431 37.0889 88.7464C36.7729 89.1467 36.5537 89.7535 36.4441 90.0568C36.4441 90.0568 36.2377 90.1537 36.3346 90.3602C36.225 90.6636 36.225 90.6636 36.1154 90.9669C36.4061 91.5864 36.2965 91.8898 36.0774 92.4966C35.9678 92.8 35.8582 93.1033 35.7487 93.4067C35.4326 93.807 35.42 94.3168 35.1039 94.7171L34.9943 95.0205C34.7878 95.1174 34.8848 95.3238 34.7752 95.6272C34.6656 95.9306 34.4465 96.5373 34.3369 96.8407C34.2273 97.1441 34.1177 97.4475 34.0081 97.7509C33.8986 98.0543 33.6795 98.661 33.5699 98.9644C33.4603 99.2677 33.4603 99.2677 33.3507 99.5711L33.2411 99.8745C33.022 100.481 32.9124 100.785 32.6933 101.391C32.5837 101.695 32.4741 101.998 32.571 102.205C32.3518 102.811 32.3392 103.321 32.12 103.928C32.2169 104.135 32.0105 104.231 32.1074 104.438C31.6818 105.142 31.353 106.052 31.1212 107.168C31.0116 107.472 31.1085 107.678 30.9021 107.775C30.6702 108.892 30.6448 109.911 30.3161 110.822C30.3161 110.822 30.3161 110.822 30.413 111.028C30.3877 112.048 30.0589 112.958 30.0336 113.978C30.1305 114.184 30.0209 114.487 30.1178 114.694C30.0925 115.714 29.8606 116.83 29.8353 117.85L29.9322 118.057C30.0291 118.263 29.8226 118.36 29.9195 118.566C29.9068 119.076 29.8941 119.586 29.7846 119.89C29.7719 120.399 29.7592 120.909 29.7465 121.419C29.8434 121.626 29.6369 121.723 29.7338 121.929C29.7085 122.949 29.78 124.175 29.7547 125.195C29.7547 125.195 29.8515 125.401 29.6451 125.498C29.742 125.705 29.742 125.705 29.6324 126.008C29.704 127.234 29.6785 128.254 29.9565 129.383C29.9565 129.383 29.9565 129.383 30.0534 129.59C30.125 130.816 30.1965 132.042 30.4745 133.172C30.5714 133.378 30.5715 133.378 30.4619 133.682C30.5588 133.888 30.4492 134.191 30.4492 134.191C30.4365 134.701 30.6303 135.114 30.5207 135.418C30.508 135.928 30.605 136.134 30.5923 136.644C30.5796 137.154 30.7734 137.567 30.7607 138.077C30.748 138.586 30.8449 138.793 31.0387 139.206C31.026 139.716 31.2198 140.129 31.2071 140.639C31.4009 141.052 31.2914 141.355 31.4851 141.768C31.4725 142.278 31.6663 142.691 31.8601 143.104C31.957 143.31 31.9569 143.31 31.8474 143.614C31.9442 143.82 32.0412 144.027 31.9316 144.33C32.1254 144.743 32.1127 145.253 32.3065 145.666C32.5002 146.079 32.4876 146.589 32.5845 146.795C32.7783 147.208 32.7656 147.718 32.9594 148.131C33.1531 148.544 33.1405 149.054 33.3343 149.467C33.5281 149.88 33.5154 150.39 33.7091 150.803C33.9029 151.216 33.8903 151.726 34.0841 152.139C34.2779 152.552 34.2652 153.062 34.459 153.475C34.5559 153.681 34.5559 153.681 34.6528 153.888C34.7497 154.094 34.9434 154.507 34.8339 154.81C35.0277 155.223 35.015 155.733 35.2088 156.146C35.4026 156.559 35.3899 157.069 35.5837 157.482C35.7774 157.895 35.9713 158.308 35.9586 158.818C36.1524 159.231 36.3461 159.644 36.3334 160.154C36.4303 160.36 36.6241 160.773 36.721 160.98C36.8179 161.186 36.8179 161.186 36.9148 161.393C37.1086 161.806 37.3024 162.219 37.3866 162.935C37.5804 163.348 37.7742 163.761 37.968 164.174L38.0649 164.381C38.2587 164.794 38.3556 165 38.5494 165.413C38.7432 165.826 38.937 166.239 39.1308 166.652C39.3245 167.065 39.5183 167.478 39.809 168.097C40.0028 168.51 40.1966 168.923 40.3904 169.336C40.5842 169.749 40.778 170.162 40.9717 170.575C41.1655 170.988 41.3593 171.401 41.5531 171.814C41.7469 172.227 41.9407 172.64 42.1345 173.053C42.3283 173.466 42.619 174.086 42.8127 174.499C42.8127 174.499 42.8127 174.499 42.9096 174.705L43.0065 174.912C43.5879 176.151 44.0724 177.183 44.6537 178.422C44.7506 178.629 44.8475 178.835 45.0413 179.248C45.6227 180.487 46.204 181.726 46.9919 182.868C47.0888 183.075 47.1857 183.281 47.2826 183.488C47.8639 184.727 48.5549 185.662 49.1363 186.901C49.2332 187.108 49.3301 187.314 49.427 187.521C50.2148 188.663 50.8931 190.108 51.6809 191.25L51.7778 191.457C51.8747 191.663 51.8747 191.663 51.9716 191.87C52.7594 193.012 53.3408 194.251 54.1286 195.393C54.2255 195.599 54.2255 195.599 54.3224 195.806C55.1103 196.948 55.995 198.296 56.7828 199.439C56.8797 199.645 57.0735 200.058 57.3768 200.168C58.1647 201.31 59.0494 202.658 59.8373 203.8C59.8373 203.8 59.8373 203.8 59.9342 204.007C60.722 205.149 61.5098 206.291 62.601 207.543C62.6979 207.749 62.7948 207.956 62.7948 207.956C62.8917 208.162 62.8917 208.162 62.9886 208.369C63.7764 209.511 64.8676 210.762 65.6555 211.905C65.7524 212.111 65.8493 212.318 66.0558 212.221C66.8436 213.363 67.8379 214.408 68.8322 215.453C68.9291 215.66 69.2324 215.769 69.4262 216.182C70.4205 217.227 71.5117 218.479 72.2995 219.621C72.3964 219.828 72.6998 219.937 72.7967 220.144C73.7911 221.189 74.7854 222.234 75.7797 223.279C75.8766 223.486 75.8766 223.486 76.1799 223.596C76.1799 223.596 76.1799 223.596 76.2768 223.802C77.2711 224.847 78.3623 226.099 79.5631 227.047C79.66 227.254 79.9633 227.363 80.1571 227.776C81.1514 228.822 82.1458 229.867 83.3466 230.815L83.4434 231.021C84.4377 232.067 85.7354 233.222 86.9362 234.17L87.0331 234.376L112.489 211.849C112.792 211.959 112.792 211.959 112.489 211.849Z" fill="url(#paint5_linear_90_79653)"/>
</g>
</g>
<defs>
<linearGradient id="paint0_linear_90_79653" x1="151.024" y1="50.6583" x2="113.465" y2="327.51" gradientUnits="userSpaceOnUse">
<stop stop-color="#AC100E"/>
<stop offset="1" stop-color="#310000"/>
</linearGradient>
<linearGradient id="paint1_linear_90_79653" x1="90.4228" y1="41.4222" x2="233.062" y2="271.763" gradientUnits="userSpaceOnUse">
<stop stop-color="#EC240E"/>
<stop offset="1" stop-color="#510000"/>
</linearGradient>
<linearGradient id="paint2_linear_90_79653" x1="134.924" y1="34.673" x2="179.791" y2="276.028" gradientUnits="userSpaceOnUse">
<stop stop-color="white"/>
<stop offset="0.3282" stop-color="#FBFBFB"/>
<stop offset="0.6789" stop-color="#EEEEEE"/>
<stop offset="1" stop-color="#DBDBDB"/>
</linearGradient>
<linearGradient id="paint3_linear_90_79653" x1="105.53" y1="30.9654" x2="121.654" y2="272.592" gradientUnits="userSpaceOnUse">
<stop stop-color="#D1D1D1"/>
<stop offset="0.5952" stop-color="#9E9E9E"/>
<stop offset="1" stop-color="#808080"/>
</linearGradient>
<linearGradient id="paint4_linear_90_79653" x1="101.353" y1="27.2066" x2="164.876" y2="236.928" gradientUnits="userSpaceOnUse">
<stop stop-color="#7D7D7D"/>
<stop offset="0.1529" stop-color="#717171"/>
<stop offset="0.4269" stop-color="#525252"/>
<stop offset="0.7877" stop-color="#212121"/>
<stop offset="1"/>
</linearGradient>
<linearGradient id="paint5_linear_90_79653" x1="119.345" y1="209.398" x2="70.8924" y2="145.923" gradientUnits="userSpaceOnUse">
<stop stop-color="#7D7D7D"/>
<stop offset="0.1529" stop-color="#717171"/>
<stop offset="0.4269" stop-color="#525252"/>
<stop offset="0.7877" stop-color="#212121"/>
<stop offset="1"/>
</linearGradient>
</defs>
</svg>
