<svg width="241" height="82" viewBox="0 0 241 82" fill="none" xmlns="http://www.w3.org/2000/svg">
<path fill-rule="evenodd" clip-rule="evenodd" d="M42.6455 73.6411L42.2886 73.8493L28.1893 81.9998L14.0947 73.8493L0 65.7034V52.6543L14.7806 57.2014L28.1893 64.9541L42.6455 73.6411Z" fill="#F41616"/>
<path fill-rule="evenodd" clip-rule="evenodd" d="M14.8038 74.2612L14.0947 73.8495L0 65.7036V49.4072V48.8845V33.1155V32.5881V16.2964L15.6195 17.9431L14.7806 24.7984V28.8644V40.2992V41.7008V53.7369V57.2016L14.8038 74.2612Z" fill="#F41616"/>
<path fill-rule="evenodd" clip-rule="evenodd" d="M28.1893 0L41.0187 7.41502L28.1893 17.0457L14.7806 24.7984L0 34.0591V33.1155V32.5881V16.2964L14.0947 8.14588L28.1893 0Z" fill="#F41616"/>
<path fill-rule="evenodd" clip-rule="evenodd" d="M28.1891 0L42.2884 8.14588L56.3831 16.2964V32.5881V33.1155V33.1664L41.5144 24.7476L28.1891 17.0457L14.0945 8.14588L28.1891 0Z" fill="#F2F2F2"/>
<path fill-rule="evenodd" clip-rule="evenodd" d="M56.3834 16.2964V32.5881V33.1155V33.1664L42.9237 40.9977L28.4583 49.6617V32.3384L41.5147 24.7476L56.3834 16.2964Z" fill="#F41616"/>
<path fill-rule="evenodd" clip-rule="evenodd" d="M42.9237 40.9977L56.3834 48.829V48.8846V49.4073V65.7036L41.5147 57.2525L28.4583 49.6617V32.3384L42.9237 40.9977Z" fill="#F2F2F2"/>
<path fill-rule="evenodd" clip-rule="evenodd" d="M56.3834 48.8843V49.407V65.7034L42.6456 73.6411L28.1895 64.954L41.5147 57.2522L56.3834 48.8843Z" fill="#F41616"/>
<path d="M107.024 29.9466C107.376 31.5517 107.552 33.4252 107.552 35.5576V37.6716C107.552 41.6265 107.209 44.291 106.523 45.6648C104.424 50.5218 99.9001 52.9503 92.9477 52.9503C92.0625 53.0104 90.482 52.9318 88.2063 52.7144C87.2839 52.5987 86.153 52.4692 84.8182 52.3304V65.5831H73.5415V20.5148L88.8227 20.2188H92.9431C99.2836 20.2188 103.552 22.2078 105.749 26.1859C106.329 27.3608 106.75 28.6144 107.024 29.9466ZM97.3092 34.7065C97.3092 32.3566 96.9476 30.7607 96.22 29.9189C95.4923 29.1741 94.366 28.7162 92.8319 28.5358C91.1262 28.323 88.4565 28.3785 84.8228 28.7116V44.1106C88.7671 44.5592 91.5573 44.698 93.1841 44.5222C94.4587 44.4066 95.3718 44.0227 95.9233 43.3751C96.8457 42.3944 97.3092 40.8587 97.3092 38.7632V34.7065Z" fill="#F2F2F2"/>
<path d="M144.293 65.5923H117.207V20.4546H128.66V56.8034H143.38L144.293 65.5923Z" fill="#F2F2F2"/>
<path d="M184.742 65.5926L182.623 58.6586H166.842L164.779 65.5926H152.001L168.459 20.4595H181.122L197.464 65.5926H184.742ZM174.73 30.9737L168.932 50.3092H180.533L174.73 30.9737Z" fill="#F2F2F2"/>
<path d="M210.294 65.5922L215.916 51.5763L203.666 20.5146H216.328L222.363 39.1146L228.398 20.5146H241L222.952 65.5922H210.294Z" fill="#F2F2F2"/>
</svg>
